<svg width="172" height="40" viewBox="0 0 172 40" fill="none" xmlns="http://www.w3.org/2000/svg">
<path d="M10.4697 10.0596L11.916 13.2588L10.3555 13.9639L8.90918 10.7646L5.03613 12.5146L7.90039 18.8525C8.21887 18.1489 8.73493 17.5542 9.37793 17.1387L9.2373 16.8535L20.1338 11.4492L20.1416 11.4668L20.1465 11.4648L23.5459 18.3193L23.5342 18.3242L23.5361 18.3281L21.4014 19.3867H48.1318L52.9814 13.6768L53.1309 13.5H162.5V14.5H53.5928L48.7432 20.21L48.5938 20.3867H19.3838L18.8701 20.6416L18.7432 20.3867H16.6436L21.1709 28.8906L21.1514 28.9004L21.1543 28.9053L14.4014 32.5L14.3936 32.4863L14.3916 32.4883L11.9443 27.8916L13.4561 27.0869L15.1055 30.1855L18.8564 28.1875L15.376 21.6514C15.1601 22.3705 14.7482 23.0041 14.2012 23.4902L14.3848 23.7705L4.21094 30.4385L4.19727 30.418L4.19434 30.4209L0 24.0225L1.43164 23.084L4.36914 21.1592L5.30762 22.5908L2.37012 24.5156L4.7002 28.0693L10.4014 24.333C9.4484 24.0489 8.64433 23.4198 8.13477 22.5898L7.7832 22.75L2.77441 11.666L2.79492 11.6562L2.79297 11.6514L9.76465 8.5L10.4697 10.0596ZM9.99805 18.3877L9.82715 18.043C9.10523 18.5489 8.61539 19.3633 8.55273 20.2959L9.34375 22.0449L9.05664 22.1738C9.59549 22.9736 10.509 23.5 11.5459 23.5C11.5904 23.5 11.6347 23.498 11.6787 23.4961L13.4463 22.3389L13.6445 22.6406C14.1998 22.0962 14.5459 21.3391 14.5459 20.5C14.5459 20.3358 14.5322 20.1747 14.5068 20.0176L13.9434 18.959L14.0732 18.8887C13.5779 18.1134 12.7386 17.58 11.7686 17.5088L9.99805 18.3877ZM13.1367 16.8301C13.896 17.1596 14.5331 17.717 14.9609 18.417L15.4551 18.1543L16.1113 19.3867H18.2471L18.1094 19.1084L21.2529 17.5488L19.3643 13.7412L13.1367 16.8301Z" fill="url(#paint0_linear_140_679)"/>
<defs>
<linearGradient id="paint0_linear_140_679" x1="163" y1="-7.49219" x2="90.0294" y2="-84.5455" gradientUnits="userSpaceOnUse">
<stop stop-color="#214FD6" stop-opacity="0"/>
<stop offset="0.400038" stop-color="#B5EDFF"/>
<stop offset="1" stop-color="#5383EB"/>
</linearGradient>
</defs>
</svg>
