<svg width="172" height="40" viewBox="0 0 172 40" fill="none" xmlns="http://www.w3.org/2000/svg">
<path d="M161.53 10.0596L160.084 13.2588L161.645 13.9639L163.091 10.7646L166.964 12.5146L164.1 18.8525C163.781 18.1489 163.265 17.5542 162.622 17.1387L162.763 16.8535L151.866 11.4492L151.858 11.4668L151.854 11.4648L148.454 18.3193L148.466 18.3242L148.464 18.3281L150.599 19.3867H123.868L119.019 13.6768L118.869 13.5H9.5V14.5H118.407L123.257 20.21L123.406 20.3867H152.616L153.13 20.6416L153.257 20.3867H155.356L150.829 28.8906L150.849 28.9004L150.846 28.9053L157.599 32.5L157.606 32.4863L157.608 32.4883L160.056 27.8916L158.544 27.0869L156.895 30.1855L153.144 28.1875L156.624 21.6514C156.84 22.3705 157.252 23.0041 157.799 23.4902L157.615 23.7705L167.789 30.4385L167.803 30.418L167.806 30.4209L172 24.0225L170.568 23.084L167.631 21.1592L166.692 22.5908L169.63 24.5156L167.3 28.0693L161.599 24.333C162.552 24.0489 163.356 23.4198 163.865 22.5898L164.217 22.75L169.226 11.666L169.205 11.6562L169.207 11.6514L162.235 8.5L161.53 10.0596ZM162.002 18.3877L162.173 18.043C162.895 18.5489 163.385 19.3633 163.447 20.2959L162.656 22.0449L162.943 22.1738C162.405 22.9736 161.491 23.5 160.454 23.5C160.41 23.5 160.365 23.498 160.321 23.4961L158.554 22.3389L158.355 22.6406C157.8 22.0962 157.454 21.3391 157.454 20.5C157.454 20.3358 157.468 20.1747 157.493 20.0176L158.057 18.959L157.927 18.8887C158.422 18.1134 159.261 17.58 160.231 17.5088L162.002 18.3877ZM158.863 16.8301C158.104 17.1596 157.467 17.717 157.039 18.417L156.545 18.1543L155.889 19.3867H153.753L153.891 19.1084L150.747 17.5488L152.636 13.7412L158.863 16.8301Z" fill="url(#paint0_linear_140_657)"/>
<defs>
<linearGradient id="paint0_linear_140_657" x1="9" y1="-7.49219" x2="81.9706" y2="-84.5455" gradientUnits="userSpaceOnUse">
<stop stop-color="#214FD6" stop-opacity="0"/>
<stop offset="0.400038" stop-color="#B5EDFF"/>
<stop offset="1" stop-color="#5383EB"/>
</linearGradient>
</defs>
</svg>
