<svg preserveAspectRatio="none" width="100%" height="100%" overflow="visible" style="display: block;" viewBox="0 0 432.489 48" fill="none" xmlns="http://www.w3.org/2000/svg">
<g id="&#231;&#186;&#185;&#233;&#165;&#176; 1" clip-path="url(#clip0_60_537)">
<path id="Union" d="M334.468 39.8506L342.748 48H309.622L317.903 39.8506L326.187 31.7012L334.468 39.8506ZM379.564 39.8506L387.846 48H354.722L363.003 39.8506L371.283 31.6992L379.564 39.8506ZM423.719 39.8174L432.002 47.9697H398.876L407.157 39.8174L415.438 31.6689L423.719 39.8174ZM290.807 39.75L299.087 47.8994H265.964L274.245 39.75L282.525 31.6006L290.807 39.75ZM157.758 39.7266L166.038 47.875H132.912L141.195 39.7266L149.477 31.5742L157.758 39.7266ZM202.854 39.7236L211.136 47.873H178.012L194.574 31.5742L202.854 39.7236ZM247.012 39.6934L255.292 47.8428H222.167L230.447 39.6934L238.729 31.5439L247.012 39.6934ZM24.8428 39.6553L33.123 47.8047H0L8.28125 39.6553L16.5615 31.5068L24.8428 39.6553ZM69.9424 39.6553L78.2227 47.8047H45.0996L53.3799 39.6553L61.6611 31.5039L69.9424 39.6553ZM114.097 39.623L122.378 47.7744H89.2539L97.5352 39.623L105.815 31.4736L114.097 39.623ZM392.747 2.00488L394.754 -0.000976562L396.34 1.58496L394.333 3.59082L412.277 21.5352L414.604 19.209L416.19 20.7949L413.863 23.1211L416.363 25.6211L414.777 27.207L412.277 24.707L394.161 42.8232L396.169 44.8311L394.583 46.417L392.575 44.4092L390.568 46.418L388.981 44.832L390.989 42.8232L373.045 24.8789L370.717 27.208L370.698 27.1895L370.508 27.3809L368.008 24.8809L349.892 42.998L351.897 45.0039L350.311 46.5898L348.305 44.584L346.3 46.5898L344.714 45.0039L346.719 42.998L328.773 25.0518L327.979 25.8467L327.982 25.8496L326.396 27.4365L323.896 24.9355L305.779 43.0518L307.786 45.0586L306.2 46.6445L304.193 44.6377L302.187 46.6455L300.601 45.0586L302.607 43.0518L284.664 25.1084L283.837 25.9365L283.838 25.9375L282.251 27.5244L279.751 25.0244L261.634 43.1426L263.641 45.1494L262.055 46.7354L260.048 44.7285L258.042 46.7344L256.456 45.1484L258.462 43.1426L240.518 25.1982L239.726 25.9922L239.729 25.9951L238.142 27.5811L235.642 25.0801L217.523 43.1982L219.532 45.207L217.945 46.793L215.938 44.7842L213.933 46.79L212.347 45.2041L214.352 43.1982L196.408 25.2549L194.082 27.582L194.07 27.5703L193.939 27.7021L191.44 25.2031L173.324 43.3184L175.33 45.3242L173.744 46.9102L171.738 44.9043L169.732 46.9111L168.146 45.3252L170.152 43.3184L152.208 25.374L151.413 26.1699L151.414 26.1709L149.828 27.7568L147.329 25.2578L129.212 43.375L131.219 45.3818L129.633 46.9678L127.626 44.9609L125.619 46.9688L124.033 45.3828L126.04 43.375L108.095 25.4297L107.268 26.2588L107.27 26.2607L105.684 27.8477L103.184 25.3477L85.0674 43.4639L87.0732 45.4697L85.4873 47.0566L83.4814 45.0508L81.4746 47.0576L79.8887 45.4717L81.8955 43.4648L63.9512 25.5205L63.1572 26.3154L63.1602 26.3184L61.5742 27.9043L59.0732 25.4033L40.9561 43.5195L42.9629 45.5254L41.377 47.1123L39.3701 45.1055L37.3652 47.1113L35.7793 45.5254L37.7842 43.5195L19.8408 25.5762L17.5127 27.9062L15.9258 26.3203L18.2549 23.9902L15.7539 21.4893L17.3398 19.9033L19.8408 22.4043L37.958 4.28809L35.9512 2.28125L37.5371 0.695312L39.5439 2.70215L41.5488 0.697266L43.1348 2.28418L41.1299 4.28809L59.0732 22.2314L59.8672 21.4365L59.8643 21.4336L61.4502 19.8477L63.9502 22.3477L82.0674 4.23145L80.0605 2.22461L81.6465 0.638672L83.6533 2.64551L85.6621 0.638672L87.248 2.22461L85.2402 4.23145L103.185 22.1758L104.013 21.3477L104.01 21.3447L105.596 19.7588L108.095 22.2578L126.212 4.1416L124.205 2.13477L125.792 0.547852L127.799 2.55469L129.806 0.548828L131.392 2.13477L129.385 4.14062L147.329 22.0859L148.124 21.29L148.121 21.2871L149.707 19.7012L152.207 22.2012L170.323 4.08594L168.316 2.0791L169.902 0.493164L171.909 2.5L173.917 0.493164L175.503 2.08008L173.496 4.08594L191.44 22.0303L193.77 19.7021L193.78 19.7129L193.909 19.584L196.407 22.082L214.525 3.96387L212.52 1.95801L214.105 0.37207L216.111 2.37793L218.118 0.373047L219.705 1.95898L217.698 3.96484L235.642 21.9082L236.435 21.1152L236.432 21.1123L238.018 19.5264L240.517 22.0254L258.635 3.9082L256.628 1.90137L258.215 0.314453L260.222 2.32129L262.228 0.317383L263.813 1.9043L261.809 3.9082L279.752 21.8516L280.579 21.0234L280.577 21.0215L282.163 19.4355L284.664 21.9365L302.78 3.82031L300.773 1.81348L302.359 0.227539L304.366 2.23438L306.373 0.228516L307.959 1.81445L305.952 3.82031L323.896 21.7627L324.689 20.9678L324.688 20.9668L326.274 19.3809L328.773 21.8799L346.891 3.76367L344.885 1.75781L346.471 0.171875L348.477 2.17773L350.482 0.172852L352.068 1.75977L350.062 3.76367L368.008 21.709L370.337 19.3809L370.354 19.3984L370.546 19.208L373.044 21.7061L391.16 3.59082L389.154 1.58496L390.74 -0.00195312L392.747 2.00488ZM34.21 41.1338C35.0029 41.1341 35.6465 41.7773 35.6465 42.5703C35.6465 43.3633 35.0029 44.0066 34.21 44.0068C33.4168 44.0068 32.7735 43.3635 32.7734 42.5703C32.7735 41.7772 33.4168 41.1338 34.21 41.1338ZM78.3193 41.0771C79.1124 41.0772 79.7557 41.7206 79.7559 42.5137C79.7558 43.3068 79.1125 43.9502 78.3193 43.9502C77.5262 43.9502 76.8828 43.3068 76.8828 42.5137C76.8829 41.7206 77.5262 41.0772 78.3193 41.0771ZM122.465 40.9883C123.258 40.9885 123.901 41.6318 123.901 42.4248C123.901 43.2178 123.258 43.8611 122.465 43.8613C121.672 43.8613 121.028 43.2179 121.028 42.4248C121.028 41.6316 121.672 40.9883 122.465 40.9883ZM166.574 40.9316C167.367 40.9317 168.011 41.5751 168.011 42.3682C168.011 43.1613 167.367 43.8047 166.574 43.8047C165.781 43.8046 165.138 43.1613 165.138 42.3682C165.138 41.5751 165.781 40.9317 166.574 40.9316ZM45.1836 40.915C45.9767 40.9151 46.62 41.5585 46.6201 42.3516C46.6201 43.1447 45.9767 43.7881 45.1836 43.7881C44.3907 43.7878 43.7471 43.1446 43.7471 42.3516C43.7472 41.5587 44.3907 40.9153 45.1836 40.915ZM89.2959 40.8584C90.0889 40.8584 90.7322 41.502 90.7324 42.2949C90.7324 43.0881 90.089 43.7314 89.2959 43.7314C88.503 43.7312 87.8594 43.0879 87.8594 42.2949C87.8596 41.5021 88.5031 40.8587 89.2959 40.8584ZM210.776 40.8115C211.569 40.8118 212.213 41.4552 212.213 42.248C212.213 43.041 211.569 43.6843 210.776 43.6846C209.983 43.6846 209.34 43.0412 209.34 42.248C209.34 41.455 209.983 40.8115 210.776 40.8115ZM133.439 40.7695C134.232 40.7698 134.876 41.413 134.876 42.2061C134.876 42.9991 134.232 43.6424 133.439 43.6426C132.646 43.6426 132.003 42.9992 132.003 42.2061C132.003 41.4129 132.646 40.7695 133.439 40.7695ZM254.886 40.7559C255.679 40.7559 256.322 41.3992 256.322 42.1924C256.322 42.9853 255.679 43.6289 254.886 43.6289C254.093 43.6288 253.45 42.9853 253.449 42.1924C253.449 41.3993 254.093 40.7559 254.886 40.7559ZM177.552 40.7129C178.345 40.7132 178.988 41.3565 178.988 42.1494C178.988 42.9424 178.345 43.5856 177.552 43.5859C176.759 43.5859 176.115 42.9426 176.115 42.1494C176.115 41.3564 176.759 40.7129 177.552 40.7129ZM299.031 40.666C299.824 40.6662 300.468 41.3095 300.468 42.1025C300.468 42.8956 299.824 43.5389 299.031 43.5391C298.238 43.5391 297.595 42.8957 297.595 42.1025C297.595 41.3094 298.238 40.666 299.031 40.666ZM343.141 40.6094C343.934 40.6094 344.577 41.2529 344.577 42.0459C344.577 42.839 343.934 43.4824 343.141 43.4824C342.348 43.4823 341.704 42.839 341.704 42.0459C341.704 41.253 342.348 40.6095 343.141 40.6094ZM221.751 40.5928C222.544 40.593 223.187 41.2365 223.188 42.0293C223.187 42.8223 222.544 43.4656 221.751 43.4658C220.958 43.4658 220.314 42.8224 220.314 42.0293C220.315 41.2363 220.958 40.5928 221.751 40.5928ZM265.862 40.5371C266.655 40.5371 267.299 41.1805 267.299 41.9736C267.299 42.7666 266.655 43.4101 265.862 43.4102C265.069 43.4099 264.426 42.7665 264.426 41.9736C264.426 41.1806 265.069 40.5373 265.862 40.5371ZM310.008 40.4473C310.801 40.4473 311.444 41.0908 311.444 41.8838C311.444 42.6769 310.801 43.3203 310.008 43.3203C309.215 43.3203 308.571 42.6769 308.571 41.8838C308.571 41.0908 309.215 40.4473 310.008 40.4473ZM387.413 40.4385C388.206 40.4386 388.85 41.0819 388.85 41.875C388.849 42.6679 388.206 43.3114 387.413 43.3115C386.62 43.3115 385.977 42.668 385.977 41.875C385.977 41.0818 386.62 40.4385 387.413 40.4385ZM354.118 40.3906C354.911 40.3909 355.554 41.0344 355.555 41.8271C355.555 42.6201 354.911 43.2634 354.118 43.2637C353.325 43.2637 352.682 42.6203 352.682 41.8271C352.682 41.0342 353.325 40.3906 354.118 40.3906ZM398.39 40.2197C399.183 40.2198 399.826 40.8631 399.826 41.6562C399.826 42.4493 399.183 43.0927 398.39 43.0928C397.597 43.0926 396.953 42.4492 396.953 41.6562C396.953 40.8632 397.597 40.2199 398.39 40.2197ZM39.1338 6.28223L39.9824 7.13086L38.7324 8.38086L37.8828 7.53125L37.624 7.79004L38.4746 8.64062L37.2246 9.89062L36.374 9.04004L36.0596 9.35449L36.9121 10.2061L35.6621 11.4561L34.8096 10.6035L34.4453 10.9678L35.2969 11.8193L34.0469 13.0693L33.1953 12.2178L32.7715 12.6416L33.6221 13.4912L32.3721 14.7412L31.5215 13.8906L31.1709 14.2422L32.0215 15.0928L30.7715 16.3418L29.9209 15.4922L29.5557 15.8584L30.4062 16.709L29.1562 17.958L28.3066 17.1084L27.8857 17.5293L28.7363 18.3799L27.4873 19.6299L26.6357 18.7783L26.2852 19.1299L27.1357 19.9814L25.8857 21.2314L25.0352 20.3799L24.6709 20.7451L25.5215 21.5947L24.2715 22.8447L23.4219 21.9951L22.9971 22.4199L23.8457 23.2686L22.5957 24.5186L21.7471 23.6699L21.4268 23.9902L22.666 25.2295L23.4414 24.4541L24.6914 25.7041L23.916 26.4795L24.1748 26.7383L24.9502 25.9639L26.2002 27.2139L25.4248 27.9883L25.7383 28.3018L26.5137 27.5273L27.7637 28.7773L26.9883 29.5518L27.3555 29.9189L28.1309 29.1436L29.3809 30.3936L28.6045 31.168L29.0254 31.5889L29.8018 30.8125L31.0518 32.0625L30.2754 32.8389L30.627 33.1904L31.4043 32.4141L32.6543 33.6641L31.877 34.4404L32.2412 34.8047L33.0176 34.0283L34.2676 35.2783L33.4902 36.0537L33.9141 36.4775L34.6885 35.7031L35.9385 36.9531L35.1641 37.7275L35.5146 38.0781L36.2891 37.3037L37.5391 38.5537L36.7646 39.3281L37.1309 39.6943L37.9062 38.9199L39.1562 40.1699L38.3809 40.9443L39.3701 41.9336L39.7207 41.582L38.8105 40.6729L40.0605 39.4229L40.9707 40.333L41.3936 39.9092L40.4824 38.999L41.7324 37.749L42.6436 38.6602L43.0078 38.2949L42.0977 37.3848L43.3477 36.1348L44.2578 37.0449L44.6084 36.6943L43.6982 35.7842L44.9482 34.5342L45.8584 35.4443L46.2783 35.0234L45.3691 34.1143L46.6191 32.8643L47.5283 33.7734L47.8955 33.4053L46.9863 32.4961L48.2363 31.2461L49.1455 32.1562L49.4961 31.8047L48.5869 30.8955L49.8369 29.6455L50.7461 30.5547L51.168 30.1328L50.2588 29.2236L51.5088 27.9736L52.418 28.8828L52.7812 28.5186L51.873 27.6104L53.123 26.3604L54.0322 27.2695L54.3467 26.9551L53.4365 26.0449L54.6865 24.7949L55.5967 25.7051L55.8545 25.4463L54.9453 24.5371L56.1953 23.2871L57.1055 24.1973L57.4873 23.8174L56.4541 22.7842L55.6641 23.5752L54.4141 22.3252L55.2041 21.5342L54.8389 21.1689L54.0488 21.959L52.7988 20.709L53.5889 19.9189L53.2383 19.5684L52.4482 20.3584L51.1982 19.1084L51.9883 18.3184L51.5645 17.8945L50.7725 18.6875L49.5234 17.4375L50.3154 16.6455L49.9492 16.2793L49.1582 17.0723L47.9082 15.8223L48.7002 15.0303L48.3486 14.6787L47.5576 15.4717L46.3076 14.2217L47.0996 13.4297L46.6777 13.0078L45.8877 13.7979L44.6377 12.5488L45.4277 11.7578L45.0635 11.3936L44.2734 12.1846L43.0234 10.9346L43.8135 10.1436L43.4961 9.82617L42.7061 10.6172L41.4561 9.36719L42.2461 8.57617L41.9883 8.31836L41.1973 9.11035L39.9473 7.86035L40.7383 7.06836L39.5439 5.87402L39.1338 6.28223ZM83.2451 6.22656L84.0928 7.07422L82.8428 8.32422L81.9941 7.47559L81.7363 7.7334L82.5859 8.58301L81.3359 9.83301L80.4854 8.98242L80.1689 9.29883L81.0205 10.1504L79.7705 11.4004L78.9189 10.5488L78.5547 10.9131L79.4062 11.7646L78.1562 13.0146L77.3047 12.1631L76.8838 12.584L77.7344 13.4346L76.4844 14.6846L75.6338 13.834L75.2832 14.1846L76.1338 15.0352L74.8838 16.2852L74.0332 15.4346L73.668 15.8008L74.5195 16.6514L73.2695 17.9014L72.418 17.0508L71.9951 17.4746L72.8457 18.3252L71.5957 19.5752L70.7451 18.7236L70.3945 19.0752L71.2451 19.9258L69.9951 21.1758L69.1445 20.3252L68.7803 20.6904L69.6299 21.54L68.3799 22.7891L67.5312 21.9404L67.1094 22.3623L67.959 23.2119L66.709 24.4619L65.8594 23.6123L65.5371 23.9346L66.7764 25.1738L67.5518 24.3984L68.8018 25.6484L68.0264 26.4238L68.2842 26.6816L69.0596 25.9072L70.3096 27.1572L69.5342 27.9316L69.8506 28.248L70.627 27.4717L71.877 28.7217L71.0996 29.4971L71.4639 29.8613L72.2402 29.0859L73.4893 30.3359L72.7139 31.1113L73.1357 31.5332L73.9131 30.7568L75.1631 32.0068L74.3857 32.7832L74.7363 33.1338L75.5137 32.3574L76.7637 33.6074L75.9863 34.3838L76.3516 34.749L77.1279 33.9736L78.3779 35.2227L77.6016 35.998L78.0264 36.4229L78.8018 35.6484L80.0518 36.8975L79.2764 37.6729L79.627 38.0234L80.4023 37.248L81.6523 38.498L80.877 39.2734L81.2402 39.6367L82.0156 38.8623L83.2656 40.1123L82.4902 40.8867L83.4814 41.8779L83.832 41.5273L82.9219 40.6172L84.1719 39.3682L85.0811 40.2773L85.5029 39.8545L84.5918 38.9434L85.8418 37.6934L86.7529 38.6045L87.1172 38.2402L86.207 37.3301L87.4561 36.0801L88.3662 36.9902L88.7188 36.6367L87.8086 35.7275L89.0586 34.4775L89.9688 35.3867L90.3896 34.9648L89.4824 34.0576L90.7324 32.8076L91.6396 33.7148L92.0049 33.3486L91.0977 32.4414L92.3477 31.1914L93.2549 32.0986L93.6055 31.7471L92.6982 30.8398L93.9482 29.5898L94.8555 30.498L95.2764 30.0771L94.3672 29.168L95.6172 27.9189L96.5264 28.8271L96.8906 28.4629L95.9824 27.5547L97.2324 26.3047L98.1406 27.2129L98.457 26.8965L97.5479 25.9873L98.7979 24.7373L99.708 25.6475L99.9658 25.3896L99.0566 24.4795L100.306 23.2305L101.217 24.1406L101.598 23.7617L100.563 22.7275L99.7734 23.5176L98.5234 22.2676L99.3135 21.4775L98.9473 21.1113L98.1582 21.9014L96.9082 20.6523L97.6973 19.8613L97.3467 19.5107L96.5576 20.3018L95.3076 19.0518L96.0967 18.2607L95.6768 17.8408L94.8867 18.6318L93.6367 17.3828L94.4268 16.5908L94.0605 16.2246L93.2695 17.0166L92.0195 15.7666L92.8105 14.9746L92.4609 14.625L91.6709 15.416L90.4209 14.166L91.2109 13.375L90.7871 12.9512L89.9971 13.7412L88.7471 12.4912L89.5371 11.7012L89.1729 11.3369L88.3828 12.1279L87.1328 10.8779L87.9229 10.0869L87.6074 9.77148L86.8174 10.5615L85.5674 9.3125L86.3574 8.52148L86.1006 8.26465L85.3105 9.05469L84.0605 7.80566L84.8506 7.01465L83.6543 5.81836L83.2451 6.22656ZM127.387 6.13672L128.238 6.98828L126.989 8.23828L126.136 7.38574L125.88 7.6416L126.732 8.49414L125.482 9.74414L124.629 8.89062L124.312 9.20703L125.167 10.0615L123.917 11.3115L123.062 10.457L122.698 10.8213L123.552 11.6748L122.302 12.9248L121.448 12.0713L121.026 12.4932L121.878 13.3447L120.628 14.5947L119.776 13.7432L119.426 14.0947L120.277 14.9463L119.027 16.1963L118.176 15.3438L117.811 15.71L118.663 16.5625L117.413 17.8125L116.561 16.96L116.139 17.3828L116.991 18.2354L115.741 19.4854L114.889 18.6328L114.538 18.9834L115.391 19.8359L114.141 21.0859L113.288 20.2334L112.924 20.5986L113.776 21.4502L112.526 22.7002L111.674 21.8486L111.252 22.2715L112.103 23.123L110.853 24.3721L110.002 23.5215L109.681 23.8438L110.921 25.084L111.697 24.3086L112.947 25.5586L112.171 26.334L112.431 26.5938L113.206 25.8184L114.456 27.0684L113.681 27.8438L113.995 28.1582L114.77 27.3848L116.02 28.6338L115.245 29.4082L115.61 29.7734L116.387 28.998L117.637 30.248L116.86 31.0234L117.281 31.4443L118.058 30.6689L119.308 31.9189L118.531 32.6943L118.882 33.0449L119.658 32.2695L120.908 33.5195L120.132 34.2949L120.498 34.6611L121.273 33.8857L122.523 35.1357L121.748 35.9111L122.169 36.332L122.944 35.5576L124.194 36.8076L123.419 37.582L123.77 37.9326L124.545 37.1582L125.795 38.4082L125.02 39.1826L125.387 39.5498L126.162 38.7744L127.412 40.0244L126.637 40.7998L127.626 41.7891L127.976 41.4385L127.065 40.5283L128.315 39.2783L129.226 40.1885L129.648 39.7646L128.737 38.8545L129.987 37.6045L130.898 38.5156L131.263 38.1504L130.353 37.2402L131.603 35.9902L132.513 36.9004L132.863 36.5498L131.953 35.6396L133.203 34.3896L134.113 35.2998L134.535 34.877L133.626 33.9678L134.876 32.7178L135.785 33.627L136.15 33.2607L135.241 32.3516L136.49 31.1016L137.4 32.0107L137.751 31.6602L136.842 30.751L138.092 29.501L139.001 30.4102L139.423 29.9883L138.514 29.0791L139.764 27.8291L140.673 28.7383L141.037 28.374L140.128 27.4648L141.378 26.2148L142.287 27.124L142.604 26.8076L141.695 25.8994L142.945 24.6494L143.854 25.5576L144.111 25.2998L143.202 24.3906L144.452 23.1406L145.362 24.0508L145.743 23.6719L144.709 22.6377L143.918 23.4297L142.668 22.1797L143.459 21.3877L143.094 21.0225L142.303 21.8145L141.054 20.5645L141.844 19.7734L141.493 19.4229L140.702 20.2139L139.452 18.9639L140.243 18.1729L139.82 17.75L139.029 18.542L137.779 17.292L138.57 16.5L138.205 16.1348L137.414 16.9268L136.164 15.6768L136.955 14.8848L136.604 14.5342L135.813 15.3262L134.563 14.0762L135.354 13.2842L134.933 12.8623L134.143 13.6533L132.893 12.4033L133.683 11.6123L133.317 11.2471L132.527 12.0381L131.277 10.7881L132.067 9.99707L131.753 9.68262L130.962 10.4746L129.712 9.22461L130.503 8.43262L130.245 8.1748L129.454 8.96582L128.205 7.71582L128.995 6.9248L127.798 5.72754L127.387 6.13672ZM171.501 6.08008L172.352 6.93164L171.102 8.18066L170.25 7.3291L169.991 7.58887L170.841 8.43848L169.591 9.68848L168.74 8.83789L168.427 9.15234L169.277 10.002L168.027 11.252L167.177 10.4014L166.81 10.7686L167.66 11.6201L166.411 12.8691L165.56 12.0176L165.139 12.4395L165.989 13.29L164.739 14.54L163.889 13.6885L163.538 14.04L164.389 14.8906L163.139 16.1406L162.288 15.29L161.923 15.6562L162.773 16.5068L161.524 17.7568L160.673 16.9053L160.251 17.3281L161.102 18.1787L159.853 19.4287L159.001 18.5771L158.65 18.9287L159.501 19.7793L158.251 21.0293L157.4 20.1787L157.035 20.5449L157.885 21.3945L156.635 22.6445L155.785 21.7949L155.365 22.2158L156.214 23.0645L154.964 24.3145L154.115 23.4658L153.794 23.7881L155.033 25.0273L155.809 24.2529L157.059 25.5029L156.283 26.2773L156.541 26.5352L157.317 25.7598L158.567 27.0098L157.791 27.7852L158.106 28.1006L158.881 27.3271L160.131 28.5771L159.356 29.3506L159.721 29.7148L160.496 28.9404L161.746 30.1904L160.971 30.9648L161.395 31.3887L162.169 30.6143L163.419 31.8633L162.644 32.6377L162.994 32.9883L163.77 32.2139L165.02 33.4639L164.244 34.2383L164.609 34.6035L165.385 33.8301L166.634 35.0801L165.859 35.8535L166.281 36.2754L167.057 35.501L168.306 36.751L167.531 37.5254L167.882 37.876L168.657 37.1016L169.907 38.3516L169.132 39.126L169.497 39.4912L170.271 38.7168L171.521 39.9668L170.747 40.7412L171.738 41.7324L172.088 41.3818L171.177 40.4707L172.427 39.2207L173.338 40.1318L173.76 39.709L172.849 38.7969L174.099 37.5469L175.01 38.459L175.374 38.0947L174.463 37.1836L175.713 35.9336L176.624 36.8447L176.975 36.4932L176.063 35.582L177.313 34.333L178.225 35.2441L178.646 34.8213L177.737 33.9121L178.987 32.6621L179.896 33.5723L180.262 33.2061L179.353 32.2959L180.602 31.0469L181.512 31.9561L181.862 31.6045L180.953 30.6953L182.203 29.4453L183.112 30.3555L183.534 29.9326L182.624 29.0225L183.874 27.7725L184.784 28.6826L185.149 28.3164L184.239 27.4062L185.488 26.1562L186.4 27.0674L186.715 26.752L185.806 25.8428L187.056 24.5928L187.966 25.5029L188.223 25.2451L187.313 24.335L188.563 23.085L189.474 23.9961L189.854 23.6172L188.819 22.582L188.029 23.3721L186.779 22.1221L187.569 21.332L187.205 20.9678L186.414 21.7588L185.164 20.5088L185.955 19.7178L185.604 19.3672L184.813 20.1582L183.563 18.9082L184.354 18.1172L183.932 17.6943L183.143 18.4834L181.893 17.2334L182.682 16.4443L182.314 16.0771L181.523 16.8691L180.273 15.6191L181.064 14.8271L180.715 14.4775L179.925 15.2686L178.675 14.0186L179.465 13.2275L179.044 12.8066L178.253 13.5977L177.003 12.3486L177.794 11.5566L177.429 11.1914L176.639 11.9824L175.389 10.7324L176.179 9.94141L175.864 9.62695L175.073 10.4189L173.823 9.16895L174.614 8.37695L174.355 8.11816L173.566 8.9082L172.316 7.65918L173.105 6.86816L171.91 5.67285L171.501 6.08008ZM215.699 5.96191L216.548 6.81055L215.298 8.06055L214.448 7.21094L214.192 7.46777L215.043 8.31836L213.793 9.56836L212.941 8.7168L212.627 9.03223L213.478 9.88281L212.228 11.1328L211.376 10.2812L211.011 10.6475L211.862 11.499L210.612 12.749L209.761 11.8975L209.339 12.3203L210.189 13.1709L208.939 14.4209L208.089 13.5703L207.738 13.9209L208.589 14.7715L207.339 16.0215L206.488 15.1709L206.124 15.5361L206.974 16.3857L205.724 17.6357L204.874 16.7861L204.451 17.209L205.302 18.0596L204.052 19.3096L203.201 18.459L202.852 18.8086L203.701 19.6582L202.451 20.9082L201.602 20.0586L201.236 20.4248L202.087 21.2744L200.837 22.5244L199.987 21.6748L199.564 22.0977L200.414 22.9463L199.164 24.1963L198.314 23.3477L197.994 23.6689L199.233 24.9082L200.01 24.1328L201.259 25.3828L200.483 26.1582L200.74 26.415L201.516 25.6406L202.766 26.8906L201.99 27.665L202.306 27.9805L203.081 27.2061L204.331 28.4561L203.556 29.2305L203.922 29.5967L204.696 28.8223L205.946 30.0723L205.172 30.8467L205.593 31.2676L206.37 30.4912L207.62 31.7412L206.843 32.5176L207.193 32.8682L207.971 32.0918L209.221 33.3418L208.443 34.1182L208.809 34.4834L209.585 33.708L210.835 34.957L210.059 35.7334L210.48 36.1553L211.257 35.3799L212.507 36.6299L211.73 37.4053L212.081 37.7559L212.857 36.9805L214.107 38.2305L213.331 39.0059L213.696 39.3711L214.472 38.5967L215.722 39.8457L214.946 40.6211L215.938 41.6123L216.289 41.2607L215.379 40.3506L216.629 39.1006L217.539 40.0107L217.959 39.5898L217.048 38.6787L218.298 37.4287L219.209 38.3398L219.574 37.9736L218.663 37.0625L219.913 35.8125L220.824 36.7236L221.174 36.374L220.264 35.4639L221.514 34.2139L222.424 35.124L222.849 34.6992L221.939 33.79L223.188 32.54L224.098 33.4492L224.462 33.084L223.554 32.1758L224.804 30.9258L225.712 31.835L226.062 31.4834L225.154 30.5752L226.404 29.3252L227.312 30.2334L227.733 29.8125L226.824 28.9033L228.074 27.6533L228.983 28.5625L229.349 28.1963L228.438 27.2871L229.688 26.0371L230.599 26.9473L230.914 26.6318L230.004 25.7217L231.254 24.4727L232.164 25.3828L232.422 25.124L231.513 24.2148L232.763 22.9648L233.673 23.875L234.056 23.4941L233.021 22.459L232.228 23.252L230.978 22.002L231.771 21.209L231.405 20.8438L230.613 21.6367L229.363 20.3867L230.155 19.5938L229.806 19.2441L229.014 20.0371L227.764 18.7881L228.556 17.9941L228.133 17.5713L227.341 18.3643L226.091 17.1143L226.883 16.3213L226.518 15.9561L225.727 16.749L224.477 15.499L225.268 14.7061L224.918 14.3564L224.125 15.1504L222.876 13.9004L223.669 13.1074L223.244 12.6826L222.452 13.4756L221.202 12.2256L221.994 11.4326L221.629 11.0674L220.837 11.8594L219.587 10.6104L220.379 9.81738L220.065 9.50391L219.274 10.2969L218.024 9.04688L218.815 8.25391L218.558 7.99609L217.765 8.79004L216.515 7.54004L217.308 6.74609L216.112 5.55078L215.699 5.96191ZM259.811 5.9043L260.66 6.75391L259.411 8.00391L258.56 7.15332L258.301 7.41211L259.151 8.2627L257.901 9.5127L257.051 8.66211L256.736 8.97656L257.589 9.82812L256.339 11.0781L255.486 10.2246L255.122 10.5898L255.974 11.4414L254.724 12.6914L253.871 11.8389L253.448 12.2627L254.3 13.1143L253.05 14.3643L252.198 13.5117L251.848 13.8633L252.699 14.7148L251.449 15.9648L250.598 15.1133L250.233 15.4775L251.085 16.3291L249.835 17.5791L248.983 16.7275L248.562 17.1504L249.413 18.002L248.163 19.252L247.312 18.4004L246.961 18.752L247.812 19.6035L246.562 20.8525L245.712 20.002L245.347 20.3672L246.198 21.2188L244.948 22.4688L244.097 21.6172L243.675 22.04L244.524 22.8896L243.274 24.1387L242.426 23.29L242.104 23.6123L243.344 24.8525L244.12 24.0771L245.37 25.3271L244.594 26.1025L244.852 26.3604L245.628 25.584L246.878 26.833L246.101 27.6094L246.415 27.9238L247.19 27.1494L248.44 28.3994L247.665 29.1738L248.031 29.54L248.806 28.7656L250.056 30.0146L249.28 30.7891L249.703 31.2119L250.48 30.4355L251.73 31.6855L250.953 32.4619L251.304 32.8125L252.082 32.0361L253.331 33.2861L252.554 34.0625L252.92 34.4287L253.696 33.6523L254.946 34.9023L254.17 35.6787L254.59 36.0986L255.366 35.3232L256.616 36.5732L255.84 37.3486L256.19 37.6992L256.967 36.9238L258.217 38.1729L257.44 38.9492L257.806 39.3145L258.581 38.5391L259.831 39.7891L259.056 40.5645L260.048 41.5566L260.398 41.2051L259.487 40.2949L260.737 39.0449L261.647 39.9551L262.07 39.5312L261.161 38.6211L262.411 37.3721L263.32 38.2812L263.686 37.915L262.776 37.0049L264.026 35.7559L264.936 36.665L265.286 36.3135L264.377 35.4043L265.627 34.1543L266.536 35.0635L266.956 34.6426L266.048 33.7344L267.298 32.4844L268.206 33.3926L268.57 33.0273L267.663 32.1201L268.913 30.8711L269.82 31.7783L270.171 31.4268L269.264 30.5195L270.514 29.2695L271.421 30.1777L271.846 29.752L270.938 28.8438L272.187 27.5938L273.096 28.5029L273.46 28.1387L272.552 27.2305L273.802 25.9805L274.71 26.8887L275.022 26.5762L274.113 25.667L275.363 24.417L276.273 25.3271L276.532 25.0674L275.624 24.1592L276.874 22.9092L277.783 23.8184L278.165 23.4385L277.132 22.4053L276.341 23.1963L275.091 21.9473L275.882 21.1553L275.517 20.79L274.727 21.5811L273.477 20.3311L274.267 19.54L273.916 19.1895L273.125 19.9805L271.876 18.7305L272.666 17.9395L272.241 17.5146L271.45 18.3076L270.2 17.0576L270.992 16.2656L270.628 15.9014L269.837 16.6934L268.587 15.4434L269.378 14.6514L269.028 14.3018L268.236 15.0947L266.986 13.8447L267.778 13.0518L267.355 12.6289L266.565 13.4199L265.315 12.1699L266.105 11.3789L265.74 11.0137L264.95 11.8047L263.7 10.5547L264.49 9.76367L264.176 9.44922L263.385 10.2412L262.135 8.99121L262.926 8.19922L262.666 7.93945L261.874 8.73242L260.624 7.48242L261.416 6.68945L260.222 5.49512L259.811 5.9043ZM303.957 5.81445L304.807 6.66406L303.557 7.91406L302.706 7.06348L302.447 7.32227L303.298 8.17285L302.048 9.42285L301.196 8.57129L300.881 8.8877L301.732 9.73828L300.482 10.9883L299.631 10.1367L299.267 10.502L300.117 11.3525L298.867 12.6025L298.017 11.751L297.595 12.1738L298.446 13.0244L297.196 14.2744L296.345 13.4229L295.994 13.7744L296.846 14.626L295.596 15.875L294.744 15.0234L294.38 15.3887L295.23 16.2393L293.98 17.4893L293.13 16.6387L292.707 17.0625L293.557 17.9131L292.307 19.1621L291.457 18.3125L291.106 18.6641L291.956 19.5137L290.706 20.7637L289.856 19.9141L289.491 20.2803L290.342 21.1299L289.092 22.3799L288.242 21.5303L287.821 21.9512L288.67 22.7998L287.42 24.0498L286.571 23.2012L286.25 23.5225L287.49 24.7627L288.266 23.9873L289.516 25.2373L288.739 26.0117L288.997 26.2695L289.771 25.4961L291.021 26.7461L290.247 27.5195L290.562 27.835L291.338 27.0605L292.588 28.3105L291.812 29.085L292.177 29.4492L292.951 28.6748L294.2 29.9248L293.426 30.6982L293.851 31.123L294.626 30.3477L295.876 31.5977L295.101 32.373L295.45 32.7227L296.227 31.9463L297.477 33.1963L296.7 33.9727L297.065 34.3379L297.842 33.5625L299.092 34.8125L298.315 35.5879L298.738 36.0107L299.513 35.2373L300.763 36.4863L299.988 37.2607L300.339 37.6113L301.113 36.8369L302.363 38.0869L301.589 38.8613L301.952 39.2246L302.727 38.4512L303.977 39.7012L303.202 40.4746L304.193 41.4658L304.543 41.1152L303.634 40.2051L304.884 38.9561L305.793 39.8652L306.213 39.4443L305.303 38.5342L306.553 37.2842L307.463 38.1943L307.83 37.8262L306.92 36.916L308.169 35.666L309.08 36.5762L309.431 36.2256L308.521 35.3154L309.771 34.0654L310.681 34.9756L311.103 34.5537L310.193 33.6445L311.443 32.3955L312.353 33.3037L312.717 32.9395L311.809 32.0312L313.059 30.7812L313.967 31.6895L314.317 31.3389L313.409 30.4307L314.659 29.1807L315.567 30.0889L315.989 29.666L315.079 28.7559L316.329 27.5068L317.239 28.417L317.605 28.0508L316.695 27.1406L317.945 25.8906L318.855 26.8008L319.169 26.4863L318.259 25.5771L319.509 24.3271L320.419 25.2373L320.678 24.9775L319.77 24.0703L321.02 22.8203L321.929 23.7295L322.31 23.3496L321.274 22.3145L320.483 23.1064L319.233 21.8564L320.024 21.0645L319.659 20.6992L318.869 21.4912L317.619 20.2412L318.41 19.4502L318.059 19.0986L317.269 19.8906L316.019 18.6406L316.81 17.8496L316.389 17.4287L315.597 18.2217L314.347 16.9717L315.139 16.1787L314.773 15.8135L313.982 16.6055L312.732 15.3555L313.523 14.5635L313.173 14.2129L312.382 15.0049L311.132 13.7549L311.923 12.9629L311.499 12.5391L310.708 13.3301L309.458 12.0801L310.249 11.2891L309.885 10.9248L309.093 11.7168L307.843 10.4668L308.635 9.6748L308.32 9.36035L307.53 10.1514L306.28 8.90137L307.07 8.11035L306.811 7.85059L306.021 8.64062L304.771 7.39062L305.561 6.60059L304.366 5.40625L303.957 5.81445ZM348.066 5.75781L348.917 6.6084L347.667 7.8584L346.815 7.00684L346.559 7.26465L347.41 8.11621L346.16 9.36621L345.308 8.51367L344.992 8.8291L345.845 9.68164L344.595 10.9316L343.742 10.0791L343.378 10.4434L344.23 11.2949L342.98 12.5449L342.128 11.6924L341.703 12.1182L342.555 12.9697L341.305 14.2197L340.453 13.3672L340.103 13.7188L340.954 14.5703L339.704 15.8203L338.853 14.9688L338.489 15.333L339.34 16.1836L338.09 17.4336L337.238 16.583L336.818 17.0039L337.67 17.8555L336.42 19.1055L335.568 18.2539L335.218 18.6045L336.069 19.457L334.819 20.7061L333.968 19.8545L333.603 20.2207L334.454 21.0732L333.204 22.3223L332.353 21.4707L331.93 21.8945L332.779 22.7441L331.529 23.9941L330.68 23.1445L330.359 23.4658L331.599 24.7051L332.375 23.9307L333.625 25.1797L332.849 25.9551L333.108 26.2148L333.884 25.4404L335.134 26.6904L334.358 27.4648L334.672 27.7783L335.447 27.0039L336.696 28.2539L335.922 29.0283L336.287 29.3936L337.062 28.6201L338.312 29.8691L337.537 30.6436L337.961 31.0674L338.737 30.293L339.986 31.543L339.211 32.3174L339.561 32.667L340.338 31.8906L341.587 33.1406L340.811 33.917L341.176 34.2822L341.952 33.5068L343.202 34.7568L342.426 35.5322L342.848 35.9541L343.622 35.1797L344.872 36.4297L344.097 37.2031L344.448 37.5547L345.223 36.7803L346.473 38.0303L345.698 38.8047L346.063 39.1699L346.838 38.3965L348.087 39.6465L347.313 40.4199L348.306 41.4121L348.654 41.0625L347.742 40.1504L348.992 38.9004L349.904 39.8125L350.328 39.3887L349.416 38.4766L350.666 37.2266L351.577 38.1387L351.943 37.7725L351.031 36.8604L352.28 35.6104L353.192 36.5225L353.543 36.1709L352.632 35.2598L353.882 34.0098L354.793 34.9209L355.213 34.5L354.303 33.5898L355.553 32.3398L356.463 33.25L356.828 32.8838L355.919 31.9746L357.169 30.7246L358.078 31.6338L358.428 31.2842L357.519 30.375L358.769 29.125L359.678 30.0342L360.102 29.6094L359.191 28.6992L360.441 27.4492L361.353 28.3594L361.716 27.9951L360.807 27.085L362.057 25.8359L362.967 26.7461L363.282 26.4297L362.374 25.5215L363.624 24.2725L364.532 25.1807L364.789 24.9229L363.879 24.0127L365.129 22.7627L366.041 23.6748L366.422 23.2949L365.387 22.2598L364.597 23.0508L363.348 21.8018L364.138 21.0107L363.772 20.6455L362.982 21.4355L361.732 20.1855L362.522 19.3955L362.172 19.0449L361.382 19.835L360.132 18.585L360.922 17.7949L360.498 17.3711L359.706 18.1641L358.456 16.9141L359.248 16.1211L358.883 15.7559L358.092 16.5479L356.842 15.2988L357.633 14.5059L357.282 14.1553L356.491 14.9473L355.241 13.6982L356.032 12.9053L355.611 12.4844L354.821 13.2744L353.571 12.0244L354.361 11.2344L353.997 10.8701L353.206 11.6611L351.956 10.4111L352.747 9.62012L352.432 9.30469L351.641 10.0957L350.391 8.8457L351.182 8.05469L350.922 7.79492L350.132 8.58496L348.882 7.33496L349.672 6.54492L348.477 5.34961L348.066 5.75781ZM31.4521 38.3955C32.2453 38.3955 32.8887 39.0389 32.8887 39.832C32.8886 40.6251 32.2453 41.2685 31.4521 41.2686C30.6591 41.2684 30.0157 40.6251 30.0156 39.832C30.0156 39.0389 30.6591 38.3956 31.4521 38.3955ZM392.335 5.58691L393.187 6.43848L391.938 7.68848L391.084 6.83594L390.828 7.09277L391.681 7.94434L390.431 9.19434L389.578 8.3418L389.263 8.65723L390.115 9.50977L388.865 10.7588L388.013 9.90625L387.647 10.2725L388.5 11.125L387.25 12.375L386.397 11.5225L385.976 11.9453L386.826 12.7959L385.576 14.0449L384.726 13.1943L384.375 13.5459L385.226 14.3965L383.976 15.6465L383.125 14.7959L382.76 15.1611L383.611 16.0127L382.361 17.2627L381.51 16.4111L381.088 16.834L381.939 17.6855L380.689 18.9355L379.838 18.084L379.487 18.4346L380.339 19.2871L379.089 20.5371L378.237 19.6846L377.873 20.0498L378.725 20.9004L377.475 22.1504L376.623 21.2998L376.202 21.7217L377.051 22.5703L375.801 23.8203L374.952 22.9717L374.631 23.293L375.871 24.5332L376.646 23.7588L377.896 25.0088L377.121 25.7832L377.379 26.041L378.153 25.2666L379.403 26.5166L378.629 27.291L378.943 27.6055L379.719 26.832L380.968 28.082L380.193 28.8555L380.56 29.2217L381.333 28.4482L382.583 29.6982L381.81 30.4717L382.231 30.8936L383.007 30.1191L384.257 31.3691L383.481 32.1436L383.832 32.4941L384.607 31.7197L385.857 32.9697L385.082 33.7441L385.447 34.1094L386.223 33.3359L387.472 34.5859L386.697 35.3594L387.119 35.7812L387.894 35.0078L389.144 36.2578L388.369 37.0312L388.72 37.3818L389.494 36.6084L390.744 37.8584L389.97 38.6318L390.335 38.9971L391.109 38.2246L392.358 39.4746L391.585 40.2471L392.575 41.2373L392.925 40.8877L392.014 39.9766L393.264 38.7266L394.175 39.6377L394.597 39.2158L393.686 38.3047L394.936 37.0547L395.847 37.9658L396.211 37.6006L395.301 36.6904L396.551 35.4404L397.461 36.3506L397.812 36L396.901 35.0898L398.151 33.8398L399.062 34.75L399.483 34.3271L398.574 33.418L399.824 32.168L400.733 33.0771L401.099 32.7109L400.189 31.8018L401.438 30.5518L402.349 31.4619L402.699 31.1104L401.79 30.2012L403.039 28.9512L403.949 29.8604L404.371 29.4385L403.462 28.5293L404.712 27.2793L405.621 28.1885L405.986 27.8223L405.076 26.9131L406.326 25.6631L407.236 26.5732L407.552 26.2578L406.644 25.3496L407.894 24.0996L408.802 25.0078L409.06 24.75L408.15 23.8408L409.4 22.5908L410.311 23.501L410.691 23.1211L409.657 22.0869L408.867 22.8779L407.617 21.6279L408.407 20.8369L408.043 20.4727L407.252 21.2646L406.002 20.0146L406.793 19.2227L406.441 18.8711L405.651 19.6611L404.401 18.4121L405.191 17.6211L404.77 17.1992L403.978 17.9922L402.728 16.7422L403.52 15.9492L403.154 15.584L402.363 16.377L401.113 15.127L401.905 14.335L401.554 13.9834L400.763 14.7764L399.513 13.5264L400.305 12.7344L399.882 12.3115L399.091 13.1035L397.841 11.8535L398.632 11.0615L398.267 10.6963L397.477 11.4883L396.227 10.2383L397.017 9.44629L396.701 9.13086L395.911 9.92188L394.661 8.67188L395.451 7.88086L395.194 7.62402L394.403 8.41602L393.153 7.16602L393.944 6.37402L392.747 5.17676L392.335 5.58691ZM75.5645 38.3389C76.3575 38.3389 77.0009 38.9823 77.001 39.7754C77.0009 40.5685 76.3576 41.2119 75.5645 41.2119C74.7713 41.2119 74.128 40.5685 74.1279 39.7754C74.128 38.9823 74.7714 38.3389 75.5645 38.3389ZM119.71 38.25C120.503 38.2502 121.146 38.8935 121.146 39.6865C121.146 40.4795 120.503 41.1229 119.71 41.123C118.917 41.123 118.274 40.4796 118.273 39.6865C118.273 38.8933 118.917 38.25 119.71 38.25ZM163.819 38.1934C164.612 38.1934 165.256 38.8367 165.256 39.6299C165.256 40.423 164.612 41.0664 163.819 41.0664C163.026 41.0663 162.383 40.423 162.383 39.6299C162.383 38.8368 163.026 38.1935 163.819 38.1934ZM47.9385 38.1768C48.7316 38.1768 49.3749 38.8202 49.375 39.6133C49.375 40.4064 48.7316 41.0498 47.9385 41.0498C47.1455 41.0496 46.502 40.4063 46.502 39.6133C46.502 38.8203 47.1455 38.177 47.9385 38.1768ZM92.0508 38.1201C92.8438 38.1201 93.4871 38.7636 93.4873 39.5566C93.4873 40.3498 92.8439 40.9931 92.0508 40.9932C91.2578 40.993 90.6143 40.3497 90.6143 39.5566C90.6144 38.7637 91.2579 38.1203 92.0508 38.1201ZM208.019 38.0732C208.812 38.0733 209.455 38.7167 209.455 39.5098C209.455 40.3029 208.812 40.9463 208.019 40.9463C207.225 40.9462 206.582 40.3028 206.582 39.5098C206.582 38.7168 207.226 38.0734 208.019 38.0732ZM136.196 38.0312C136.989 38.0313 137.633 38.6746 137.633 39.4678C137.633 40.2609 136.989 40.9042 136.196 40.9043C135.403 40.9043 134.76 40.2609 134.76 39.4678C134.76 38.6746 135.403 38.0312 136.196 38.0312ZM252.131 38.0166C252.924 38.0166 253.567 38.6602 253.567 39.4531C253.567 40.2463 252.924 40.8896 252.131 40.8896C251.338 40.8895 250.694 40.2462 250.694 39.4531C250.695 38.6602 251.338 38.0167 252.131 38.0166ZM180.306 37.9746C181.099 37.9746 181.742 38.6181 181.742 39.4111C181.742 40.2043 181.099 40.8476 180.306 40.8477C179.513 40.8474 178.869 40.2041 178.869 39.4111C178.869 38.6182 179.513 37.9748 180.306 37.9746ZM296.276 37.9277C297.069 37.9278 297.713 38.5712 297.713 39.3643C297.713 40.1573 297.069 40.8007 296.276 40.8008C295.483 40.8008 294.84 40.1574 294.84 39.3643C294.84 38.5711 295.483 37.9277 296.276 37.9277ZM340.386 37.8711C341.179 37.8711 341.822 38.5146 341.822 39.3076C341.822 40.1007 341.179 40.7441 340.386 40.7441C339.593 40.744 338.949 40.1007 338.949 39.3076C338.949 38.5147 339.593 37.8713 340.386 37.8711ZM224.508 37.8545C225.301 37.8546 225.944 38.4981 225.944 39.291C225.944 40.0841 225.301 40.7275 224.508 40.7275C223.715 40.7275 223.071 40.0842 223.071 39.291C223.071 38.498 223.715 37.8545 224.508 37.8545ZM268.617 37.7988C269.41 37.7988 270.054 38.4422 270.054 39.2354C270.053 40.0283 269.41 40.6719 268.617 40.6719C267.824 40.6717 267.181 40.0282 267.181 39.2354C267.181 38.4423 267.824 37.799 268.617 37.7988ZM312.763 37.709C313.556 37.709 314.199 38.3525 314.199 39.1455C314.199 39.9386 313.556 40.582 312.763 40.582C311.97 40.582 311.326 39.9386 311.326 39.1455C311.326 38.3525 311.97 37.709 312.763 37.709ZM384.658 37.7002C385.451 37.7002 386.095 38.3436 386.095 39.1367C386.094 39.9297 385.451 40.5732 384.658 40.5732C383.865 40.5732 383.222 39.9297 383.222 39.1367C383.222 38.3436 383.865 37.7002 384.658 37.7002ZM356.872 37.6523C357.665 37.6524 358.308 38.2959 358.309 39.0889C358.309 39.882 357.665 40.5254 356.872 40.5254C356.079 40.5251 355.436 39.8819 355.436 39.0889C355.436 38.296 356.079 37.6526 356.872 37.6523ZM401.145 37.4814C401.938 37.4815 402.581 38.1248 402.581 38.918C402.581 39.711 401.938 40.3545 401.145 40.3545C400.352 40.3544 399.708 39.7109 399.708 38.918C399.708 38.1249 400.351 37.4816 401.145 37.4814ZM28.709 35.6523C29.5021 35.6524 30.1455 36.2957 30.1455 37.0889C30.1455 37.882 29.5021 38.5254 28.709 38.5254C27.916 38.5252 27.2725 37.8819 27.2725 37.0889C27.2725 36.2958 27.916 35.6525 28.709 35.6523ZM72.8193 35.5957C73.6123 35.5958 74.2557 36.2393 74.2559 37.0322C74.2558 37.8253 73.6124 38.4686 72.8193 38.4688C72.0262 38.4688 71.3828 37.8254 71.3828 37.0322C71.383 36.2392 72.0263 35.5957 72.8193 35.5957ZM116.964 35.5068C117.757 35.5069 118.4 36.1502 118.4 36.9434C118.4 37.7364 117.757 38.3799 116.964 38.3799C116.171 38.3797 115.527 37.7363 115.527 36.9434C115.527 36.1503 116.171 35.507 116.964 35.5068ZM161.076 35.4502C161.869 35.4502 162.513 36.0936 162.513 36.8867C162.513 37.6799 161.869 38.3232 161.076 38.3232C160.283 38.3231 159.64 37.6798 159.64 36.8867C159.64 36.0937 160.283 35.4504 161.076 35.4502ZM50.6846 35.4336C51.4775 35.4338 52.121 36.0772 52.1211 36.8701C52.1211 37.6632 51.4776 38.3065 50.6846 38.3066C49.8914 38.3066 49.2481 37.6633 49.248 36.8701C49.2482 36.0771 49.8915 35.4336 50.6846 35.4336ZM94.7939 35.377C95.587 35.377 96.2302 36.0205 96.2305 36.8135C96.2304 37.6066 95.5871 38.25 94.7939 38.25C94.0009 38.2498 93.3575 37.6065 93.3574 36.8135C93.3577 36.0206 94.001 35.3771 94.7939 35.377ZM205.275 35.3301C206.068 35.3301 206.712 35.9736 206.712 36.7666C206.712 37.5597 206.069 38.2031 205.275 38.2031C204.482 38.203 203.839 37.5596 203.839 36.7666C203.839 35.9737 204.482 35.3302 205.275 35.3301ZM138.939 35.2881C139.733 35.2882 140.376 35.9315 140.376 36.7246C140.376 37.5177 139.733 38.161 138.939 38.1611C138.146 38.1611 137.503 37.5178 137.503 36.7246C137.503 35.9315 138.146 35.2881 138.939 35.2881ZM249.386 35.2744C250.179 35.2745 250.822 35.9178 250.822 36.7109C250.822 37.5038 250.179 38.1474 249.386 38.1475C248.593 38.1475 247.95 37.5039 247.949 36.7109C247.949 35.9178 248.593 35.2744 249.386 35.2744ZM183.052 35.2314C183.845 35.2316 184.488 35.875 184.488 36.668C184.488 37.461 183.845 38.1043 183.052 38.1045C182.259 38.1045 181.615 37.4611 181.615 36.668C181.615 35.8749 182.259 35.2314 183.052 35.2314ZM293.531 35.1846C294.324 35.1848 294.968 35.8281 294.968 36.6211C294.968 37.4141 294.324 38.0574 293.531 38.0576C292.738 38.0576 292.095 37.4142 292.095 36.6211C292.095 35.828 292.738 35.1846 293.531 35.1846ZM337.643 35.1279C338.436 35.128 339.079 35.7715 339.079 36.5645C339.079 37.3576 338.436 38.0009 337.643 38.001C336.85 38.0008 336.206 37.3575 336.206 36.5645C336.206 35.7716 336.85 35.1281 337.643 35.1279ZM227.251 35.1094C228.044 35.1095 228.687 35.7528 228.688 36.5459C228.687 37.339 228.044 37.9823 227.251 37.9824C226.458 37.9824 225.814 37.339 225.814 36.5459C225.814 35.7527 226.458 35.1094 227.251 35.1094ZM271.363 35.0557C272.156 35.0559 272.8 35.6991 272.8 36.4922C272.8 37.2851 272.156 37.9285 271.363 37.9287C270.57 37.9287 269.927 37.2852 269.927 36.4922C269.927 35.699 270.57 35.0557 271.363 35.0557ZM315.506 34.9658C316.299 34.9659 316.942 35.6094 316.942 36.4023C316.942 37.1954 316.299 37.8388 315.506 37.8389C314.713 37.8389 314.069 37.1955 314.069 36.4023C314.07 35.6093 314.713 34.9658 315.506 34.9658ZM381.913 34.957C382.706 34.9572 383.35 35.6005 383.35 36.3936C383.349 37.1864 382.706 37.8299 381.913 37.8301C381.12 37.8301 380.477 37.1866 380.477 36.3936C380.477 35.6004 381.12 34.957 381.913 34.957ZM359.618 34.9102C360.411 34.9103 361.055 35.5536 361.055 36.3467C361.054 37.1395 360.411 37.7831 359.618 37.7832C358.825 37.7832 358.182 37.1396 358.182 36.3467C358.182 35.5535 358.825 34.9102 359.618 34.9102ZM403.888 34.7383C404.681 34.7383 405.324 35.3817 405.324 36.1748C405.324 36.9679 404.681 37.6113 403.888 37.6113C403.095 37.6113 402.451 36.9678 402.451 36.1748C402.451 35.3817 403.095 34.7384 403.888 34.7383ZM53.1221 23.4199L39.2793 37.2627L25.4355 23.4199L39.2793 9.57617L53.1221 23.4199ZM97.2324 23.3633L83.3896 37.207L69.5469 23.3633L83.3896 9.52051L97.2324 23.3633ZM141.378 23.2754L127.535 37.1182L113.691 23.2754L127.535 9.43164L141.378 23.2754ZM185.489 23.2178L171.646 37.0605L157.803 23.2178L171.646 9.375L185.489 23.2178ZM229.688 23.0977L215.846 36.9414L202.003 23.0977L215.846 9.25488L229.688 23.0977ZM273.8 23.041L259.957 36.8838L246.113 23.041L259.957 9.19727L273.8 23.041ZM317.945 22.9521L304.103 36.7949L290.259 22.9521L304.103 9.10938L317.945 22.9521ZM362.054 22.8945L348.211 36.7383L334.368 22.8945L348.211 9.05176L362.054 22.8945ZM406.326 22.7246L392.482 36.5684L378.64 22.7246L392.482 8.88184L406.326 22.7246ZM25.9893 32.9355C26.7824 32.9356 27.4258 33.5789 27.4258 34.3721C27.4256 35.165 26.7823 35.8086 25.9893 35.8086C25.1964 35.8083 24.5529 35.1649 24.5527 34.3721C24.5527 33.5791 25.1963 32.9358 25.9893 32.9355ZM70.0996 32.8789C70.8927 32.879 71.5361 33.5223 71.5361 34.3154C71.536 35.1085 70.8927 35.7519 70.0996 35.752C69.3065 35.752 68.6632 35.1085 68.6631 34.3154C68.6631 33.5223 69.3064 32.8789 70.0996 32.8789ZM114.245 32.79C115.038 32.7903 115.682 33.4335 115.682 34.2266C115.681 35.0193 115.038 35.6628 114.245 35.6631C113.452 35.6631 112.809 35.0195 112.809 34.2266C112.809 33.4334 113.452 32.79 114.245 32.79ZM158.357 32.7354C159.15 32.7356 159.794 33.3789 159.794 34.1719C159.794 34.9649 159.15 35.6081 158.357 35.6084C157.564 35.6084 156.921 34.965 156.921 34.1719C156.921 33.3788 157.564 32.7354 158.357 32.7354ZM53.4043 32.7168C54.1972 32.7171 54.8408 33.3603 54.8408 34.1533C54.8407 34.9462 54.1972 35.5896 53.4043 35.5898C52.6112 35.5898 51.9679 34.9464 51.9678 34.1533C51.9678 33.3601 52.6111 32.7168 53.4043 32.7168ZM97.5137 32.6602C98.3068 32.6602 98.9502 33.3035 98.9502 34.0967C98.9502 34.8898 98.3068 35.5332 97.5137 35.5332C96.7206 35.5331 96.0772 34.8898 96.0771 34.0967C96.0772 33.3036 96.7206 32.6602 97.5137 32.6602ZM202.557 32.6133C203.35 32.6136 203.993 33.2568 203.993 34.0498C203.993 34.8427 203.35 35.486 202.557 35.4863C201.764 35.4863 201.12 34.8429 201.12 34.0498C201.12 33.2566 201.763 32.6133 202.557 32.6133ZM141.659 32.5713C142.452 32.5715 143.096 33.2148 143.096 34.0078C143.095 34.8007 142.452 35.4441 141.659 35.4443C140.866 35.4443 140.223 34.8008 140.223 34.0078C140.223 33.2146 140.866 32.5713 141.659 32.5713ZM246.669 32.5566C247.462 32.5569 248.105 33.2002 248.105 33.9932C248.105 34.7861 247.462 35.4294 246.669 35.4297C245.876 35.4297 245.232 34.7863 245.232 33.9932C245.232 33.2 245.876 32.5566 246.669 32.5566ZM185.771 32.5146C186.564 32.5149 187.208 33.1582 187.208 33.9512C187.208 34.7441 186.564 35.3874 185.771 35.3877C184.978 35.3877 184.335 34.7443 184.335 33.9512C184.335 33.158 184.978 32.5146 185.771 32.5146ZM290.812 32.4678C291.605 32.4679 292.248 33.1112 292.248 33.9043C292.248 34.6972 291.604 35.3406 290.812 35.3408C290.018 35.3408 289.375 34.6973 289.375 33.9043C289.375 33.1111 290.018 32.4678 290.812 32.4678ZM334.924 32.4111C335.717 32.4114 336.36 33.0546 336.36 33.8477C336.36 34.6406 335.717 35.2839 334.924 35.2842C334.131 35.2842 333.487 34.6408 333.487 33.8477C333.487 33.0545 334.131 32.4111 334.924 32.4111ZM229.971 32.3945C230.764 32.3948 231.407 33.0381 231.407 33.8311C231.407 34.6241 230.764 35.2673 229.971 35.2676C229.178 35.2676 228.534 34.6242 228.534 33.8311C228.534 33.0379 229.178 32.3945 229.971 32.3945ZM274.08 32.3379C274.873 32.3379 275.516 32.9814 275.517 33.7744C275.517 34.5675 274.873 35.2109 274.08 35.2109C273.287 35.2109 272.644 34.5675 272.644 33.7744C272.644 32.9814 273.287 32.338 274.08 32.3379ZM318.226 32.249C319.019 32.2492 319.662 32.8925 319.662 33.6855C319.662 34.4785 319.019 35.1219 318.226 35.1221C317.432 35.1221 316.789 34.4787 316.789 33.6855C316.789 32.8924 317.432 32.249 318.226 32.249ZM379.193 32.2393C379.986 32.2393 380.63 32.8828 380.63 33.6758C380.63 34.4689 379.986 35.1122 379.193 35.1123C378.4 35.1123 377.757 34.4689 377.757 33.6758C377.757 32.8827 378.4 32.2393 379.193 32.2393ZM362.338 32.1924C363.131 32.1926 363.774 32.8359 363.774 33.6289C363.774 34.4219 363.131 35.0652 362.338 35.0654C361.545 35.0654 360.901 34.4221 360.901 33.6289C360.901 32.8358 361.545 32.1924 362.338 32.1924ZM27.7627 23.4189L39.2793 34.9355L50.7959 23.4189L39.2793 11.9023L27.7627 23.4189ZM406.607 32.0205C407.4 32.0206 408.044 32.6641 408.044 33.457C408.044 34.2501 407.401 34.8935 406.607 34.8936C405.814 34.8936 405.171 34.2502 405.171 33.457C405.171 32.664 405.814 32.0205 406.607 32.0205ZM71.873 23.3633L83.3896 34.8799L94.9062 23.3633L83.3896 11.8467L71.873 23.3633ZM116.019 23.2744L127.535 34.791L139.052 23.2744L127.535 11.7578L116.019 23.2744ZM160.129 23.2168L171.646 34.7334L183.163 23.2168L171.646 11.7002L160.129 23.2168ZM204.329 23.0977L215.846 34.6143L227.362 23.0977L215.846 11.5811L204.329 23.0977ZM248.44 23.04L259.957 34.5566L271.474 23.04L259.957 11.5234L248.44 23.04ZM292.585 22.9512L304.103 34.4678L315.619 22.9512L304.103 11.4346L292.585 22.9512ZM336.694 22.8945L348.211 34.4111L359.728 22.8945L348.211 11.377L336.694 22.8945ZM380.966 22.7246L392.482 34.2412L404 22.7246L392.482 11.207L380.966 22.7246ZM23.416 30.3916C24.209 30.3917 24.8524 31.0352 24.8525 31.8281C24.8525 32.6212 24.2091 33.2646 23.416 33.2646C22.6229 33.2646 21.9795 32.6213 21.9795 31.8281C21.9797 31.0351 22.623 30.3916 23.416 30.3916ZM67.5283 30.3359C68.3214 30.3361 68.9648 30.9794 68.9648 31.7725C68.9646 32.5653 68.3212 33.2088 67.5283 33.209C66.7353 33.209 66.0921 32.5654 66.0918 31.7725C66.0918 30.9793 66.7351 30.3359 67.5283 30.3359ZM111.673 30.2461C112.466 30.2461 113.109 30.8895 113.109 31.6826C113.109 32.4757 112.466 33.1191 111.673 33.1191C110.88 33.1189 110.236 32.4756 110.236 31.6826C110.236 30.8896 110.88 30.2463 111.673 30.2461ZM155.783 30.1895C156.576 30.1895 157.22 30.833 157.22 31.626C157.22 32.4191 156.576 33.0624 155.783 33.0625C154.99 33.0625 154.347 32.4191 154.347 31.626C154.347 30.833 154.99 30.1895 155.783 30.1895ZM55.9756 30.1738C56.7686 30.174 57.4121 30.8173 57.4121 31.6104C57.4118 32.4032 56.7684 33.0467 55.9756 33.0469C55.1826 33.0469 54.5393 32.4033 54.5391 31.6104C54.5391 30.8172 55.1824 30.1738 55.9756 30.1738ZM100.088 30.1172C100.881 30.1174 101.524 30.7606 101.524 31.5537C101.524 32.3466 100.881 32.9901 100.088 32.9902C99.2948 32.9902 98.6515 32.3467 98.6514 31.5537C98.6514 30.7605 99.2947 30.1172 100.088 30.1172ZM199.984 30.0703C200.778 30.0703 201.421 30.7137 201.421 31.5068C201.421 32.2998 200.777 32.9433 199.984 32.9434C199.191 32.9432 198.548 32.2997 198.548 31.5068C198.548 30.7138 199.191 30.0705 199.984 30.0703ZM144.232 30.0273C145.025 30.0274 145.669 30.6709 145.669 31.4639C145.669 32.257 145.026 32.9004 144.232 32.9004C143.439 32.9003 142.796 32.2569 142.796 31.4639C142.796 30.6709 143.439 30.0275 144.232 30.0273ZM244.095 30.0137C244.888 30.0138 245.531 30.6571 245.531 31.4502C245.531 32.2432 244.888 32.8866 244.095 32.8867C243.302 32.8867 242.658 32.2433 242.658 31.4502C242.658 30.657 243.302 30.0137 244.095 30.0137ZM188.343 29.9717C189.136 29.9718 189.779 30.6151 189.779 31.4082C189.779 32.2011 189.136 32.8446 188.343 32.8447C187.55 32.8447 186.907 32.2012 186.906 31.4082C186.906 30.615 187.55 29.9717 188.343 29.9717ZM39.5166 29.9639C40.3097 29.9639 40.953 30.6074 40.9531 31.4004C40.9531 32.1935 40.3097 32.8369 39.5166 32.8369C38.7236 32.8367 38.0801 32.1934 38.0801 31.4004C38.0802 30.6075 38.7237 29.9641 39.5166 29.9639ZM288.24 29.9238C289.033 29.9241 289.677 30.5675 289.677 31.3604C289.677 32.1533 289.033 32.7966 288.24 32.7969C287.447 32.7969 286.804 32.1535 286.804 31.3604C286.804 30.5673 287.447 29.9238 288.24 29.9238ZM83.627 29.9072C84.4199 29.9073 85.0632 30.5509 85.0635 31.3438C85.0634 32.1368 84.42 32.7802 83.627 32.7803C82.8338 32.7803 82.1905 32.1369 82.1904 31.3438C82.1907 30.5508 82.8339 29.9072 83.627 29.9072ZM332.35 29.8682C333.143 29.8682 333.786 30.5115 333.786 31.3047C333.786 32.0977 333.143 32.7412 332.35 32.7412C331.557 32.7412 330.913 32.0977 330.913 31.3047C330.913 30.5115 331.556 29.8682 332.35 29.8682ZM232.542 29.8516C233.335 29.8517 233.979 30.495 233.979 31.2881C233.978 32.081 233.335 32.7245 232.542 32.7246C231.749 32.7246 231.106 32.0811 231.105 31.2881C231.105 30.4949 231.749 29.8516 232.542 29.8516ZM127.772 29.8184C128.565 29.8186 129.209 30.4619 129.209 31.2549C129.209 32.0479 128.565 32.6912 127.772 32.6914C126.979 32.6914 126.336 32.048 126.336 31.2549C126.336 30.4618 126.979 29.8184 127.772 29.8184ZM276.654 29.7949C277.447 29.7951 278.091 30.4384 278.091 31.2314C278.091 32.0245 277.447 32.6678 276.654 32.668C275.861 32.668 275.218 32.0246 275.218 31.2314C275.218 30.4383 275.861 29.7949 276.654 29.7949ZM171.884 29.7617C172.677 29.7618 173.32 30.4052 173.32 31.1982C173.32 31.9914 172.677 32.6347 171.884 32.6348C171.091 32.6345 170.447 31.9913 170.447 31.1982C170.447 30.4053 171.091 29.7619 171.884 29.7617ZM320.799 29.7061C321.592 29.7061 322.235 30.3494 322.235 31.1426C322.235 31.9355 321.592 32.5791 320.799 32.5791C320.006 32.5789 319.363 31.9354 319.362 31.1426C319.362 30.3495 320.006 29.7062 320.799 29.7061ZM376.622 29.6963C377.415 29.6965 378.059 30.3397 378.059 31.1328C378.059 31.9258 377.415 32.5692 376.622 32.5693C375.829 32.5693 375.186 31.9259 375.186 31.1328C375.186 30.3396 375.829 29.6963 376.622 29.6963ZM364.909 29.6494C365.702 29.6496 366.346 30.2929 366.346 31.0859C366.346 31.8789 365.702 32.5223 364.909 32.5225C364.116 32.5225 363.473 31.879 363.473 31.0859C363.473 30.2928 364.116 29.6494 364.909 29.6494ZM216.083 29.6426C216.876 29.6426 217.52 30.2859 217.52 31.0791C217.519 31.872 216.876 32.5156 216.083 32.5156C215.29 32.5154 214.647 31.8719 214.646 31.0791C214.646 30.2861 215.29 29.6428 216.083 29.6426ZM260.195 29.5859C260.988 29.586 261.632 30.2293 261.632 31.0225C261.632 31.8155 260.988 32.459 260.195 32.459C259.402 32.4588 258.759 31.8154 258.759 31.0225C258.759 30.2294 259.402 29.5861 260.195 29.5859ZM304.339 29.4961C305.132 29.4963 305.775 30.1397 305.775 30.9326C305.775 31.7256 305.132 32.3689 304.339 32.3691C303.546 32.3691 302.902 31.7258 302.902 30.9326C302.903 30.1396 303.546 29.4961 304.339 29.4961ZM409.182 29.4775C409.975 29.4778 410.618 30.1211 410.618 30.9141C410.618 31.707 409.975 32.3503 409.182 32.3506C408.388 32.3506 407.745 31.7072 407.745 30.9141C407.745 30.1209 408.389 29.4775 409.182 29.4775ZM348.45 29.4404C349.243 29.4405 349.887 30.0838 349.887 30.877C349.886 31.6699 349.243 32.3134 348.45 32.3135C347.657 32.3133 347.014 31.6698 347.014 30.877C347.014 30.0839 347.657 29.4407 348.45 29.4404ZM392.721 29.2686C393.514 29.2687 394.157 29.912 394.157 30.7051C394.157 31.4981 393.514 32.1414 392.721 32.1416C391.928 32.1416 391.284 31.4982 391.284 30.7051C391.284 29.9119 391.928 29.2686 392.721 29.2686ZM20.6865 27.5762C21.4797 27.5762 22.123 28.2195 22.123 29.0127C22.1229 29.8058 21.4796 30.4492 20.6865 30.4492C19.8936 30.449 19.2501 29.8056 19.25 29.0127C19.25 28.2197 19.8935 27.5764 20.6865 27.5762ZM64.7988 27.5195C65.5919 27.5196 66.2353 28.1629 66.2354 28.9561C66.2353 29.7492 65.592 30.3925 64.7988 30.3926C64.0058 30.3924 63.3623 29.7491 63.3623 28.9561C63.3624 28.163 64.0058 27.5197 64.7988 27.5195ZM108.942 27.4307C109.735 27.4309 110.379 28.0742 110.379 28.8672C110.379 29.66 109.735 30.3035 108.942 30.3037C108.149 30.3037 107.506 29.6602 107.506 28.8672C107.506 28.074 108.149 27.4307 108.942 27.4307ZM153.054 27.374C153.847 27.374 154.49 28.0174 154.49 28.8105C154.49 29.6036 153.847 30.247 153.054 30.2471C152.261 30.2468 151.617 29.6035 151.617 28.8105C151.617 28.0175 152.261 27.3743 153.054 27.374ZM58.707 27.3574C59.5 27.3577 60.1435 28.001 60.1436 28.7939C60.1435 29.5869 59.5 30.2302 58.707 30.2305C57.9139 30.2305 57.2705 29.5871 57.2705 28.7939C57.2705 28.0008 57.9139 27.3574 58.707 27.3574ZM102.816 27.3008C103.609 27.3008 104.253 27.9442 104.253 28.7373C104.253 29.5304 103.61 30.1738 102.816 30.1738C102.023 30.1737 101.38 29.5304 101.38 28.7373C101.38 27.9443 102.023 27.3009 102.816 27.3008ZM197.253 27.2539C198.046 27.2539 198.689 27.8973 198.689 28.6904C198.689 29.4836 198.046 30.1269 197.253 30.127C196.46 30.1267 195.816 29.4834 195.816 28.6904C195.816 27.8975 196.46 27.2542 197.253 27.2539ZM36.7979 27.2471C37.5908 27.2473 38.2344 27.8906 38.2344 28.6836C38.2343 29.4765 37.5907 30.1199 36.7979 30.1201C36.0047 30.1201 35.3614 29.4767 35.3613 28.6836C35.3613 27.8904 36.0047 27.2471 36.7979 27.2471ZM42.2793 27.2119C43.0722 27.2122 43.7158 27.8554 43.7158 28.6484C43.7157 29.4413 43.0722 30.0847 42.2793 30.085C41.4862 30.085 40.8429 29.4415 40.8428 28.6484C40.8428 27.8553 41.4861 27.2119 42.2793 27.2119ZM146.962 27.2119C147.755 27.2121 148.398 27.8554 148.398 28.6484C148.398 29.4414 147.755 30.0848 146.962 30.085C146.169 30.085 145.526 29.4415 145.525 28.6484C145.525 27.8553 146.169 27.2119 146.962 27.2119ZM241.365 27.1973C242.158 27.1973 242.802 27.8408 242.802 28.6338C242.802 29.4269 242.158 30.0703 241.365 30.0703C240.572 30.0701 239.929 29.4268 239.929 28.6338C239.929 27.8409 240.572 27.1975 241.365 27.1973ZM80.9092 27.1904C81.7023 27.1905 82.3457 27.8338 82.3457 28.627C82.3457 29.4201 81.7023 30.0634 80.9092 30.0635C80.1162 30.0633 79.4727 29.42 79.4727 28.627C79.4727 27.834 80.1162 27.1907 80.9092 27.1904ZM86.3887 27.1553C87.1818 27.1553 87.8252 27.7987 87.8252 28.5918C87.8252 29.3849 87.1818 30.0283 86.3887 30.0283C85.5956 30.0283 84.9522 29.3849 84.9521 28.5918C84.9522 27.7987 85.5956 27.1553 86.3887 27.1553ZM191.071 27.1553C191.864 27.1553 192.508 27.7987 192.508 28.5918C192.508 29.3849 191.864 30.0283 191.071 30.0283C190.278 30.0282 189.635 29.3849 189.635 28.5918C189.635 27.7987 190.278 27.1554 191.071 27.1553ZM285.511 27.1084C286.304 27.1084 286.947 27.7518 286.947 28.5449C286.947 29.338 286.304 29.9814 285.511 29.9814C284.718 29.9814 284.074 29.338 284.074 28.5449C284.074 27.7518 284.718 27.1084 285.511 27.1084ZM125.053 27.1016C125.846 27.1017 126.489 27.745 126.489 28.5381C126.489 29.331 125.846 29.9745 125.053 29.9746C124.26 29.9746 123.616 29.3311 123.616 28.5381C123.616 27.7449 124.26 27.1016 125.053 27.1016ZM130.534 27.0664C131.327 27.0666 131.971 27.7099 131.971 28.5029C131.97 29.2958 131.327 29.9393 130.534 29.9395C129.741 29.9395 129.098 29.2959 129.098 28.5029C129.098 27.7098 129.741 27.0664 130.534 27.0664ZM329.621 27.0518C330.414 27.052 331.058 27.6953 331.058 28.4883C331.058 29.2813 330.414 29.9245 329.621 29.9248C328.828 29.9248 328.185 29.2814 328.185 28.4883C328.185 27.6952 328.828 27.0518 329.621 27.0518ZM169.165 27.0449C169.958 27.0452 170.602 27.6884 170.602 28.4814C170.601 29.2744 169.958 29.9177 169.165 29.918C168.372 29.918 167.729 29.2745 167.729 28.4814C167.729 27.6883 168.372 27.0449 169.165 27.0449ZM235.273 27.0352C236.066 27.0354 236.71 27.6787 236.71 28.4717C236.71 29.2647 236.066 29.908 235.273 29.9082C234.48 29.9082 233.837 29.2648 233.837 28.4717C233.837 27.6786 234.48 27.0352 235.273 27.0352ZM174.646 27.0098C175.439 27.01 176.083 27.6533 176.083 28.4463C176.083 29.2392 175.439 29.8826 174.646 29.8828C173.853 29.8828 173.21 29.2393 173.21 28.4463C173.21 27.6531 173.853 27.0098 174.646 27.0098ZM279.383 26.9785C280.176 26.9785 280.819 27.6221 280.819 28.415C280.819 29.2082 280.176 29.8515 279.383 29.8516C278.59 29.8515 277.946 29.2081 277.946 28.415C277.947 27.6221 278.59 26.9786 279.383 26.9785ZM213.364 26.9248C214.157 26.925 214.801 27.5683 214.801 28.3613C214.801 29.1544 214.157 29.7976 213.364 29.7979C212.571 29.7979 211.928 29.1545 211.928 28.3613C211.928 27.5682 212.571 26.9248 213.364 26.9248ZM218.846 26.8896C219.639 26.8899 220.282 27.5332 220.282 28.3262C220.282 29.1191 219.639 29.7624 218.846 29.7627C218.053 29.7627 217.409 29.1193 217.409 28.3262C217.409 27.533 218.053 26.8896 218.846 26.8896ZM323.528 26.8896C324.321 26.8898 324.965 27.5331 324.965 28.3262C324.965 29.1192 324.321 29.7625 323.528 29.7627C322.735 29.7627 322.092 29.1193 322.092 28.3262C322.092 27.533 322.735 26.8896 323.528 26.8896ZM373.891 26.8799C374.684 26.88 375.327 27.5235 375.327 28.3164C375.327 29.1095 374.684 29.7528 373.891 29.7529C373.097 29.7529 372.454 29.1096 372.454 28.3164C372.454 27.5234 373.098 26.8799 373.891 26.8799ZM257.477 26.8682C258.269 26.8684 258.913 27.5118 258.913 28.3047C258.913 29.0977 258.269 29.7409 257.477 29.7412C256.683 29.7412 256.04 29.0978 256.04 28.3047C256.04 27.5117 256.683 26.8682 257.477 26.8682ZM262.958 26.833C263.751 26.8333 264.394 27.4767 264.395 28.2695C264.395 29.0625 263.751 29.7058 262.958 29.7061C262.165 29.7061 261.522 29.0627 261.521 28.2695C261.522 27.4765 262.165 26.833 262.958 26.833ZM367.641 26.833C368.434 26.8332 369.077 27.4766 369.077 28.2695C369.077 29.0625 368.434 29.7058 367.641 29.7061C366.847 29.7061 366.204 29.0627 366.204 28.2695C366.204 27.4765 366.848 26.833 367.641 26.833ZM301.621 26.7793C302.414 26.7793 303.058 27.4227 303.058 28.2158C303.058 29.0089 302.414 29.6523 301.621 29.6523C300.828 29.6523 300.185 29.0089 300.185 28.2158C300.185 27.4227 300.828 26.7794 301.621 26.7793ZM307.103 26.7441C307.896 26.7442 308.539 27.3875 308.539 28.1807C308.539 28.9737 307.896 29.6172 307.103 29.6172C306.31 29.6171 305.666 28.9736 305.666 28.1807C305.666 27.3875 306.309 26.7442 307.103 26.7441ZM345.731 26.7227C346.524 26.7229 347.168 27.3662 347.168 28.1592C347.168 28.9522 346.524 29.5955 345.731 29.5957C344.938 29.5957 344.295 28.9523 344.295 28.1592C344.295 27.3661 344.938 26.7227 345.731 26.7227ZM351.213 26.6875C352.006 26.6877 352.649 27.331 352.649 28.124C352.649 28.9171 352.006 29.5603 351.213 29.5605C350.42 29.5605 349.776 28.9172 349.776 28.124C349.776 27.3309 350.42 26.6875 351.213 26.6875ZM411.91 26.6621C412.703 26.6622 413.347 27.3055 413.347 28.0986C413.346 28.8916 412.703 29.5351 411.91 29.5352C411.117 29.5352 410.474 28.8916 410.474 28.0986C410.474 27.3055 411.117 26.6621 411.91 26.6621ZM390.003 26.5508C390.796 26.5508 391.439 27.1944 391.439 27.9873C391.439 28.7804 390.796 29.4238 390.003 29.4238C389.21 29.4237 388.566 28.7803 388.566 27.9873C388.567 27.1945 389.21 26.551 390.003 26.5508ZM395.482 26.5156C396.275 26.5157 396.919 27.1592 396.919 27.9521C396.919 28.7452 396.275 29.3886 395.482 29.3887C394.689 29.3887 394.046 28.7453 394.046 27.9521C394.046 27.1591 394.689 26.5156 395.482 26.5156ZM34.2256 24.7041C35.0187 24.7041 35.6621 25.3475 35.6621 26.1406C35.6618 26.9336 35.0186 27.5771 34.2256 27.5771C33.4327 27.577 32.7893 26.9335 32.7891 26.1406C32.7891 25.3476 33.4326 24.7043 34.2256 24.7041ZM78.3359 24.6475C79.129 24.6476 79.7725 25.2909 79.7725 26.084C79.7723 26.877 79.1289 27.5204 78.3359 27.5205C77.5429 27.5205 76.8996 26.877 76.8994 26.084C76.8994 25.2908 77.5428 24.6475 78.3359 24.6475ZM44.8223 24.6377C45.6153 24.6378 46.2587 25.2812 46.2588 26.0742C46.2588 26.8673 45.6153 27.5106 44.8223 27.5107C44.0291 27.5107 43.3858 26.8674 43.3857 26.0742C43.3859 25.2812 44.0292 24.6377 44.8223 24.6377ZM88.9346 24.5811C89.7275 24.5812 90.3708 25.2247 90.3711 26.0176C90.3711 26.8106 89.7276 27.454 88.9346 27.4541C88.1414 27.4541 87.4981 26.8107 87.498 26.0176C87.4983 25.2246 88.1415 24.5811 88.9346 24.5811ZM122.481 24.5576C123.274 24.5579 123.918 25.2013 123.918 25.9941C123.918 26.7871 123.274 27.4304 122.481 27.4307C121.688 27.4307 121.045 26.7873 121.045 25.9941C121.045 25.2011 121.688 24.5576 122.481 24.5576ZM166.591 24.502C167.384 24.502 168.027 25.1453 168.027 25.9385C168.027 26.7314 167.384 27.375 166.591 27.375C165.798 27.375 165.155 26.7314 165.154 25.9385C165.154 25.1453 165.798 24.502 166.591 24.502ZM133.079 24.4922C133.872 24.4922 134.516 25.1356 134.516 25.9287C134.516 26.7218 133.872 27.3652 133.079 27.3652C132.286 27.365 131.643 26.7217 131.643 25.9287C131.643 25.1357 132.286 24.4924 133.079 24.4922ZM177.189 24.4355C177.982 24.4356 178.626 25.079 178.626 25.8721C178.626 26.6652 177.983 27.3085 177.189 27.3086C176.396 27.3086 175.753 26.6652 175.753 25.8721C175.753 25.079 176.396 24.4355 177.189 24.4355ZM210.792 24.3818C211.585 24.3819 212.229 25.0252 212.229 25.8184C212.228 26.6114 211.585 27.2549 210.792 27.2549C209.999 27.2546 209.356 26.6113 209.355 25.8184C209.355 25.0253 209.999 24.3821 210.792 24.3818ZM43.0127 23.4697L39.2783 27.2041L35.543 23.4697L39.2783 19.7354L43.0127 23.4697ZM254.902 24.3252C255.695 24.3253 256.339 24.9686 256.339 25.7617C256.339 26.5548 255.695 27.1982 254.902 27.1982C254.109 27.1982 253.466 26.5549 253.466 25.7617C253.466 24.9686 254.109 24.3252 254.902 24.3252ZM221.391 24.3154C222.184 24.3155 222.827 24.959 222.827 25.752C222.827 26.5451 222.184 27.1884 221.391 27.1885C220.598 27.1884 219.954 26.545 219.954 25.752C219.954 24.9591 220.598 24.3155 221.391 24.3154ZM87.125 23.4141L83.3906 27.1484L79.6562 23.4141L83.3906 19.6797L87.125 23.4141ZM265.501 24.2598C266.294 24.2599 266.938 24.9032 266.938 25.6963C266.937 26.4892 266.294 27.1327 265.501 27.1328C264.708 27.1328 264.065 26.4893 264.064 25.6963C264.064 24.9031 264.708 24.2598 265.501 24.2598ZM299.048 24.2363C299.841 24.2366 300.484 24.8798 300.484 25.6729C300.484 26.4657 299.841 27.1091 299.048 27.1094C298.255 27.1094 297.612 26.4658 297.611 25.6729C297.611 24.8797 298.255 24.2363 299.048 24.2363ZM131.271 23.3252L127.536 27.0605L123.801 23.3252L127.536 19.5908L131.271 23.3252ZM343.159 24.1797C343.952 24.1797 344.596 24.823 344.596 25.6162C344.596 26.4093 343.952 27.0527 343.159 27.0527C342.366 27.0525 341.723 26.4091 341.723 25.6162C341.723 24.8232 342.366 24.1799 343.159 24.1797ZM309.646 24.1699C310.439 24.17 311.082 24.8134 311.082 25.6064C311.082 26.3996 310.439 27.0429 309.646 27.043C308.853 27.0427 308.209 26.3994 308.209 25.6064C308.209 24.8135 308.853 24.1702 309.646 24.1699ZM175.379 23.2686L171.645 27.0029L167.91 23.2686L171.645 19.5332L175.379 23.2686ZM353.756 24.1133C354.549 24.1133 355.192 24.7569 355.192 25.5498C355.192 26.3429 354.549 26.9863 353.756 26.9863C352.963 26.9863 352.319 26.343 352.319 25.5498C352.32 24.7568 352.963 24.1133 353.756 24.1133ZM219.581 23.1504L215.847 26.8857L212.112 23.1504L215.847 19.416L219.581 23.1504ZM387.43 24.0078C388.223 24.0079 388.866 24.6513 388.866 25.4443C388.866 26.2374 388.223 26.8807 387.43 26.8809C386.637 26.8809 385.993 26.2375 385.993 25.4443C385.993 24.6512 386.637 24.0078 387.43 24.0078ZM263.69 23.0938L259.955 26.8281L256.221 23.0938L259.955 19.3584L263.69 23.0938ZM398.028 23.9424C398.821 23.9426 399.465 24.5859 399.465 25.3789C399.465 26.1718 398.821 26.8152 398.028 26.8154C397.235 26.8154 396.592 26.1719 396.592 25.3789C396.592 24.5857 397.235 23.9424 398.028 23.9424ZM307.835 23.0029L304.101 26.7373L300.366 23.0029L304.101 19.2676L307.835 23.0029ZM351.946 22.9473L348.212 26.6826L344.478 22.9473L348.212 19.2129L351.946 22.9473ZM396.219 22.7754L392.484 26.5098L388.749 22.7754L392.484 19.041L396.219 22.7754ZM47.3018 22.0312C48.0949 22.0313 48.7383 22.6746 48.7383 23.4678C48.7382 24.2609 48.0949 24.9043 47.3018 24.9043C46.5087 24.9042 45.8653 24.2609 45.8652 23.4678C45.8652 22.6746 46.5087 22.0313 47.3018 22.0312ZM91.4121 21.9746C92.205 21.9748 92.8485 22.6182 92.8486 23.4111C92.8486 24.2041 92.2051 24.8474 91.4121 24.8477C90.619 24.8477 89.9756 24.2043 89.9756 23.4111C89.9757 22.618 90.619 21.9746 91.4121 21.9746ZM31.4951 21.8877C32.288 21.888 32.9316 22.5313 32.9316 23.3242C32.9316 24.1172 32.288 24.7605 31.4951 24.7607C30.702 24.7607 30.0586 24.1174 30.0586 23.3242C30.0586 22.5311 30.702 21.8877 31.4951 21.8877ZM135.557 21.8857C136.35 21.8858 136.993 22.5291 136.993 23.3223C136.993 24.1152 136.35 24.7588 135.557 24.7588C134.764 24.7586 134.12 24.1151 134.12 23.3223C134.12 22.5292 134.764 21.8859 135.557 21.8857ZM60.6592 23.8174L61.5703 24.7285L62.3643 23.9336L61.4531 23.0225L60.6592 23.8174ZM75.6064 21.8311C76.3995 21.8311 77.0428 22.4746 77.043 23.2676C77.0429 24.0607 76.3996 24.7041 75.6064 24.7041C74.8135 24.7039 74.17 24.0606 74.1699 23.2676C74.1701 22.4747 74.8136 21.8313 75.6064 21.8311ZM179.669 21.8291C180.462 21.8291 181.105 22.4725 181.105 23.2656C181.105 24.0587 180.462 24.7021 179.669 24.7021C178.876 24.702 178.233 24.0586 178.232 23.2656C178.232 22.4725 178.876 21.8292 179.669 21.8291ZM104.771 23.7617L105.682 24.6729L106.509 23.8438L105.599 22.9336L104.771 23.7617ZM119.752 21.7422C120.545 21.7422 121.188 22.3856 121.188 23.1787C121.188 23.9718 120.545 24.6152 119.752 24.6152C118.959 24.6152 118.316 23.9718 118.315 23.1787C118.315 22.3856 118.959 21.7422 119.752 21.7422ZM148.915 23.6719L149.826 24.583L150.621 23.7871L149.71 22.876L148.915 23.6719ZM223.868 21.709C224.661 21.709 225.305 22.3524 225.305 23.1455C225.305 23.9386 224.661 24.582 223.868 24.582C223.075 24.582 222.432 23.9386 222.432 23.1455C222.432 22.3525 223.075 21.7091 223.868 21.709ZM163.862 21.6855C164.655 21.6858 165.299 22.3291 165.299 23.1221C165.299 23.9151 164.655 24.5583 163.862 24.5586C163.069 24.5586 162.426 23.9152 162.426 23.1221C162.426 22.3289 163.069 21.6855 163.862 21.6855ZM193.026 23.6162L193.95 24.54L194.821 23.668L193.897 22.7441L193.026 23.6162ZM267.979 21.6523C268.771 21.6525 269.415 22.296 269.415 23.0889C269.415 23.8819 268.772 24.5252 267.979 24.5254C267.185 24.5254 266.542 23.882 266.542 23.0889C266.542 22.2959 267.185 21.6523 267.979 21.6523ZM208.062 21.5654C208.854 21.5657 209.498 22.2091 209.498 23.002C209.498 23.7949 208.854 24.4382 208.062 24.4385C207.268 24.4385 206.625 23.7951 206.625 23.002C206.625 22.2089 207.268 21.5654 208.062 21.5654ZM312.123 21.5635C312.916 21.5635 313.56 22.2068 313.56 23C313.559 23.7931 312.916 24.4365 312.123 24.4365C311.33 24.4363 310.687 23.793 310.687 23C310.687 22.2069 311.33 21.5637 312.123 21.5635ZM237.228 23.4941L238.139 24.4053L238.931 23.6113L238.021 22.7012L237.228 23.4941ZM252.173 21.5098C252.966 21.5098 253.609 22.1531 253.609 22.9463C253.609 23.7392 252.966 24.3828 252.173 24.3828C251.38 24.3826 250.737 23.7391 250.736 22.9463C250.736 22.1533 251.38 21.51 252.173 21.5098ZM356.235 21.5068C357.028 21.5069 357.672 22.1502 357.672 22.9434C357.672 23.7365 357.028 24.3799 356.235 24.3799C355.442 24.3797 354.799 23.7364 354.799 22.9434C354.799 22.1503 355.442 21.507 356.235 21.5068ZM281.338 23.4375L282.251 24.3506L283.078 23.5225L282.165 22.6094L281.338 23.4375ZM296.318 21.4199C297.111 21.42 297.755 22.0633 297.755 22.8564C297.755 23.6496 297.111 24.2929 296.318 24.293C295.525 24.2929 294.882 23.6495 294.882 22.8564C294.882 22.0634 295.525 21.42 296.318 21.4199ZM325.481 23.3496L326.394 24.2607L327.188 23.4658L326.276 22.5547L325.481 23.3496ZM340.429 21.3633C341.222 21.3635 341.865 22.0069 341.865 22.7998C341.865 23.5928 341.222 24.2361 340.429 24.2363C339.636 24.2363 338.992 23.593 338.992 22.7998C338.992 22.0068 339.636 21.3633 340.429 21.3633ZM369.594 23.2949L370.525 24.2266L371.458 23.293L370.526 22.3613L369.594 23.2949ZM400.506 21.335C401.299 21.3353 401.942 21.9787 401.942 22.7715C401.942 23.5645 401.299 24.2077 400.506 24.208C399.713 24.208 399.069 23.5646 399.069 22.7715C399.07 21.9785 399.713 21.335 400.506 21.335ZM384.7 21.1924C385.493 21.1924 386.137 21.8358 386.137 22.6289C386.136 23.4219 385.493 24.0654 384.7 24.0654C383.907 24.0653 383.264 23.4218 383.264 22.6289C383.264 21.8358 383.907 21.1925 384.7 21.1924ZM44.582 19.3145C45.3752 19.3145 46.0186 19.9578 46.0186 20.751C46.0183 21.5439 45.375 22.1875 44.582 22.1875C43.7892 22.1873 43.1458 21.5438 43.1455 20.751C43.1455 19.9579 43.789 19.3146 44.582 19.3145ZM88.6924 19.2578C89.4854 19.2579 90.1289 19.9012 90.1289 20.6943C90.1288 21.4873 89.4854 22.1307 88.6924 22.1309C87.8993 22.1309 87.256 21.4874 87.2559 20.6943C87.2559 19.9012 87.8992 19.2578 88.6924 19.2578ZM132.838 19.168C133.631 19.1683 134.274 19.8116 134.274 20.6045C134.274 21.3975 133.631 22.0407 132.838 22.041C132.045 22.041 131.401 21.3976 131.401 20.6045C131.401 19.8114 132.045 19.168 132.838 19.168ZM176.949 19.1143C177.742 19.1143 178.386 19.7576 178.386 20.5508C178.386 21.3438 177.742 21.9873 176.949 21.9873C176.156 21.9871 175.513 21.3437 175.513 20.5508C175.513 19.7577 176.156 19.1145 176.949 19.1143ZM34.3242 19.0791C35.1174 19.0791 35.7607 19.7225 35.7607 20.5156C35.7606 21.3086 35.1173 21.9521 34.3242 21.9521C33.5313 21.9519 32.8878 21.3085 32.8877 20.5156C32.8877 19.7226 33.5312 19.0793 34.3242 19.0791ZM78.4365 19.0225C79.2297 19.0225 79.873 19.6658 79.873 20.459C79.873 21.2521 79.2297 21.8955 78.4365 21.8955C77.6435 21.8953 77 21.252 77 20.459C77 19.6659 77.6435 19.0227 78.4365 19.0225ZM221.148 18.9922C221.942 18.9922 222.585 19.6356 222.585 20.4287C222.585 21.2218 221.942 21.8652 221.148 21.8652C220.355 21.8651 219.712 21.2217 219.712 20.4287C219.712 19.6356 220.355 18.9923 221.148 18.9922ZM265.261 18.9355C266.054 18.9356 266.697 19.5789 266.697 20.3721C266.697 21.1652 266.054 21.8086 265.261 21.8086C264.468 21.8084 263.824 21.1651 263.824 20.3721C263.824 19.579 264.468 18.9357 265.261 18.9355ZM122.582 18.9336C123.375 18.9336 124.019 19.577 124.019 20.3701C124.018 21.1631 123.375 21.8066 122.582 21.8066C121.789 21.8066 121.146 21.1631 121.146 20.3701C121.146 19.577 121.789 18.9336 122.582 18.9336ZM166.692 18.877C167.485 18.8772 168.129 19.5205 168.129 20.3135C168.129 21.1064 167.485 21.7497 166.692 21.75C165.899 21.75 165.256 21.1065 165.256 20.3135C165.256 19.5203 165.899 18.877 166.692 18.877ZM309.404 18.8457C310.197 18.846 310.841 19.4894 310.841 20.2822C310.841 21.0752 310.197 21.7185 309.404 21.7188C308.611 21.7188 307.968 21.0754 307.968 20.2822C307.968 19.4893 308.611 18.8457 309.404 18.8457ZM353.516 18.79C354.309 18.7901 354.952 19.4334 354.952 20.2266C354.952 21.0196 354.309 21.6631 353.516 21.6631C352.723 21.6628 352.079 21.0194 352.079 20.2266C352.079 19.4335 352.723 18.7903 353.516 18.79ZM210.891 18.7568C211.684 18.7569 212.327 19.4002 212.327 20.1934C212.327 20.9865 211.684 21.6299 210.891 21.6299C210.098 21.6296 209.454 20.9864 209.454 20.1934C209.454 19.4003 210.098 18.7571 210.891 18.7568ZM255.003 18.7002C255.796 18.7002 256.439 19.3437 256.439 20.1367C256.439 20.9298 255.796 21.5732 255.003 21.5732C254.21 21.573 253.566 20.9297 253.566 20.1367C253.567 19.3438 254.21 18.7004 255.003 18.7002ZM397.786 18.6182C398.579 18.6184 399.223 19.2617 399.223 20.0547C399.223 20.8477 398.579 21.491 397.786 21.4912C396.993 21.4912 396.35 20.8478 396.35 20.0547C396.35 19.2615 396.993 18.6182 397.786 18.6182ZM299.148 18.6113C299.942 18.6114 300.585 19.2547 300.585 20.0479C300.585 20.8409 299.942 21.4843 299.148 21.4844C298.355 21.4844 297.712 20.8409 297.712 20.0479C297.712 19.2547 298.355 18.6113 299.148 18.6113ZM343.259 18.5547C344.052 18.555 344.695 19.1982 344.695 19.9912C344.695 20.7842 344.052 21.4274 343.259 21.4277C342.466 21.4277 341.822 20.7844 341.822 19.9912C341.822 19.1981 342.466 18.5547 343.259 18.5547ZM387.53 18.3828C388.323 18.3828 388.967 19.0264 388.967 19.8193C388.967 20.6125 388.323 21.2558 387.53 21.2559C386.737 21.2558 386.094 20.6124 386.094 19.8193C386.094 19.0264 386.737 18.3829 387.53 18.3828ZM20.4307 17.4854C21.2238 17.4854 21.8672 18.1287 21.8672 18.9219C21.8671 19.7149 21.2237 20.3584 20.4307 20.3584C19.6376 20.3584 18.9943 19.715 18.9941 18.9219C18.9941 18.1287 19.6375 17.4854 20.4307 17.4854ZM64.541 17.4287C65.3339 17.429 65.9774 18.0723 65.9775 18.8652C65.9775 19.6582 65.3339 20.3015 64.541 20.3018C63.7479 20.3018 63.1045 19.6584 63.1045 18.8652C63.1046 18.0721 63.7479 17.4287 64.541 17.4287ZM108.686 17.3398C109.479 17.3399 110.122 17.9832 110.122 18.7764C110.122 19.5694 109.479 20.2129 108.686 20.2129C107.893 20.2128 107.249 19.5693 107.249 18.7764C107.249 17.9833 107.892 17.3399 108.686 17.3398ZM152.796 17.2832C153.589 17.2834 154.232 17.9267 154.232 18.7197C154.232 19.5127 153.589 20.1561 152.796 20.1562C152.003 20.1562 151.359 19.5128 151.359 18.7197C151.359 17.9266 152.003 17.2832 152.796 17.2832ZM196.997 17.1631C197.79 17.1631 198.434 17.8065 198.434 18.5996C198.434 19.3927 197.79 20.0361 196.997 20.0361C196.204 20.0361 195.561 19.3927 195.561 18.5996C195.561 17.8065 196.204 17.1631 196.997 17.1631ZM241.107 17.1064C241.9 17.1066 242.544 17.7501 242.544 18.543C242.544 19.336 241.9 19.9793 241.107 19.9795C240.314 19.9795 239.671 19.3361 239.671 18.543C239.671 17.75 240.314 17.1064 241.107 17.1064ZM285.252 17.0176C286.045 17.0176 286.688 17.6609 286.688 18.4541C286.688 19.2472 286.045 19.8906 285.252 19.8906C284.459 19.8905 283.816 19.2471 283.815 18.4541C283.815 17.661 284.459 17.0177 285.252 17.0176ZM329.362 16.9609C330.155 16.961 330.799 17.6044 330.799 18.3975C330.799 19.1905 330.155 19.8339 329.362 19.834C328.569 19.834 327.926 19.1906 327.926 18.3975C327.926 17.6043 328.569 16.9609 329.362 16.9609ZM57.4443 16.9424C58.2375 16.9424 58.8809 17.5858 58.8809 18.3789C58.8808 19.172 58.2374 19.8154 57.4443 19.8154C56.6512 19.8154 56.0079 19.172 56.0078 18.3789C56.0078 17.5858 56.6512 16.9424 57.4443 16.9424ZM101.557 16.8857C102.35 16.8858 102.993 17.5292 102.993 18.3223C102.993 19.1154 102.35 19.7588 101.557 19.7588C100.763 19.7588 100.12 19.1154 100.12 18.3223C100.12 17.5292 100.764 16.8858 101.557 16.8857ZM145.699 16.7969C146.492 16.7969 147.136 17.4402 147.136 18.2334C147.136 19.0264 146.492 19.6699 145.699 19.6699C144.906 19.6698 144.263 19.0263 144.263 18.2334C144.263 17.4403 144.906 16.797 145.699 16.7969ZM373.634 16.7891C374.427 16.7891 375.07 17.4326 375.07 18.2256C375.07 19.0187 374.427 19.6621 373.634 19.6621C372.841 19.6619 372.197 19.0186 372.197 18.2256C372.198 17.4328 372.841 16.7893 373.634 16.7891ZM42.0088 16.7705C42.8017 16.7707 43.4452 17.4141 43.4453 18.207C43.4453 19.0001 42.8018 19.6434 42.0088 19.6436C41.2156 19.6436 40.5723 19.0002 40.5723 18.207C40.5724 17.414 41.2157 16.7705 42.0088 16.7705ZM189.812 16.7402C190.605 16.7403 191.248 17.3836 191.248 18.1768C191.248 18.9698 190.605 19.6133 189.812 19.6133C189.018 19.6132 188.375 18.9698 188.375 18.1768C188.375 17.3836 189.018 16.7403 189.812 16.7402ZM86.1211 16.7139C86.9139 16.7141 87.5574 17.3576 87.5576 18.1504C87.5576 18.9434 86.9141 19.5867 86.1211 19.5869C85.3279 19.5869 84.6846 18.9435 84.6846 18.1504C84.6848 17.3574 85.3281 16.7139 86.1211 16.7139ZM130.266 16.625C131.059 16.625 131.702 17.2684 131.702 18.0615C131.702 18.8546 131.059 19.498 130.266 19.498C129.473 19.4979 128.829 18.8545 128.829 18.0615C128.829 17.2684 129.473 16.6252 130.266 16.625ZM234.011 16.6201C234.804 16.6201 235.447 17.2636 235.447 18.0566C235.447 18.8498 234.804 19.4931 234.011 19.4932C233.218 19.4931 232.574 18.8497 232.574 18.0566C232.574 17.2636 233.218 16.6202 234.011 16.6201ZM174.376 16.5684C175.169 16.5685 175.812 17.2119 175.812 18.0049C175.812 18.7979 175.169 19.4413 174.376 19.4414C173.583 19.4414 172.939 18.798 172.939 18.0049C172.94 17.2118 173.583 16.5684 174.376 16.5684ZM278.123 16.5635C278.916 16.5635 279.559 17.207 279.56 18C279.56 18.7931 278.916 19.4365 278.123 19.4365C277.33 19.4365 276.687 18.7931 276.687 18C276.687 17.207 277.33 16.5635 278.123 16.5635ZM36.8701 16.5078C37.6633 16.5078 38.3066 17.1512 38.3066 17.9443C38.3064 18.7373 37.6631 19.3808 36.8701 19.3809C36.0771 19.3808 35.4338 18.7373 35.4336 17.9443C35.4336 17.1512 36.077 16.5079 36.8701 16.5078ZM322.269 16.4746C323.062 16.4748 323.705 17.1181 323.705 17.9111C323.705 18.7041 323.062 19.3475 322.269 19.3477C321.475 19.3477 320.832 18.7043 320.832 17.9111C320.832 17.118 321.475 16.4746 322.269 16.4746ZM80.9805 16.4512C81.7735 16.4514 82.417 17.0946 82.417 17.8877C82.4169 18.6806 81.7734 19.324 80.9805 19.3242C80.1874 19.3242 79.5441 18.6808 79.5439 17.8877C79.5439 17.0945 80.1873 16.4512 80.9805 16.4512ZM218.577 16.4482C219.37 16.4483 220.013 17.0918 220.014 17.8848C220.014 18.6779 219.37 19.3213 218.577 19.3213C217.784 19.3212 217.141 18.6779 217.141 17.8848C217.141 17.0919 217.784 16.4483 218.577 16.4482ZM366.378 16.418C367.171 16.418 367.814 17.0614 367.814 17.8545C367.814 18.6476 367.171 19.291 366.378 19.291C365.585 19.2909 364.941 18.6476 364.941 17.8545C364.941 17.0614 365.585 16.4181 366.378 16.418ZM262.688 16.3926C263.481 16.3928 264.124 17.036 264.124 17.8291C264.124 18.622 263.48 19.2654 262.688 19.2656C261.894 19.2656 261.251 18.6221 261.251 17.8291C261.251 17.0359 261.894 16.3926 262.688 16.3926ZM125.125 16.3613C125.918 16.3614 126.561 17.0049 126.562 17.7979C126.561 18.591 125.918 19.2344 125.125 19.2344C124.332 19.2342 123.689 18.5909 123.688 17.7979C123.689 17.005 124.332 16.3615 125.125 16.3613ZM169.235 16.3057C170.028 16.3058 170.672 16.9491 170.672 17.7422C170.672 18.5351 170.028 19.1786 169.235 19.1787C168.442 19.1787 167.799 18.5352 167.799 17.7422C167.799 16.949 168.442 16.3057 169.235 16.3057ZM306.832 16.3027C307.625 16.3028 308.268 16.9462 308.269 17.7393C308.269 18.5324 307.625 19.1757 306.832 19.1758C306.039 19.1756 305.396 18.5323 305.396 17.7393C305.396 16.9463 306.039 16.3029 306.832 16.3027ZM350.942 16.2461C351.735 16.2462 352.379 16.8897 352.379 17.6826C352.379 18.4757 351.735 19.1191 350.942 19.1191C350.149 19.1191 349.506 18.4758 349.506 17.6826C349.506 16.8896 350.149 16.2461 350.942 16.2461ZM410.647 16.2461C411.44 16.2461 412.084 16.8896 412.084 17.6826C412.084 18.4758 411.441 19.1191 410.647 19.1191C409.854 19.1189 409.211 18.4756 409.211 17.6826C409.211 16.8898 409.855 16.2463 410.647 16.2461ZM213.437 16.1855C214.23 16.1856 214.873 16.8289 214.873 17.6221C214.873 18.4151 214.23 19.0586 213.437 19.0586C212.643 19.0585 212 18.4151 212 17.6221C212 16.829 212.643 16.1856 213.437 16.1855ZM257.547 16.1289C258.34 16.1291 258.983 16.7724 258.983 17.5654C258.983 18.3585 258.34 19.0018 257.547 19.002C256.754 19.002 256.11 18.3586 256.11 17.5654C256.11 16.7723 256.754 16.1289 257.547 16.1289ZM395.214 16.0752C396.007 16.0752 396.65 16.7186 396.65 17.5117C396.65 18.3047 396.007 18.9482 395.214 18.9482C394.421 18.948 393.778 18.3046 393.777 17.5117C393.777 16.7187 394.421 16.0754 395.214 16.0752ZM301.691 16.04C302.485 16.0401 303.128 16.6834 303.128 17.4766C303.128 18.2695 302.484 18.9131 301.691 18.9131C300.899 18.9129 300.255 18.2694 300.255 17.4766C300.255 16.6835 300.898 16.0402 301.691 16.04ZM345.802 15.9834C346.595 15.9835 347.238 16.6268 347.238 17.4199C347.238 18.2129 346.595 18.8563 345.802 18.8564C345.009 18.8564 344.365 18.213 344.365 17.4199C344.365 16.6267 345.009 15.9834 345.802 15.9834ZM390.073 15.8115C390.866 15.8116 391.51 16.455 391.51 17.248C391.51 18.0412 390.866 18.6845 390.073 18.6846C389.28 18.6843 388.637 18.041 388.637 17.248C388.637 16.4551 389.28 15.8118 390.073 15.8115ZM23.1855 14.7471C23.9787 14.7471 24.6221 15.3905 24.6221 16.1836C24.6219 16.9766 23.9786 17.6201 23.1855 17.6201C22.3925 17.6201 21.7492 16.9766 21.749 16.1836C21.749 15.3904 22.3924 14.7471 23.1855 14.7471ZM67.2959 14.6904C68.0888 14.6907 68.7324 15.334 68.7324 16.127C68.7324 16.9199 68.0888 17.5632 67.2959 17.5635C66.5027 17.5635 65.8594 16.9201 65.8594 16.127C65.8594 15.3338 66.5028 14.6904 67.2959 14.6904ZM111.44 14.6016C112.234 14.6016 112.877 15.2449 112.877 16.0381C112.877 16.831 112.233 17.4746 111.44 17.4746C110.647 17.4745 110.004 16.831 110.004 16.0381C110.004 15.245 110.647 14.6016 111.44 14.6016ZM155.553 14.5449C156.346 14.5449 156.989 15.1883 156.989 15.9814C156.989 16.7745 156.346 17.4179 155.553 17.418C154.76 17.418 154.116 16.7745 154.116 15.9814C154.116 15.1883 154.76 14.5449 155.553 14.5449ZM199.752 14.4248C200.545 14.4248 201.188 15.0682 201.188 15.8613C201.188 16.6545 200.545 17.2978 199.752 17.2979C198.959 17.2979 198.315 16.6545 198.315 15.8613C198.315 15.0682 198.959 14.4248 199.752 14.4248ZM243.862 14.3682C244.655 14.3684 245.299 15.0118 245.299 15.8047C245.299 16.5977 244.655 17.241 243.862 17.2412C243.069 17.2412 242.426 16.5978 242.426 15.8047C242.426 15.0117 243.069 14.3682 243.862 14.3682ZM288.007 14.2793C288.8 14.2793 289.443 14.9227 289.443 15.7158C289.443 16.5089 288.8 17.1523 288.007 17.1523C287.214 17.1522 286.57 16.5088 286.57 15.7158C286.57 14.9227 287.214 14.2794 288.007 14.2793ZM332.119 14.2227C332.912 14.2227 333.556 14.866 333.556 15.6592C333.556 16.4523 332.912 17.0957 332.119 17.0957C331.326 17.0956 330.683 16.4523 330.683 15.6592C330.683 14.8661 331.326 14.2228 332.119 14.2227ZM54.6895 14.2041C55.4826 14.2041 56.126 14.8475 56.126 15.6406C56.1258 16.4337 55.4825 17.0771 54.6895 17.0771C53.8964 17.0771 53.2531 16.4336 53.2529 15.6406C53.2529 14.8475 53.8963 14.2042 54.6895 14.2041ZM98.7998 14.1475C99.5928 14.1476 100.236 14.791 100.236 15.584C100.236 16.377 99.5928 17.0203 98.7998 17.0205C98.0066 17.0205 97.3633 16.3771 97.3633 15.584C97.3633 14.7908 98.0067 14.1475 98.7998 14.1475ZM142.944 14.0586C143.737 14.0586 144.381 14.702 144.381 15.4951C144.381 16.2881 143.737 16.9316 142.944 16.9316C142.151 16.9315 141.508 16.288 141.508 15.4951C141.508 14.702 142.151 14.0588 142.944 14.0586ZM376.389 14.0508C377.182 14.0508 377.825 14.6943 377.825 15.4873C377.825 16.2804 377.182 16.9238 376.389 16.9238C375.596 16.9236 374.952 16.2803 374.952 15.4873C374.952 14.6944 375.596 14.051 376.389 14.0508ZM187.057 14.002C187.85 14.002 188.493 14.6453 188.493 15.4385C188.493 16.2315 187.85 16.875 187.057 16.875C186.264 16.8749 185.62 16.2314 185.62 15.4385C185.62 14.6454 186.264 14.0021 187.057 14.002ZM39.2793 13.9551C40.0724 13.9551 40.7158 14.5984 40.7158 15.3916C40.7156 16.1846 40.0723 16.8281 39.2793 16.8281C38.4864 16.828 37.843 16.1845 37.8428 15.3916C37.8428 14.5985 38.4862 13.9552 39.2793 13.9551ZM334.954 8.66602L326.673 16.8154L318.393 8.66602L310.111 0.517578H343.234L334.954 8.66602ZM370.827 16.7852L362.547 8.63574L354.266 0.486328H387.39L370.827 16.7852ZM415.927 16.7832L407.646 8.63379L399.365 0.484375H432.489L415.927 16.7832ZM83.3916 13.8984C84.1847 13.8985 84.8281 14.5418 84.8281 15.335C84.8281 16.1281 84.1847 16.7715 83.3916 16.7715C82.5986 16.7714 81.9552 16.128 81.9551 15.335C81.9551 14.5419 82.5985 13.8985 83.3916 13.8984ZM231.256 13.8818C232.049 13.8819 232.692 14.5253 232.692 15.3184C232.692 16.1115 232.049 16.7549 231.256 16.7549C230.463 16.7548 229.819 16.1114 229.819 15.3184C229.819 14.5253 230.463 13.8819 231.256 13.8818ZM202.041 8.59863L193.761 16.7471L185.478 8.59863L177.196 0.446289H210.322L202.041 8.59863ZM246.196 8.56543L237.915 16.7168L229.634 8.56543L221.354 0.416016H254.477L246.196 8.56543ZM291.295 8.56543L283.012 16.7148L274.731 8.56543L266.45 0.414062H299.576L291.295 8.56543ZM275.366 13.8252C276.159 13.8254 276.803 14.4688 276.803 15.2617C276.803 16.0547 276.159 16.698 275.366 16.6982C274.573 16.6982 273.93 16.0549 273.93 15.2617C273.93 14.4687 274.573 13.8252 275.366 13.8252ZM158.244 8.53906L149.963 16.6914L141.683 8.53906L133.401 0.390625H166.525L158.244 8.53906ZM127.534 13.8086C128.327 13.8086 128.97 14.4522 128.971 15.2451C128.971 16.0383 128.327 16.6816 127.534 16.6816C126.741 16.6814 126.098 16.0381 126.098 15.2451C126.098 14.4523 126.741 13.8088 127.534 13.8086ZM171.646 13.7529C172.44 13.753 173.083 14.3963 173.083 15.1895C173.083 15.9824 172.44 16.6259 171.646 16.626C170.854 16.6258 170.21 15.9823 170.21 15.1895C170.21 14.3964 170.853 13.7531 171.646 13.7529ZM25.3311 8.47168L17.0508 16.6201L8.76953 8.47168L0.486328 0.322266H33.6123L25.3311 8.47168ZM319.511 13.7363C320.304 13.7364 320.947 14.3797 320.947 15.1729C320.947 15.9659 320.304 16.6093 319.511 16.6094C318.718 16.6092 318.074 15.9658 318.074 15.1729C318.074 14.3798 318.718 13.7365 319.511 13.7363ZM69.4863 8.44043L61.2051 16.5898L52.9238 8.44043L44.6436 0.291016H77.7666L69.4863 8.44043ZM114.586 8.43848L106.305 16.5879L98.0215 8.43848L89.7402 0.289062H122.866L114.586 8.43848ZM363.623 13.6797C364.416 13.6797 365.06 14.3231 365.06 15.1162C365.06 15.9093 364.416 16.5527 363.623 16.5527C362.83 16.5526 362.187 15.9093 362.187 15.1162C362.187 14.3232 362.83 13.6798 363.623 13.6797ZM215.846 13.6328C216.639 13.6328 217.282 14.2762 217.282 15.0693C217.282 15.8624 216.639 16.5058 215.846 16.5059C215.053 16.5057 214.409 15.8624 214.409 15.0693C214.409 14.2763 215.053 13.633 215.846 13.6328ZM259.958 13.5762C260.751 13.5762 261.394 14.2196 261.395 15.0127C261.395 15.8058 260.751 16.4492 259.958 16.4492C259.165 16.4491 258.522 15.8058 258.521 15.0127C258.522 14.2197 259.165 13.5763 259.958 13.5762ZM407.893 13.5078C408.686 13.5078 409.329 14.1513 409.329 14.9443C409.329 15.7375 408.686 16.3808 407.893 16.3809C407.1 16.3806 406.456 15.7374 406.456 14.9443C406.456 14.1514 407.1 13.508 407.893 13.5078ZM304.104 13.4873C304.897 13.4874 305.54 14.1307 305.54 14.9238C305.54 15.7168 304.897 16.3603 304.104 16.3604C303.31 16.3604 302.667 15.7168 302.667 14.9238C302.667 14.1307 303.31 13.4873 304.104 13.4873ZM348.213 13.4307C349.006 13.4307 349.649 14.074 349.649 14.8672C349.649 15.6603 349.006 16.3037 348.213 16.3037C347.42 16.3035 346.776 15.6602 346.776 14.8672C346.776 14.0741 347.42 13.4309 348.213 13.4307ZM392.483 13.2588C393.276 13.259 393.92 13.9024 393.92 14.6953C393.92 15.4883 393.276 16.1316 392.483 16.1318C391.69 16.1318 391.047 15.4885 391.047 14.6953C391.047 13.9022 391.69 13.2588 392.483 13.2588ZM25.9287 12.001C26.7216 12.0011 27.365 12.6446 27.3652 13.4375C27.3652 14.2306 26.7218 14.8739 25.9287 14.874C25.1356 14.874 24.4922 14.2306 24.4922 13.4375C24.4924 12.6445 25.1357 12.001 25.9287 12.001ZM70.041 11.9453C70.8341 11.9455 71.4775 12.5888 71.4775 13.3818C71.4774 14.1748 70.834 14.8182 70.041 14.8184C69.2479 14.8184 68.6046 14.1749 68.6045 13.3818C68.6045 12.5887 69.2478 11.9453 70.041 11.9453ZM114.186 11.8555C114.979 11.8555 115.622 12.499 115.622 13.292C115.622 14.0851 114.979 14.7285 114.186 14.7285C113.393 14.7283 112.749 14.085 112.749 13.292C112.749 12.4991 113.393 11.8557 114.186 11.8555ZM158.296 11.7988C159.089 11.7989 159.732 12.4424 159.732 13.2354C159.732 14.0285 159.089 14.6718 158.296 14.6719C157.503 14.6719 156.859 14.0285 156.859 13.2354C156.86 12.4424 157.503 11.7988 158.296 11.7988ZM202.495 11.6797C203.288 11.6798 203.932 12.3231 203.932 13.1162C203.931 13.9092 203.288 14.5526 202.495 14.5527C201.702 14.5527 201.059 13.9092 201.059 13.1162C201.059 12.323 201.702 11.6797 202.495 11.6797ZM246.607 11.623C247.401 11.6231 248.044 12.2665 248.044 13.0596C248.044 13.8527 247.401 14.496 246.607 14.4961C245.814 14.4961 245.171 13.8527 245.171 13.0596C245.171 12.2664 245.814 11.623 246.607 11.623ZM290.753 11.5332C291.546 11.5335 292.189 12.177 292.189 12.9697C292.189 13.7627 291.546 14.406 290.753 14.4062C289.96 14.4062 289.316 13.7629 289.316 12.9697C289.317 12.1768 289.96 11.5332 290.753 11.5332ZM334.862 11.4775C335.655 11.4776 336.299 12.1209 336.299 12.9141C336.299 13.7071 335.655 14.3506 334.862 14.3506C334.069 14.3505 333.426 13.707 333.426 12.9141C333.426 12.1209 334.069 11.4776 334.862 11.4775ZM51.9443 11.458C52.7373 11.4581 53.3806 12.1016 53.3809 12.8945C53.3808 13.6876 52.7374 14.3309 51.9443 14.3311C51.1512 14.3311 50.5078 13.6877 50.5078 12.8945C50.5081 12.1016 51.1513 11.458 51.9443 11.458ZM96.0566 11.4023C96.8497 11.4025 97.4932 12.0458 97.4932 12.8389C97.493 13.6318 96.8496 14.2753 96.0566 14.2754C95.2636 14.2754 94.6203 13.6319 94.6201 12.8389C94.6201 12.0457 95.2635 11.4023 96.0566 11.4023ZM140.201 11.3125C140.994 11.3125 141.638 11.956 141.638 12.749C141.638 13.5422 140.994 14.1855 140.201 14.1855C139.408 14.1853 138.765 13.542 138.765 12.749C138.765 11.9561 139.408 11.3127 140.201 11.3125ZM379.135 11.3057C379.928 11.3058 380.571 11.9491 380.571 12.7422C380.571 13.5352 379.928 14.1785 379.135 14.1787C378.342 14.1787 377.698 13.5353 377.698 12.7422C377.698 11.949 378.342 11.3057 379.135 11.3057ZM184.312 11.2559C185.104 11.2559 185.748 11.8995 185.748 12.6924C185.748 13.4855 185.105 14.1289 184.312 14.1289C183.518 14.1289 182.875 13.4855 182.875 12.6924C182.875 11.8994 183.519 11.2559 184.312 11.2559ZM228.513 11.1367C229.306 11.1368 229.949 11.7801 229.949 12.5732C229.949 13.3663 229.306 14.0097 228.513 14.0098C227.72 14.0096 227.076 13.3662 227.076 12.5732C227.076 11.7802 227.72 11.1369 228.513 11.1367ZM272.623 11.0801C273.416 11.0802 274.06 11.7235 274.06 12.5166C274.06 13.3097 273.416 13.953 272.623 13.9531C271.83 13.9531 271.187 13.3097 271.187 12.5166C271.187 11.7234 271.83 11.0801 272.623 11.0801ZM316.768 10.9912C317.561 10.9912 318.204 11.6346 318.204 12.4277C318.204 13.2206 317.561 13.8642 316.768 13.8643C315.975 13.864 315.331 13.2205 315.331 12.4277C315.331 11.6347 315.975 10.9915 316.768 10.9912ZM360.878 10.9346C361.671 10.9346 362.314 11.578 362.314 12.3711C362.314 13.1641 361.671 13.8076 360.878 13.8076C360.085 13.8076 359.442 13.1641 359.441 12.3711C359.441 11.5779 360.085 10.9346 360.878 10.9346ZM405.15 10.7627C405.943 10.763 406.587 11.4062 406.587 12.1992C406.587 12.9922 405.943 13.6355 405.15 13.6357C404.357 13.6357 403.714 12.9924 403.714 12.1992C403.714 11.4061 404.357 10.7627 405.15 10.7627ZM28.6484 9.28613C29.4413 9.28635 30.0847 9.92982 30.085 10.7227C30.0849 11.5157 29.4414 12.159 28.6484 12.1592C27.8553 12.1592 27.2119 11.5158 27.2119 10.7227C27.2122 9.92969 27.8554 9.28613 28.6484 9.28613ZM72.7607 9.23047C73.5537 9.2307 74.1973 9.87396 74.1973 10.667C74.1971 11.4599 73.5536 12.1033 72.7607 12.1035C71.9676 12.1035 71.3244 11.4601 71.3242 10.667C71.3242 9.87382 71.9676 9.23047 72.7607 9.23047ZM116.903 9.14062C117.696 9.14074 118.34 9.78419 118.34 10.5771C118.34 11.3702 117.696 12.0136 116.903 12.0137C116.11 12.0137 115.467 11.3703 115.467 10.5771C115.467 9.78411 116.11 9.14062 116.903 9.14062ZM161.016 9.08398C161.809 9.08415 162.452 9.72765 162.452 10.5205C162.452 11.3136 161.809 11.9569 161.016 11.957C160.222 11.957 159.579 11.3137 159.579 10.5205C159.579 9.72754 160.223 9.08398 161.016 9.08398ZM205.215 8.96484C206.008 8.96503 206.651 9.60831 206.651 10.4014C206.651 11.1943 206.008 11.8377 205.215 11.8379C204.422 11.8379 203.779 11.1944 203.778 10.4014C203.778 9.60819 204.422 8.96484 205.215 8.96484ZM249.327 8.9082C250.12 8.90837 250.764 9.55169 250.764 10.3447C250.764 11.1378 250.12 11.7811 249.327 11.7812C248.534 11.7812 247.891 11.1379 247.891 10.3447C247.891 9.55158 248.534 8.9082 249.327 8.9082ZM293.472 8.81934C294.265 8.81937 294.908 9.46271 294.908 10.2559C294.908 11.0488 294.265 11.6924 293.472 11.6924C292.679 11.6922 292.035 11.0487 292.035 10.2559C292.035 9.4628 292.679 8.81953 293.472 8.81934ZM337.582 8.7627C338.375 8.76278 339.019 9.40609 339.019 10.1992C339.018 10.9922 338.375 11.6357 337.582 11.6357C336.789 11.6357 336.146 10.9922 336.146 10.1992C336.146 9.40605 336.789 8.7627 337.582 8.7627ZM49.2266 8.74316C50.0196 8.7432 50.6628 9.38675 50.6631 10.1797C50.6631 10.9728 50.0197 11.6162 49.2266 11.6162C48.4336 11.616 47.7901 10.9727 47.79 10.1797C47.7903 9.38687 48.4337 8.74338 49.2266 8.74316ZM93.3369 8.6875C94.1301 8.68754 94.7734 9.33087 94.7734 10.124C94.7733 10.917 94.13 11.5605 93.3369 11.5605C92.5438 11.5605 91.9005 10.9171 91.9004 10.124C91.9004 9.33085 92.5437 8.6875 93.3369 8.6875ZM137.482 8.59766C138.275 8.59791 138.919 9.24129 138.919 10.0342C138.919 10.8272 138.275 11.4704 137.482 11.4707C136.689 11.4707 136.046 10.8273 136.046 10.0342C136.046 9.24113 136.689 8.59766 137.482 8.59766ZM381.852 8.59082C382.645 8.59085 383.288 9.23422 383.288 10.0273C383.288 10.8205 382.645 11.4638 381.852 11.4639C381.058 11.4638 380.415 10.8204 380.415 10.0273C380.415 9.23426 381.058 8.59091 381.852 8.59082ZM181.592 8.54199C182.385 8.54202 183.028 9.18536 183.028 9.97852C183.028 10.7714 182.385 11.415 181.592 11.415C180.799 11.415 180.156 10.7714 180.155 9.97852C180.155 9.18539 180.799 8.54207 181.592 8.54199ZM225.793 8.42188C226.586 8.42191 227.229 9.06524 227.229 9.8584C227.229 10.6514 226.586 11.2949 225.793 11.2949C225 11.2947 224.357 10.6513 224.356 9.8584C224.356 9.06539 225 8.42214 225.793 8.42188ZM269.903 8.36523C270.696 8.36529 271.34 9.00863 271.34 9.80176C271.34 10.5949 270.696 11.2382 269.903 11.2383C269.11 11.2383 268.467 10.5949 268.467 9.80176C268.467 9.0086 269.11 8.36523 269.903 8.36523ZM314.049 8.27637C314.842 8.27663 315.485 8.91988 315.485 9.71289C315.485 10.5057 314.842 11.1492 314.049 11.1494C313.256 11.1494 312.613 10.5058 312.612 9.71289C312.612 8.91972 313.256 8.27637 314.049 8.27637ZM358.158 8.21973C358.951 8.21976 359.595 8.8631 359.595 9.65625C359.595 10.4493 358.951 11.0927 358.158 11.0928C357.365 11.0927 356.722 10.4492 356.722 9.65625C356.722 8.86313 357.365 8.21981 358.158 8.21973ZM402.431 8.04785C403.224 8.04802 403.867 8.69132 403.867 9.48438C403.867 10.2774 403.224 10.9207 402.431 10.9209C401.638 10.9209 400.994 10.2775 400.994 9.48438C400.994 8.69122 401.638 8.04785 402.431 8.04785ZM31.2217 6.74316C32.0148 6.74319 32.6581 7.38659 32.6582 8.17969C32.6582 8.97282 32.0148 9.61618 31.2217 9.61621C30.4286 9.61609 29.7852 8.97276 29.7852 8.17969C29.7852 7.38665 30.4287 6.74329 31.2217 6.74316ZM75.332 6.68652C76.1249 6.68666 76.7683 7.33018 76.7686 8.12305C76.7685 8.91611 76.1251 9.55943 75.332 9.55957C74.5389 9.55957 73.8955 8.91619 73.8955 8.12305C73.8958 7.33009 74.539 6.68652 75.332 6.68652ZM119.477 6.59766C120.27 6.59769 120.913 7.24103 120.913 8.03418C120.913 8.8273 120.27 9.47067 119.477 9.4707C118.684 9.47047 118.04 8.82718 118.04 8.03418C118.04 7.24115 118.684 6.59789 119.477 6.59766ZM163.587 6.54102C164.38 6.54107 165.023 7.18447 165.023 7.97754C165.023 8.77065 164.38 9.41401 163.587 9.41406C162.794 9.41406 162.15 8.77069 162.15 7.97754C162.15 7.18443 162.794 6.54102 163.587 6.54102ZM207.788 6.4209C208.581 6.42093 209.224 7.06444 209.225 7.85742C209.225 8.65055 208.581 9.29391 207.788 9.29395C206.995 9.29378 206.352 8.65047 206.352 7.85742C206.352 7.06453 206.995 6.42107 207.788 6.4209ZM251.898 6.36523C252.692 6.3653 253.335 7.00862 253.335 7.80176C253.335 8.59475 252.691 9.23822 251.898 9.23828C251.105 9.23828 250.462 8.59479 250.462 7.80176C250.462 7.00858 251.105 6.36523 251.898 6.36523ZM296.044 6.27539C296.837 6.27567 297.48 6.91899 297.48 7.71191C297.48 8.50489 296.837 9.14816 296.044 9.14844C295.251 9.14844 294.607 8.50506 294.607 7.71191C294.608 6.91882 295.251 6.27539 296.044 6.27539ZM340.156 6.21875C340.949 6.21903 341.593 6.86245 341.593 7.65527C341.593 8.44825 340.949 9.09152 340.156 9.0918C339.363 9.0918 338.72 8.44842 338.72 7.65527C338.72 6.86228 339.363 6.21875 340.156 6.21875ZM46.6533 6.2002C47.4463 6.20032 48.0898 6.8437 48.0898 7.63672C48.0898 8.42979 47.4464 9.07312 46.6533 9.07324C45.8602 9.07324 45.2168 8.42987 45.2168 7.63672C45.2169 6.84362 45.8602 6.2002 46.6533 6.2002ZM90.7627 6.14355C91.5557 6.14358 92.199 6.78713 92.1992 7.58008C92.1992 8.37321 91.5558 9.01657 90.7627 9.0166C89.9697 9.0164 89.3262 8.3731 89.3262 7.58008C89.3264 6.78723 89.9698 6.14376 90.7627 6.14355ZM134.908 6.05469C135.701 6.05473 136.345 6.69806 136.345 7.49121C136.345 8.28431 135.701 8.92769 134.908 8.92773C134.115 8.92773 133.472 8.28434 133.472 7.49121C133.472 6.69804 134.115 6.05469 134.908 6.05469ZM384.426 6.04785C385.219 6.04805 385.862 6.69132 385.862 7.48438C385.862 8.27729 385.219 8.9207 384.426 8.9209C383.633 8.9209 382.989 8.27741 382.989 7.48438C382.989 6.6912 383.633 6.04785 384.426 6.04785ZM179.021 5.99805C179.814 5.99811 180.457 6.64151 180.457 7.43457C180.457 8.22768 179.814 8.87104 179.021 8.87109C178.227 8.87109 177.584 8.22772 177.584 7.43457C177.584 6.64148 178.227 5.99805 179.021 5.99805ZM223.22 5.87598C224.013 5.87605 224.656 6.5194 224.656 7.3125C224.656 8.1056 224.013 8.74895 223.22 8.74902C222.427 8.74902 221.783 8.10565 221.783 7.3125C221.783 6.51936 222.427 5.87598 223.22 5.87598ZM267.332 5.82227C268.125 5.82242 268.769 6.46571 268.769 7.25879C268.768 8.05171 268.125 8.69516 267.332 8.69531C266.539 8.69531 265.896 8.05181 265.896 7.25879C265.896 6.46562 266.539 5.82227 267.332 5.82227ZM311.477 5.73242C312.27 5.73245 312.913 6.37589 312.913 7.16895C312.913 7.96207 312.27 8.60544 311.477 8.60547C310.684 8.60526 310.04 7.96197 310.04 7.16895C310.04 6.37599 310.684 5.73263 311.477 5.73242ZM355.587 5.67578C356.38 5.67581 357.023 6.31934 357.023 7.1123C357.023 7.90544 356.38 8.5488 355.587 8.54883C354.794 8.54883 354.15 7.90546 354.15 7.1123C354.151 6.31932 354.794 5.67578 355.587 5.67578ZM399.856 5.50488C400.65 5.50491 401.293 6.14825 401.293 6.94141C401.293 7.73441 400.649 8.3779 399.856 8.37793C399.063 8.37787 398.42 7.73439 398.42 6.94141C398.42 6.14827 399.063 5.50494 399.856 5.50488ZM33.9512 3.92773C34.7442 3.92792 35.3877 4.5712 35.3877 5.36426C35.3875 6.15713 34.744 6.80059 33.9512 6.80078C33.1581 6.80078 32.5149 6.15724 32.5146 5.36426C32.5146 4.57108 33.158 3.92773 33.9512 3.92773ZM78.0605 3.87109C78.8537 3.87112 79.4971 4.51446 79.4971 5.30762C79.497 6.10074 78.8537 6.74411 78.0605 6.74414C77.2675 6.74401 76.6241 6.10068 76.624 5.30762C76.624 4.51452 77.2675 3.87122 78.0605 3.87109ZM122.206 3.78125C122.999 3.78134 123.642 4.42487 123.643 5.21777C123.643 6.01087 122.999 6.6542 122.206 6.6543C121.413 6.6543 120.77 6.01092 120.77 5.21777C120.77 4.42482 121.413 3.78125 122.206 3.78125ZM166.318 3.72559C167.111 3.72573 167.755 4.36903 167.755 5.16211C167.755 5.95501 167.111 6.59849 166.318 6.59863C165.525 6.59863 164.882 5.9551 164.882 5.16211C164.882 4.36893 165.525 3.72559 166.318 3.72559ZM210.518 3.60547C211.311 3.60563 211.954 4.24892 211.954 5.04199C211.954 5.83499 211.311 6.47836 210.518 6.47852C209.724 6.47852 209.081 5.83509 209.081 5.04199C209.081 4.24882 209.724 3.60547 210.518 3.60547ZM254.63 3.54883C255.423 3.54897 256.066 4.19237 256.066 4.98535C256.066 5.77841 255.423 6.42173 254.63 6.42188C253.837 6.42188 253.193 5.7785 253.193 4.98535C253.193 4.19228 253.837 3.54883 254.63 3.54883ZM298.772 3.45996C299.566 3.46 300.209 4.10334 300.209 4.89648C300.209 5.68946 299.565 6.33297 298.772 6.33301C297.979 6.33301 297.336 5.68949 297.336 4.89648C297.336 4.10331 297.979 3.45996 298.772 3.45996ZM342.885 3.40332C343.678 3.40338 344.321 4.04671 344.321 4.83984C344.321 5.63291 343.678 6.27631 342.885 6.27637C342.092 6.27637 341.448 5.63295 341.448 4.83984C341.448 4.04667 342.092 3.40332 342.885 3.40332ZM43.9238 3.38477C44.717 3.3848 45.3604 4.02813 45.3604 4.82129C45.3602 5.61429 44.7169 6.25778 43.9238 6.25781C43.1309 6.25762 42.4875 5.61419 42.4873 4.82129C42.4873 4.02824 43.1308 3.38496 43.9238 3.38477ZM88.0342 3.32812C88.8273 3.32821 89.4707 3.97152 89.4707 4.76465C89.4706 5.55771 88.8272 6.20109 88.0342 6.20117C87.2411 6.20117 86.5977 5.55776 86.5977 4.76465C86.5977 3.97148 87.241 3.32812 88.0342 3.32812ZM132.18 3.23828C132.972 3.23856 133.616 3.88202 133.616 4.6748C133.616 5.46778 132.973 6.11105 132.18 6.11133C131.387 6.11133 130.743 5.46796 130.743 4.6748C130.743 3.88184 131.387 3.23828 132.18 3.23828ZM387.154 3.23145C387.947 3.23148 388.591 3.87493 388.591 4.66797C388.591 5.4611 387.947 6.10446 387.154 6.10449C386.361 6.1044 385.718 5.46106 385.718 4.66797C385.718 3.87496 386.361 3.23153 387.154 3.23145ZM176.289 3.18262C177.082 3.18265 177.726 3.82599 177.726 4.61914C177.725 5.41214 177.082 6.05563 176.289 6.05566C175.496 6.05564 174.853 5.41215 174.853 4.61914C174.853 3.82598 175.496 3.18264 176.289 3.18262ZM220.49 3.0625C221.283 3.06253 221.927 3.70587 221.927 4.49902C221.927 5.29212 221.283 5.93552 220.49 5.93555C219.697 5.93532 219.054 5.292 219.054 4.49902C219.054 3.70599 219.697 3.06272 220.49 3.0625ZM264.601 3.00586C265.394 3.00592 266.037 3.64932 266.037 4.44238C266.037 5.2355 265.394 5.87885 264.601 5.87891C263.807 5.87891 263.164 5.23553 263.164 4.44238C263.164 3.64928 263.807 3.00586 264.601 3.00586ZM308.746 2.91699C309.539 2.91724 310.183 3.56049 310.183 4.35352C310.182 5.14639 309.539 5.78979 308.746 5.79004C307.953 5.79004 307.31 5.14654 307.31 4.35352C307.31 3.56034 307.953 2.91699 308.746 2.91699ZM352.858 2.86035C353.651 2.86065 354.295 3.50388 354.295 4.29688C354.295 5.08983 353.651 5.7331 352.858 5.7334C352.065 5.7334 351.422 5.09001 351.422 4.29688C351.422 3.5037 352.065 2.86035 352.858 2.86035ZM397.128 2.68848C397.921 2.68866 398.564 3.33204 398.564 4.125C398.564 4.91804 397.921 5.56134 397.128 5.56152C396.335 5.56152 395.691 4.91815 395.691 4.125C395.692 3.33193 396.335 2.68848 397.128 2.68848Z" fill="var(--fill-0, #2E365A)"/>
</g>
<defs>
<clipPath id="clip0_60_537">
<rect width="432.489" height="48" fill="white"/>
</clipPath>
</defs>
</svg>
