<svg preserveAspectRatio="none" width="100%" height="100%" overflow="visible" style="display: block;" viewBox="0 0 74.6377 40" fill="none" xmlns="http://www.w3.org/2000/svg">
<g id="&#230;&#160;&#135;&#233;&#162;&#152;&#232;&#163;&#133;&#233;&#165;&#176;&#239;&#188;&#136;&#229;&#143;&#179;&#232;&#190;&#185;&#239;&#188;&#137;">
<mask id="path-1-inside-1_60_68" fill="white">
<path d="M0 0H74.6377V40H0V0Z"/>
</mask>
<path d="M0 0V1H74.6377V0V-1H0V0ZM74.6377 40V39H0V40V41H74.6377V40Z" fill="var(--stroke-0, white)" mask="url(#path-1-inside-1_60_68)"/>
<path id="Union" d="M21.1699 28.3906L21.1514 28.3994L21.1543 28.4053L14.4014 32L14.3936 31.9863L14.3916 31.9883L11.9443 27.3916L13.4561 26.5869L15.1055 29.6855L18.8564 27.6875L13.9434 18.459L15.4541 17.6543L21.1699 28.3906ZM5.30762 22.0908L2.37012 24.0156L4.7002 27.5703L13.4453 21.8389L14.3838 23.2705L4.21094 29.9385L4.19727 29.918L4.19434 29.9209L0 23.5225L1.43164 22.584L4.36914 20.6592L5.30762 22.0908ZM9.77051 8.01367H9.77148L11.916 12.7588L10.3555 13.4639L8.90918 10.2646L5.03613 12.0146L9.34375 21.5449L7.7832 22.25L2.77441 11.166L2.79492 11.1562L2.79297 11.1514L9.76465 8L9.77051 8.01367ZM20.1416 10.9668L20.1465 10.9648L23.5459 17.8193L23.5342 17.8242L23.5361 17.8281L18.8701 20.1416L18.1094 18.6084L21.2529 17.0488L19.3643 13.2412L9.99805 17.8877L9.2373 16.3535L20.1338 10.9492L20.1416 10.9668Z" fill="var(--fill-0, white)"/>
<path id="Union_2" d="M46.7158 28.3906L46.6973 28.3994L46.7002 28.4053L39.9473 32L39.9395 31.9863L39.9375 31.9883L37.4902 27.3916L39.002 26.5869L40.6514 29.6855L44.4023 27.6885L39.4893 18.459L41 17.6543L46.7158 28.3906ZM30.8535 22.0908L27.916 24.0156L30.2461 27.5703L38.9912 21.8389L39.9297 23.2705L29.7568 29.9385L29.7432 29.918L29.7402 29.9209L25.5459 23.5225L26.9775 22.584L29.915 20.6592L30.8535 22.0908ZM35.3164 8.01367H35.3174L37.4619 12.7588L35.9023 13.4639L34.4551 10.2637L30.583 12.0146L34.8896 21.5449L33.3301 22.25L28.3203 11.166L28.3408 11.1562L28.3389 11.1514L35.3105 8L35.3164 8.01367ZM45.6875 10.9668L45.6924 10.9648L49.0918 17.8193L49.0801 17.8242L49.082 17.8281L44.416 20.1416L43.6553 18.6084L46.7988 17.0488L44.9102 13.2412L35.5439 17.8877L34.7832 16.3535L45.6797 10.9492L45.6875 10.9668Z" fill="var(--fill-0, white)"/>
<path id="Union_3" d="M72.2617 28.3906L72.2432 28.3994L72.2461 28.4053L65.4932 32L65.4854 31.9863L65.4834 31.9883L63.0361 27.3916L64.5479 26.5869L66.1973 29.6855L69.9482 27.6885L65.0352 18.459L66.5459 17.6543L72.2617 28.3906ZM56.3994 22.0908L53.4619 24.0156L55.792 27.5703L64.5371 21.8389L65.4756 23.2705L55.3027 29.9385L55.2891 29.918L55.2861 29.9209L51.0918 23.5225L52.5234 22.584L55.4609 20.6592L56.3994 22.0908ZM60.8623 8.01367H60.8633L63.0078 12.7588L61.4482 13.4639L60.001 10.2637L56.1289 12.0146L60.4355 21.5449L58.876 22.25L53.8662 11.166L53.8867 11.1562L53.8848 11.1514L60.8564 8L60.8623 8.01367ZM71.2334 10.9668L71.2383 10.9648L74.6377 17.8193L74.626 17.8242L74.6279 17.8281L69.9619 20.1416L69.2012 18.6084L72.3447 17.0488L70.4561 13.2412L61.0898 17.8877L60.3291 16.3535L71.2256 10.9492L71.2334 10.9668Z" fill="var(--fill-0, white)"/>
</g>
</svg>
