<svg preserveAspectRatio="none" width="100%" height="100%" overflow="visible" style="display: block;" viewBox="0 0 1954.83 28" fill="none" xmlns="http://www.w3.org/2000/svg">
<g id="&#231;&#186;&#185;&#231;&#144;&#134;" clip-path="url(#clip0_60_20)">
<path id="Vector" d="M55.7532 21.9984V13.7476H49.7516V21.9984H38.4663L38.2195 1.90735e-06H0V6.0016H14.9984V13.9551H21V6.0016H32.2853L32.5377 28H71.75V21.9984H55.7532Z" fill="var(--fill-0, #E1BA1D)"/>
<path id="Vector_2" d="M109.554 21.9984V13.7476H103.553V21.9984H92.2676L92.0152 4.00543e-05H53.8013V6.00164H68.7997V13.9552H74.8013V6.00164H86.0865L86.3333 28H125.551V21.9984H109.554Z" fill="var(--fill-0, #E1BA1D)"/>
<path id="Vector_3" d="M163.356 21.9984V13.7532H157.354V21.9984H146.075L145.822 4.00543e-05H107.603V6.00164H122.607V13.9552H128.603V6.00164H139.888L140.14 28H179.358V21.9984H163.356Z" fill="var(--fill-0, #E1BA1D)"/>
<path id="Vector_4" d="M217.163 21.9984V13.7476H211.161V21.9984H199.876L199.629 4.00543e-05H161.409V6.00164H176.408V13.9552H182.409V6.00164H193.695L193.947 28H233.159V21.9984H217.163Z" fill="var(--fill-0, #E1BA1D)"/>
<path id="Vector_5" d="M270.964 21.9984V13.7476H264.962V21.9984H253.677L253.425 4.00543e-05H215.211V6.00164H230.209V13.9552H236.211V6.00164H247.496L247.743 28H286.961V21.9984H270.964Z" fill="var(--fill-0, #E1BA1D)"/>
<path id="Vector_6" d="M324.765 22.004V13.7532H318.764V22.004H307.484L307.232 4.00543e-05H269.012V6.00164H284.016V13.9552H290.012V6.00164H301.297L301.55 28H340.768V22.004H324.765Z" fill="var(--fill-0, #E1BA1D)"/>
<path id="Vector_7" d="M378.572 21.9984V13.7476H372.57V21.9984H361.285L361.038 4.00543e-05H322.819V5.99603H337.817V13.9496H343.819V5.99603H355.104L355.357 28H394.569V21.9984H378.572Z" fill="var(--fill-0, #E1BA1D)"/>
<path id="Vector_8" d="M432.373 21.9984V13.7476H426.372V21.9984H415.086L414.834 4.00543e-05H376.62V5.99603H391.619V13.9496H397.62V5.99603H408.905L409.152 28H448.37V21.9984H432.373Z" fill="var(--fill-0, #E1BA1D)"/>
<path id="Vector_9" d="M486.175 21.9984V13.7476H480.173V21.9984H468.893L468.641 4.00543e-05H430.421V6.00164H445.425V13.9552H451.421V6.00164H462.707L462.959 28H502.177V21.9984H486.175Z" fill="var(--fill-0, #E1BA1D)"/>
<path id="Vector_10" d="M539.981 21.9984V13.7476H533.98V21.9984H522.695L522.448 4.00543e-05H484.228V5.99603H499.227V13.9496H505.228V5.99603H516.514L516.766 28H555.978V21.9984H539.981Z" fill="var(--fill-0, #E1BA1D)"/>
<path id="Vector_11" d="M593.783 21.9984V13.7476H587.781V21.9984H576.496L576.244 4.00543e-05H538.03V5.99603H553.028V13.9496H559.03V5.99603H570.315L570.562 28H609.78V21.9984H593.783Z" fill="var(--fill-0, #E1BA1D)"/>
<path id="Vector_12" d="M647.584 21.9984V13.7476H641.583V21.9984H630.303L630.05 4.00543e-05H591.831V6.00164H606.835V13.9552H612.831V6.00164H624.116L624.369 28H663.587V21.9984H647.584Z" fill="var(--fill-0, #E1BA1D)"/>
<path id="Vector_13" d="M701.385 22.004V13.7532H695.389V22.004H684.104L683.852 4.00543e-05H645.638V6.00164H660.636V13.9552H666.638V6.00164H677.923L678.17 28H717.388V22.004H701.385Z" fill="var(--fill-0, #E1BA1D)"/>
<path id="Vector_14" d="M755.192 22.004V13.7532H749.191V22.004H737.911L737.659 4.00543e-05H699.439V6.00164H714.443V13.9552H720.439V6.00164H731.724L731.977 28H771.195V22.004H755.192Z" fill="var(--fill-0, #E1BA1D)"/>
<path id="Vector_15" d="M808.999 22.004V13.7532H802.998V22.004H791.712L791.466 4.00543e-05H753.246V6.00164H768.244V13.9552H774.246V6.00164H785.531L785.778 28H824.996V22.004H808.999Z" fill="var(--fill-0, #E1BA1D)"/>
<path id="Vector_16" d="M862.795 21.9984V13.7476H856.799V21.9984H845.514L845.261 4.00543e-05H807.047V5.99603H822.046V13.9496H828.047V5.99603H839.327L839.579 28H878.797V21.9984H862.795Z" fill="var(--fill-0, #E1BA1D)"/>
<path id="Vector_17" d="M916.602 21.9984V13.7476H910.6V21.9984H899.321L899.068 4.00543e-05H860.849V5.99603H875.853V13.9496H881.849V5.99603H893.134L893.386 28H932.604V21.9984H916.602Z" fill="var(--fill-0, #E1BA1D)"/>
<path id="Vector_18" d="M970.409 21.9984V13.7476H964.407V21.9984H953.122L952.869 4.00543e-05H914.655V6.00164H929.654V13.9552H935.655V6.00164H946.941L947.187 28H986.405V21.9984H970.409Z" fill="var(--fill-0, #E1BA1D)"/>
<path id="Vector_19" d="M1024.2 21.9984V13.7476H1018.21V21.9984H1006.92L1006.67 4.00543e-05H968.457V6.00164H983.455V13.9552H989.457V6.00164H1000.74L1000.99 28H1040.21V21.9984H1024.2Z" fill="var(--fill-0, #E1BA1D)"/>
<path id="Vector_20" d="M1078.01 21.9984V13.7476H1072.01V21.9984H1060.73L1060.48 9.53674e-07H1022.26V6.0016H1037.26V13.9551H1043.26V6.0016H1054.54L1054.8 28H1094.01V21.9984H1078.01Z" fill="var(--fill-0, #E1BA1D)"/>
<path id="Vector_21" d="M1131.82 21.9984V13.7532H1125.82V21.9984H1114.53L1114.28 4.00543e-05H1076.06V6.00164H1091.06V13.9552H1097.06V6.00164H1108.35L1108.6 28H1147.81V21.9984H1131.82Z" fill="var(--fill-0, #E1BA1D)"/>
<path id="Vector_22" d="M1185.62 21.9984V13.7532H1179.62V21.9984H1168.33L1168.09 4.00543e-05H1129.87V6.00164H1144.86V13.9552H1150.87V6.00164H1162.15L1162.4 28H1201.62V21.9984H1185.62Z" fill="var(--fill-0, #E1BA1D)"/>
<path id="Vector_23" d="M1239.42 21.9984V13.7532H1233.42V21.9984H1222.13L1221.89 9.53674e-07H1183.67V6.0016H1198.67V13.9551H1204.67V6.0016H1215.95L1216.2 28H1255.42V21.9984H1239.42Z" fill="var(--fill-0, #E1BA1D)"/>
<path id="Vector_24" d="M1293.22 21.9984V13.7532H1287.22V21.9984H1275.94L1275.69 9.53674e-07H1237.47V6.0016H1252.47V13.9551H1258.47V6.0016H1269.75L1270 28H1309.22V21.9984H1293.22Z" fill="var(--fill-0, #E1BA1D)"/>
<path id="Vector_25" d="M1347.02 21.9984V13.7532H1341.02V21.9984H1329.74L1329.49 9.53674e-07H1291.27V6.0016H1306.27V13.9551H1312.27V6.0016H1323.56L1323.8 28H1363.02V21.9984H1347.02Z" fill="var(--fill-0, #E1BA1D)"/>
<path id="Vector_26" d="M1400.82 21.9984V13.7532H1394.82V21.9984H1383.54L1383.29 9.53674e-07H1345.07V6.0016H1360.07V13.9551H1366.07V6.0016H1377.36L1377.6 28H1416.82V21.9984H1400.82Z" fill="var(--fill-0, #E1BA1D)"/>
<path id="Vector_27" d="M1454.63 21.9984V13.7532H1448.62V21.9984H1437.34L1437.09 9.53674e-07H1398.87V6.0016H1413.87V13.9551H1419.87V6.0016H1431.16L1431.4 28H1470.62V21.9984H1454.63Z" fill="var(--fill-0, #E1BA1D)"/>
<path id="Vector_28" d="M1508.43 21.9984V13.7532H1502.43V21.9984H1491.14L1490.89 9.53674e-07H1452.67V6.0016H1467.67V13.9551H1473.67V6.0016H1484.96L1485.21 28H1524.42V21.9984H1508.43Z" fill="var(--fill-0, #E1BA1D)"/>
<path id="Vector_29" d="M1562.23 21.9984V13.7532H1556.23V21.9984H1544.94L1544.69 9.53674e-07H1506.48V6.0016H1521.47V13.9551H1527.48V6.0016H1538.76L1539.01 28H1578.23V21.9984H1562.23Z" fill="var(--fill-0, #E1BA1D)"/>
<path id="Vector_30" d="M1616.03 21.9984V13.7532H1610.03V21.9984H1598.74L1598.5 9.53674e-07H1560.28V6.0016H1575.28V13.9551H1581.28V6.0016H1592.56L1592.81 28H1632.03V21.9984H1616.03Z" fill="var(--fill-0, #E1BA1D)"/>
<path id="Vector_31" d="M1669.83 21.9984V13.7532H1663.83V21.9984H1652.54L1652.3 9.53674e-07H1614.08V6.0016H1629.08V13.9551H1635.08V6.0016H1646.36L1646.61 28H1685.83V21.9984H1669.83Z" fill="var(--fill-0, #E1BA1D)"/>
<path id="Vector_32" d="M1723.63 21.9984V13.7532H1717.63V21.9984H1706.35L1706.1 9.53674e-07H1667.88V6.0016H1682.88V13.9551H1688.88V6.0016H1700.16L1700.41 28H1739.63V21.9984H1723.63Z" fill="var(--fill-0, #E1BA1D)"/>
<path id="Vector_33" d="M1777.43 21.9984V13.7532H1771.43V21.9984H1760.15L1759.9 9.53674e-07H1721.68V6.0016H1736.68V13.9551H1742.68V6.0016H1753.97L1754.21 28H1793.43V21.9984H1777.43Z" fill="var(--fill-0, #E1BA1D)"/>
<path id="Vector_34" d="M1831.23 21.9984V13.7532H1825.23V21.9984H1813.95L1813.7 9.53674e-07H1775.48V6.0016H1790.48V13.9551H1796.48V6.0016H1807.77L1808.01 28H1847.23V21.9984H1831.23Z" fill="var(--fill-0, #E1BA1D)"/>
<path id="Vector_35" d="M1885.04 21.9984V13.7532H1879.03V21.9984H1867.75L1867.5 9.53674e-07H1829.28V6.0016H1844.28V13.9551H1850.28V6.0016H1861.57L1861.82 28H1901.03V21.9984H1885.04Z" fill="var(--fill-0, #E1BA1D)"/>
<path id="Vector_36" d="M1938.84 21.9984V13.7532H1932.84V21.9984H1921.55L1921.3 0H1883.08V6.0016H1898.08V13.9551H1904.08V6.0016H1915.37L1915.62 28H1954.83V21.9984H1938.84Z" fill="var(--fill-0, #E1BA1D)"/>
</g>
<defs>
<clipPath id="clip0_60_20">
<rect width="1954.83" height="28" fill="white"/>
</clipPath>
</defs>
</svg>
