<svg preserveAspectRatio="none" width="100%" height="100%" overflow="visible" style="display: block;" viewBox="0 0 1934.79 28" fill="none" xmlns="http://www.w3.org/2000/svg">
<g id="&#231;&#186;&#185;&#231;&#144;&#134;" clip-path="url(#clip0_98_52)">
<path id="Vector" d="M55.7532 21.9984V13.7476H49.7516V21.9984H38.4663L38.2195 1.90735e-06H0V6.0016H14.9984V13.9551H21V6.0016H32.2853L32.5377 28H71.75V21.9984H55.7532Z" fill="var(--fill-0, #E1BA1D)" fill-opacity="0.48"/>
<path id="Vector_2" d="M107.503 21.9984V13.7476H101.502V21.9984H90.2163L89.9639 9.53674e-07H51.75V6.0016H66.7484V13.9551H72.75V6.0016H84.0352L84.282 28H123.5V21.9984H107.503Z" fill="var(--fill-0, #E1BA1D)" fill-opacity="0.48"/>
<path id="Vector_3" d="M159.253 21.9984V13.7532H153.252V21.9984H141.972L141.72 9.53674e-07H103.5V6.0016H118.504V13.9551H124.5V6.0016H135.785L136.038 28H175.256V21.9984H159.253Z" fill="var(--fill-0, #E1BA1D)" fill-opacity="0.48"/>
<path id="Vector_4" d="M211.009 21.9984V13.7476H205.007V21.9984H193.722L193.475 9.53674e-07H155.256V6.0016H170.254V13.9551H176.256V6.0016H187.541L187.793 28H227.006V21.9984H211.009Z" fill="var(--fill-0, #E1BA1D)" fill-opacity="0.48"/>
<path id="Vector_5" d="M262.759 21.9984V13.7476H256.757V21.9984H245.472L245.22 9.53674e-07H207.006V6.0016H222.004V13.9551H228.006V6.0016H239.291L239.538 28H278.756V21.9984H262.759Z" fill="var(--fill-0, #E1BA1D)" fill-opacity="0.48"/>
<path id="Vector_6" d="M314.509 22.004V13.7532H308.507V22.004H297.228L296.975 0H258.756V6.0016H273.76V13.9551H279.756V6.0016H291.041L291.293 28H330.511V22.004H314.509Z" fill="var(--fill-0, #E1BA1D)" fill-opacity="0.48"/>
<path id="Vector_7" d="M366.264 21.9984V13.7476H360.263V21.9984H348.978L348.731 9.53674e-07H310.511V5.99599H325.51V13.9495H331.511V5.99599H342.796L343.049 28H382.261V21.9984H366.264Z" fill="var(--fill-0, #E1BA1D)" fill-opacity="0.48"/>
<path id="Vector_8" d="M418.014 21.9984V13.7476H412.013V21.9984H400.727L400.475 9.53674e-07H362.261V5.99599H377.26V13.9495H383.261V5.99599H394.546L394.793 28H434.011V21.9984H418.014Z" fill="var(--fill-0, #E1BA1D)" fill-opacity="0.48"/>
<path id="Vector_9" d="M469.764 21.9984V13.7476H463.763V21.9984H452.483L452.231 0H414.011V6.0016H429.015V13.9551H435.011V6.0016H446.296L446.549 28H485.767V21.9984H469.764Z" fill="var(--fill-0, #E1BA1D)" fill-opacity="0.48"/>
<path id="Vector_10" d="M521.52 21.9984V13.7476H515.518V21.9984H504.233L503.986 0H465.767V5.99599H480.765V13.9495H486.767V5.99599H498.052L498.304 28H537.517V21.9984H521.52Z" fill="var(--fill-0, #E1BA1D)" fill-opacity="0.48"/>
<path id="Vector_11" d="M573.27 21.9984V13.7476H567.268V21.9984H555.983L555.731 0H517.517V5.99599H532.515V13.9495H538.517V5.99599H549.802L550.049 28H589.267V21.9984H573.27Z" fill="var(--fill-0, #E1BA1D)" fill-opacity="0.48"/>
<path id="Vector_12" d="M625.02 21.9984V13.7476H619.018V21.9984H607.739L607.486 0H569.267V6.0016H584.271V13.9551H590.267V6.0016H601.552L601.804 28H641.022V21.9984H625.02Z" fill="var(--fill-0, #E1BA1D)" fill-opacity="0.48"/>
<path id="Vector_13" d="M676.77 22.004V13.7532H670.774V22.004H659.489L659.236 9.53674e-07H621.022V6.0016H636.021V13.9551H642.022V6.0016H653.308L653.554 28H692.772V22.004H676.77Z" fill="var(--fill-0, #E1BA1D)" fill-opacity="0.48"/>
<path id="Vector_14" d="M728.526 22.004V13.7532H722.524V22.004H711.244L710.992 9.53674e-07H672.772V6.0016H687.776V13.9551H693.772V6.0016H705.058L705.31 28H744.528V22.004H728.526Z" fill="var(--fill-0, #E1BA1D)" fill-opacity="0.48"/>
<path id="Vector_15" d="M780.281 22.004V13.7532H774.28V22.004H762.994L762.748 9.53674e-07H724.528V6.0016H739.526V13.9551H745.528V6.0016H756.813L757.06 28H796.278V22.004H780.281Z" fill="var(--fill-0, #E1BA1D)" fill-opacity="0.48"/>
<path id="Vector_16" d="M832.026 21.9984V13.7476H826.03V21.9984H814.744L814.492 9.53674e-07H776.278V5.99599H791.276V13.9495H797.278V5.99599H808.558L808.81 28H848.028V21.9984H832.026Z" fill="var(--fill-0, #E1BA1D)" fill-opacity="0.48"/>
<path id="Vector_17" d="M883.781 21.9984V13.7476H877.78V21.9984H866.5L866.247 9.53674e-07H828.028V5.99599H843.032V13.9495H849.028V5.99599H860.313L860.566 28H899.784V21.9984H883.781Z" fill="var(--fill-0, #E1BA1D)" fill-opacity="0.48"/>
<path id="Vector_18" d="M935.537 21.9984V13.7476H929.535V21.9984H918.25L917.997 9.53674e-07H879.784V6.0016H894.782V13.9551H900.784V6.0016H912.069L912.316 28H951.534V21.9984H935.537Z" fill="var(--fill-0, #E1BA1D)" fill-opacity="0.48"/>
<path id="Vector_19" d="M987.281 21.9984V13.7476H981.285V21.9984H970L969.747 9.53674e-07H931.534V6.0016H946.532V13.9551H952.534V6.0016H963.819L964.066 28H1003.28V21.9984H987.281Z" fill="var(--fill-0, #E1BA1D)" fill-opacity="0.48"/>
<path id="Vector_20" d="M1039.04 21.9984V13.7476H1033.04V21.9984H1021.76L1021.5 9.53674e-07H983.284V6.0016H998.288V13.9551H1004.28V6.0016H1015.57L1015.82 28H1055.04V21.9984H1039.04Z" fill="var(--fill-0, #E1BA1D)" fill-opacity="0.48"/>
<path id="Vector_21" d="M1090.79 21.9984V13.7532H1084.79V21.9984H1073.51L1073.26 9.53674e-07H1035.04V6.0016H1050.04V13.9551H1056.04V6.0016H1067.32L1067.57 28H1106.79V21.9984H1090.79Z" fill="var(--fill-0, #E1BA1D)" fill-opacity="0.48"/>
<path id="Vector_22" d="M1142.54 21.9984V13.7532H1136.54V21.9984H1125.26L1125.01 9.53674e-07H1086.79V6.0016H1101.79V13.9551H1107.79V6.0016H1119.07L1119.32 28H1158.54V21.9984H1142.54Z" fill="var(--fill-0, #E1BA1D)" fill-opacity="0.48"/>
<path id="Vector_23" d="M1194.29 21.9984V13.7532H1188.29V21.9984H1177.01L1176.76 9.53674e-07H1138.54V6.0016H1153.54V13.9551H1159.54V6.0016H1170.82L1171.07 28H1210.29V21.9984H1194.29Z" fill="var(--fill-0, #E1BA1D)" fill-opacity="0.48"/>
<path id="Vector_24" d="M1246.04 21.9984V13.7532H1240.04V21.9984H1228.76L1228.51 9.53674e-07H1190.29V6.0016H1205.29V13.9551H1211.29V6.0016H1222.57L1222.82 28H1262.04V21.9984H1246.04Z" fill="var(--fill-0, #E1BA1D)" fill-opacity="0.48"/>
<path id="Vector_25" d="M1297.79 21.9984V13.7532H1291.79V21.9984H1280.51L1280.26 9.53674e-07H1242.04V6.0016H1257.04V13.9551H1263.04V6.0016H1274.32L1274.57 28H1313.79V21.9984H1297.79Z" fill="var(--fill-0, #E1BA1D)" fill-opacity="0.48"/>
<path id="Vector_26" d="M1349.54 21.9984V13.7532H1343.54V21.9984H1332.26L1332.01 9.53674e-07H1293.79V6.0016H1308.79V13.9551H1314.79V6.0016H1326.07L1326.32 28H1365.54V21.9984H1349.54Z" fill="var(--fill-0, #E1BA1D)" fill-opacity="0.48"/>
<path id="Vector_27" d="M1401.29 21.9984V13.7532H1395.29V21.9984H1384.01L1383.76 9.53674e-07H1345.54V6.0016H1360.54V13.9551H1366.54V6.0016H1377.82L1378.07 28H1417.29V21.9984H1401.29Z" fill="var(--fill-0, #E1BA1D)" fill-opacity="0.48"/>
<path id="Vector_28" d="M1453.04 21.9984V13.7532H1447.04V21.9984H1435.76L1435.51 9.53674e-07H1397.29V6.0016H1412.29V13.9551H1418.29V6.0016H1429.57L1429.82 28H1469.04V21.9984H1453.04Z" fill="var(--fill-0, #E1BA1D)" fill-opacity="0.48"/>
<path id="Vector_29" d="M1504.79 21.9984V13.7532H1498.79V21.9984H1487.51L1487.26 9.53674e-07H1449.04V6.0016H1464.04V13.9551H1470.04V6.0016H1481.32L1481.57 28H1520.79V21.9984H1504.79Z" fill="var(--fill-0, #E1BA1D)" fill-opacity="0.48"/>
<path id="Vector_30" d="M1556.54 21.9984V13.7532H1550.54V21.9984H1539.26L1539.01 9.53674e-07H1500.79V6.0016H1515.79V13.9551H1521.79V6.0016H1533.07L1533.32 28H1572.54V21.9984H1556.54Z" fill="var(--fill-0, #E1BA1D)" fill-opacity="0.48"/>
<path id="Vector_31" d="M1608.29 21.9984V13.7532H1602.29V21.9984H1591.01L1590.76 9.53674e-07H1552.54V6.0016H1567.54V13.9551H1573.54V6.0016H1584.82L1585.07 28H1624.29V21.9984H1608.29Z" fill="var(--fill-0, #E1BA1D)" fill-opacity="0.48"/>
<path id="Vector_32" d="M1660.04 21.9984V13.7532H1654.04V21.9984H1642.76L1642.51 9.53674e-07H1604.29V6.0016H1619.29V13.9551H1625.29V6.0016H1636.57L1636.82 28H1676.04V21.9984H1660.04Z" fill="var(--fill-0, #E1BA1D)" fill-opacity="0.48"/>
<path id="Vector_33" d="M1711.79 21.9984V13.7532H1705.79V21.9984H1694.51L1694.26 9.53674e-07H1656.04V6.0016H1671.04V13.9551H1677.04V6.0016H1688.32L1688.57 28H1727.79V21.9984H1711.79Z" fill="var(--fill-0, #E1BA1D)" fill-opacity="0.48"/>
<path id="Vector_34" d="M1763.54 21.9984V13.7532H1757.54V21.9984H1746.26L1746.01 9.53674e-07H1707.79V6.0016H1722.79V13.9551H1728.79V6.0016H1740.07L1740.32 28H1779.54V21.9984H1763.54Z" fill="var(--fill-0, #E1BA1D)" fill-opacity="0.48"/>
<path id="Vector_35" d="M1815.29 21.9984V13.7532H1809.29V21.9984H1798.01L1797.76 9.53674e-07H1759.54V6.0016H1774.54V13.9551H1780.54V6.0016H1791.82L1792.07 28H1831.29V21.9984H1815.29Z" fill="var(--fill-0, #E1BA1D)" fill-opacity="0.48"/>
<path id="Vector_36" d="M1867.04 21.9984V13.7532H1861.04V21.9984H1849.76L1849.51 9.53674e-07H1811.29V6.0016H1826.29V13.9551H1832.29V6.0016H1843.57L1843.82 28H1883.04V21.9984H1867.04Z" fill="var(--fill-0, #E1BA1D)" fill-opacity="0.48"/>
<path id="Vector_37" d="M1918.79 21.9984V13.7532H1912.79V21.9984H1901.51L1901.26 9.53674e-07H1863.04V6.0016H1878.04V13.9551H1884.04V6.0016H1895.32L1895.57 28H1934.79V21.9984H1918.79Z" fill="var(--fill-0, #E1BA1D)" fill-opacity="0.48"/>
</g>
<defs>
<clipPath id="clip0_98_52">
<rect width="1934.79" height="28" fill="white"/>
</clipPath>
</defs>
</svg>
