<svg preserveAspectRatio="none" width="100%" height="100%" overflow="visible" style="display: block;" viewBox="0 0 16 16" fill="none" xmlns="http://www.w3.org/2000/svg">
<g id="id-card-line">
<path id="Vector" d="M2 4H14V12H2V4ZM1.33333 2.66667C0.965147 2.66667 0.666667 2.96515 0.666667 3.33333V12.6667C0.666667 13.0349 0.965147 13.3333 1.33333 13.3333H14.6667C15.0349 13.3333 15.3333 13.0349 15.3333 12.6667V3.33333C15.3333 2.96515 15.0349 2.66667 14.6667 2.66667H1.33333ZM8.66667 5.33333H12.6667V6.66667H8.66667V5.33333ZM12 8H8.66667V9.33333H12V8ZM7 6.66667C7 7.58713 6.25381 8.33333 5.33333 8.33333C4.41286 8.33333 3.66667 7.58713 3.66667 6.66667C3.66667 5.74619 4.41286 5 5.33333 5C6.25381 5 7 5.74619 7 6.66667ZM5.33333 9C4.04467 9 3 10.0447 3 11.3333H7.66667C7.66667 10.0447 6.622 9 5.33333 9Z" fill="var(--fill-0, #6E6258)"/>
</g>
</svg>
