<svg preserveAspectRatio="none" width="100%" height="100%" overflow="visible" style="display: block;" viewBox="0 0 98.4356 101.647" fill="none" xmlns="http://www.w3.org/2000/svg">
<g id="logo">
<g id="Union">
<path fill-rule="evenodd" clip-rule="evenodd" d="M45.6357 0.13024C48.3433 -0.0705922 51.0513 -0.0392363 53.7571 0.224841C53.9477 0.183883 54.1318 0.193638 54.3087 0.255184C54.5768 0.23973 54.8217 0.2728 55.0423 0.35514L55.8259 0.45688L55.8241 0.462235C55.8425 0.464328 55.8584 0.466378 55.8705 0.472945L55.9008 0.494364C56.4895 0.570686 57.0144 0.643249 57.4733 0.712124L57.4787 0.713909L57.5358 0.735328L57.5412 0.737113C57.5486 0.741593 57.5555 0.748317 57.5644 0.756747C57.5656 0.757895 57.5663 0.760314 57.5679 0.762102L59.5974 1.09767C59.6253 1.09366 59.6511 1.09236 59.6724 1.09053C59.6946 1.08864 59.7224 1.08654 59.7473 1.09053C59.7578 1.09227 59.787 1.09809 59.8134 1.11909C59.8217 1.12575 59.8253 1.13837 59.833 1.14943C61.6656 1.56269 63.2733 1.99349 64.6559 2.4435C66.6158 3.08098 68.6352 3.92824 70.7121 4.98344C75.337 7.35509 79.4668 10.3355 83.0923 13.9259C84.1084 14.9317 85.1872 16.1175 86.3302 17.4779C88.3912 19.9288 90.2089 22.5446 91.7831 25.3244L92.4435 26.5257C93.2416 28.0291 93.9683 29.5697 94.6211 31.1433L94.5105 31.1879L94.6193 31.145C95.8587 34.1432 96.8082 37.2306 97.4663 40.407C98.3202 44.5222 98.6099 48.6818 98.3356 52.8836C98.39 53.1734 98.3711 53.4591 98.2802 53.7404C98.2125 54.6543 98.1298 55.4795 98.0285 56.216C97.3047 61.5032 95.8133 66.5849 93.5573 71.4593L93.4502 71.4093L93.5555 71.4611L92.0419 74.5258L91.942 74.474L92.0383 74.5275C87.9398 82.2141 82.3549 88.529 75.2851 93.4691C71.8567 95.8635 68.1151 97.7762 64.0615 99.2059L63.0012 99.5593C61.9365 99.8994 60.8595 100.199 59.7705 100.459C58.0593 100.868 56.3271 101.172 54.5764 101.369L52.7433 101.535C50.7782 101.69 48.8117 101.684 46.8459 101.517C46.6344 101.512 46.4042 101.498 46.1552 101.478L45.3394 101.394C43.6695 101.189 42.0859 100.919 40.5916 100.584L40.6183 100.466L40.6165 100.464V100.47L40.5916 100.584C39.1882 100.256 38.0436 99.9502 37.1663 99.6646C35.0638 98.9803 33.0149 98.1605 31.019 97.2068C30.7306 97.0688 30.4508 96.925 30.1801 96.7766C29.0481 96.208 27.9525 95.5915 26.8941 94.9256L26.048 94.3973C25.6872 94.1719 25.3037 93.9484 24.9539 93.6994C24.2538 93.2026 23.5533 92.7043 22.8548 92.2054C21.9513 91.5596 20.9312 90.7295 19.7919 89.7172L17.575 87.6896L17.6285 87.6307L17.5732 87.6878C15.17 85.3656 13.0005 82.8401 11.0672 80.1108L10.6031 79.4718C10.1507 78.8227 9.71927 78.1259 9.18943 77.2406C8.86041 76.7012 8.57769 76.1368 8.27555 75.5985C8.12192 75.3253 8.07239 75.0438 8.13455 74.7614L8.24521 74.7828L8.247 74.781L8.17381 74.6953C8.28651 74.5987 8.41782 74.5472 8.56293 74.549L9.56427 74.574C9.88078 74.5842 10.1784 74.592 10.4478 74.5829C11.0712 74.561 11.829 74.5511 12.72 74.5525C13.2492 74.5532 13.8863 74.4958 14.4764 74.4597C16.0482 74.3651 17.594 74.1324 19.1136 73.7636L19.7651 73.5958C20.5488 73.3578 21.348 73.1318 22.0801 72.8551C23.2915 72.3953 24.4786 71.8729 25.6393 71.2897C25.9522 71.1046 26.2702 70.9222 26.5942 70.7471C29.1646 69.3532 31.5225 67.7352 33.6643 65.8921C34.4317 65.2319 35.275 64.3915 35.9436 63.6931C38.7415 60.771 41.1182 57.2555 42.3122 53.5387C42.9805 51.4567 43.4429 49.4178 43.6991 47.4217C43.9135 45.7512 44.0469 43.8466 44.1007 41.71C44.1444 39.9918 44.1637 37.5322 44.1578 34.3293C44.1564 33.4418 44.209 32.7736 44.322 32.332C44.4998 31.6376 44.8181 31.0043 45.2752 30.4346L45.3644 30.5078L45.2823 30.4293C45.7693 29.9154 46.3257 29.5573 46.9512 29.3583C47.3152 29.2434 47.906 29.1857 48.7094 29.1798L51.2797 29.1781C52.0274 29.1827 52.6674 29.1934 53.1967 29.2084C53.7221 29.2227 54.191 29.4278 54.5996 29.8135C54.7795 29.9642 54.9176 30.1482 55.0155 30.365C55.1631 30.6387 55.2635 30.9447 55.3172 31.2807L55.2065 31.2985L55.2172 31.3003H55.3207L55.3243 41.9045L55.3332 44.7925C55.3412 45.9584 55.2935 47.1356 55.1904 48.3196L55.0209 50.4311L54.9352 50.424L55.0226 50.4365L54.6889 52.9907L54.5711 52.9746L54.6871 52.9943C54.4256 54.6572 54.0747 56.3329 53.5608 57.9421L53.2395 58.9827C53.1788 59.1848 53.1117 59.3803 53.036 59.5681L52.049 62.067C51.5823 63.2804 50.9433 64.3844 50.3622 65.4994L50.2569 65.4441L50.3586 65.5048C49.339 67.2531 48.1852 68.9098 46.8995 70.474C45.4382 72.2222 43.9662 73.7438 42.4854 75.0309C41.1475 76.1947 39.5744 77.3735 37.7696 78.5668L37.7036 78.4687L37.7642 78.5704L35.3724 80.0198L35.3118 79.918L35.3671 80.0233L33.0663 81.2281L33.011 81.1228L33.061 81.2317L31.0726 82.1277L31.0244 82.0207L31.0672 82.1295L30.1783 82.4829C29.2262 82.8549 28.2509 83.1826 27.26 83.4718L27.5777 83.7449L28.7022 84.6159L28.9557 84.7908L29.9945 85.4834L31.7116 86.5169L31.6509 86.6168L31.6527 86.6186L31.7116 86.5169C32.5761 87.0155 33.4634 87.4749 34.3693 87.893L34.8495 88.1126C37.1757 89.1562 39.606 89.9444 42.1337 90.4776C42.6173 90.5849 43.1059 90.6788 43.5974 90.7578C43.6555 90.7674 43.7095 90.7644 43.7812 90.7668C43.8468 90.769 43.9278 90.7761 44.0061 90.815L44.0168 90.8185C47.6299 91.3808 51.2579 91.4025 54.8995 90.8846C60.0873 90.1473 64.8915 88.3607 69.3109 85.5227C70.0122 85.0726 70.6912 84.596 71.3475 84.0965L71.4172 84.1893L71.3511 84.0947C71.9846 83.6487 72.5974 83.1443 73.1949 82.5883L72.472 82.4812L72.4881 82.3687L72.4649 82.4812C71.5658 82.289 70.6988 81.99 69.8661 81.5887C69.3271 81.3621 68.8062 81.1026 68.3078 80.8087C68.0135 80.6355 67.7309 80.4768 67.4618 80.3321C67.1716 80.1764 66.8875 80.0098 66.6104 79.8341L65.6876 79.2558L63.6456 77.9867C62.2816 77.1636 60.9309 76.3245 59.5938 75.4664C58.969 75.0656 58.454 74.7456 58.0499 74.5061C57.3421 74.086 56.7363 73.6838 55.9722 73.2424C55.0687 72.7192 54.1652 72.1925 53.2645 71.6628L52.2382 71.1005C51.4434 70.683 50.6999 70.264 49.8624 69.9742L49.9017 69.86L49.8607 69.9724C49.5381 69.8553 49.2128 69.7484 48.8861 69.6529C48.8397 69.6392 48.8017 69.6118 48.7754 69.5744C48.7734 69.5734 48.7703 69.5737 48.7683 69.5726L48.7022 69.5137C48.6812 69.4843 48.6753 69.452 48.6737 69.4298C48.6721 69.4069 48.6737 69.3835 48.6773 69.3638C48.7012 69.2413 48.7477 69.1244 48.8129 69.0175C50.22 66.7265 51.1701 65.0966 51.667 64.1268C52.3806 62.7346 53.1032 61.3574 53.8321 59.9965L53.9356 60.0501L53.8999 59.9412C54.1582 59.8565 54.4035 59.8599 54.6264 59.9644C55.3306 60.2932 55.9488 60.6048 56.4774 60.8997L56.4791 60.8979L58.3515 61.9064C58.5818 62.0291 58.8137 62.1487 59.0423 62.2634C59.2791 62.3822 59.5134 62.5177 59.7438 62.6703C59.8539 62.744 60.2872 62.9991 61.0521 63.4396C61.6802 63.8017 62.1232 64.0648 62.3747 64.2286C62.7679 64.4847 63.1463 64.7123 63.5456 64.9514C63.9447 65.1904 64.3647 65.4414 64.8397 65.7422C65.5811 66.2119 66.3237 66.6825 67.0673 67.1523C69.7641 68.843 72.497 70.5513 75.3422 71.8359C76.6621 72.4317 77.7996 72.9062 79.1334 73.0728C79.888 73.1674 80.4432 72.9784 80.8987 72.6284C81.3598 72.2737 81.7259 71.75 82.091 71.1648C82.6228 70.311 83.1221 69.4433 83.5885 68.5641C84.5355 66.7942 85.3394 64.9684 86.0017 63.0898L86.1142 63.129L86.0035 63.088C86.3912 62.031 86.7246 60.9623 87.0049 59.8858L87.1191 59.9162L87.1209 59.9144L87.0049 59.8858C87.1875 59.1472 87.3609 58.4114 87.5225 57.6815C87.8768 56.084 88.121 54.4705 88.2561 52.8425L88.3846 50.6542C88.4416 48.0632 88.2652 45.4939 87.8527 42.9487C87.5464 41.0618 87.0714 39.2709 86.4855 37.3012C86.3934 36.9931 86.1244 36.2434 85.6733 35.0469C85.3926 34.302 85.0831 33.5642 84.7452 32.8389C83.8759 30.974 82.9917 29.3078 82.0946 27.8447C81.3364 26.6089 80.4391 25.3209 79.4047 23.9804L78.0678 22.3418L75.833 19.9625L75.2012 19.3556C74.7335 18.9613 74.287 18.5533 73.8607 18.1365C73.6871 17.966 73.1723 17.565 72.306 16.9317C71.9973 16.7064 71.7204 16.4852 71.4546 16.2784C71.1877 16.0707 70.9297 15.8767 70.6514 15.7019C70.3287 15.4989 69.993 15.2741 69.6554 15.0468C69.3191 14.8204 68.9797 14.5905 68.6434 14.3757L66.9227 13.3833L66.0785 12.9371L65.0985 12.4712C60.1852 10.2209 54.9966 9.06001 49.534 8.98702C46.8489 8.99 44.1875 9.23825 41.5518 9.73312L38.7442 10.4078L36.1078 11.2592L36.1096 11.261C33.9552 12.0431 32.0203 12.9211 30.3051 13.8973C26.6585 15.9709 23.4099 18.5791 20.5594 21.7224C19.0309 23.408 17.67 25.1567 16.4755 26.9665L16.4719 26.9647C15.357 28.6923 14.3631 30.4861 13.4911 32.3463L13.4929 32.3481L12.2577 35.3271C12.2572 35.3291 12.2582 35.3322 12.2577 35.3342L12.2559 35.3325L12.2524 35.345L12.2541 35.3467C11.6366 37.0281 11.1325 38.7469 10.7423 40.5016C10.2266 42.8269 9.91428 45.179 9.80523 47.5574C9.78792 47.9469 9.78539 48.4309 9.79988 49.0085C9.81228 49.4966 9.8191 49.9859 9.8213 50.474C9.82202 50.7105 9.82833 50.9481 9.83915 51.1843C9.89853 52.3263 10.0127 53.4628 10.1819 54.59L10.3693 55.7163L10.5138 56.4195C10.6723 57.1256 10.8708 57.8347 11.0725 58.5382C11.2463 59.1431 11.4717 59.7356 11.7472 60.3142C12.1115 61.0368 12.5395 61.7903 13.1216 62.3365C13.7919 62.8538 14.4244 63.2041 15.0208 63.3914L15.367 63.4896C16.0837 63.6679 16.8653 63.7228 17.7124 63.6556L18.0801 63.6199C18.6752 63.5228 19.2504 63.3601 19.8061 63.1326L20.3559 62.8845L20.8664 62.5882L20.8949 62.6364L20.8967 62.6328L20.8735 62.5846L20.936 62.5543C21.2985 62.3515 21.6429 62.1194 21.9695 61.8564C23.5678 60.5692 24.7704 58.9867 25.5768 57.1085L25.6857 57.1549L25.5768 57.1049C25.9012 56.3926 26.1482 55.6617 26.314 54.9131L26.4282 54.938L26.314 54.9095C26.5092 54.0879 26.6426 53.2589 26.712 52.4267L26.7763 50.8863V40.996H26.8548L26.8941 40.9942H26.7781L26.7709 28.3427L26.7763 23.2932H26.8941L26.7763 23.2878C26.8238 22.2745 27.0708 21.4881 27.492 20.5551C27.7494 19.9846 28.2014 19.4128 28.8379 18.8398L28.9164 18.9272L28.8414 18.8362C29.5781 18.2109 30.3633 17.8012 31.1939 17.6135C31.5433 17.5351 32.0274 17.4979 32.6397 17.4993L38.4514 17.51L65.1182 17.4993L66.6603 17.4868L66.7906 17.5011L66.7924 17.5029C66.897 17.5258 67.0146 17.5399 67.1333 17.5546C67.2489 17.569 67.3694 17.5836 67.4671 17.6064C68.4154 17.8265 69.2356 18.2941 69.9285 19.0022C69.962 19.027 69.9949 19.0528 70.0249 19.0825L70.1213 19.195L70.5979 19.8483L70.6711 19.9411C70.6931 19.9753 70.7122 20.0133 70.73 20.0535L70.8799 20.3445C71.4633 21.3529 71.6299 22.531 71.6403 23.6751C71.6629 25.9749 71.669 28.2776 71.6581 30.581L71.6617 35.2539H71.6653L71.6795 48.3356L71.6528 60.2214L71.5831 60.2196C71.5831 60.2226 71.5831 60.2256 71.5831 60.2285L71.651 60.2393L71.5814 60.6873L71.4636 60.6694L71.5796 60.6908C71.3872 61.7109 70.8837 62.5889 70.0731 63.32L69.9999 63.2397L70.0642 63.3254L69.493 63.7502L69.4216 63.6556L69.4769 63.7609C68.884 64.0808 68.2238 64.2588 67.501 64.2946L67.4957 64.175V64.2964L64.6452 64.2946C63.7836 64.4015 63.0549 64.2507 62.4711 63.8252L62.5407 63.7288L62.4444 63.7984L62.1802 63.4325L62.2766 63.3629L62.1713 63.4182L61.9428 62.9827L62.0445 62.9273H61.9285L61.8982 48.2303L61.9142 44.0625L61.9017 30.5025L61.9035 30.4186L61.8678 27.1879L61.7607 26.9755C61.7358 26.9598 61.7158 26.9416 61.6983 26.9183C61.6721 26.9077 61.6478 26.8949 61.6251 26.8773C61.5658 26.8692 61.5096 26.8551 61.4555 26.8345L60.5648 26.813L58.1695 26.8023L38.1462 26.8112V26.6917L38.1355 26.8112C37.6021 26.758 37.2073 26.8144 36.9343 26.9594C36.839 27.1284 36.7963 27.3282 36.7807 27.5466C36.7641 27.7817 36.7774 28.0102 36.7736 28.2428L36.77 29.2923L36.7683 30.8434L36.77 34.3918L36.7718 35.1111H36.654L36.7326 35.1272L36.6951 35.1468L36.7201 35.17H36.7772L36.7807 45.2227L36.7772 47.1219L36.7754 47.1201C36.8147 49.8015 36.7994 52.2232 36.5701 54.7096L36.4648 54.6989L36.5719 54.7114C36.4056 56.2898 36.0536 57.8678 35.517 59.445C35.3278 60.0017 35.1275 60.4807 34.9155 60.8783L34.9137 60.8765L34.0338 62.6168L33.9302 62.5614L33.9284 62.5632L34.0302 62.6293L33.4608 63.5217L33.3823 63.4717L33.4572 63.5253L32.3452 65.1032L32.2488 65.0353L32.3416 65.1085C31.3539 66.3752 30.2596 67.513 29.0592 68.5231C27.8936 69.5376 26.6757 70.3886 25.4054 71.0755C24.9236 71.3369 24.2711 71.6658 23.4492 72.0626L23.3974 71.9555L23.4385 72.0661C23.1849 72.1614 22.9314 72.251 22.6799 72.3339C22.3342 72.4467 22.0855 72.5346 21.9338 72.5963C21.3185 72.8441 20.8514 73.0056 20.5362 73.0764C19.6967 73.2666 19.1075 73.3997 18.7709 73.4762C18.4355 73.5511 18.1137 73.5801 17.7945 73.5994C17.4735 73.6188 17.1591 73.6284 16.8235 73.6654C16.3958 73.7134 16.0926 73.7333 15.9239 73.7208C15.2935 73.6721 14.7649 73.6407 14.3425 73.6262C13.8694 73.6113 13.2776 73.5346 12.9396 73.453C12.1533 73.2629 11.3784 73.0312 10.6156 72.7587L9.85699 72.4731L9.44468 72.2893C9.03779 72.0967 8.63945 71.8765 8.24878 71.6306V71.6342C7.73462 71.3605 7.2464 71.041 6.78336 70.6775L6.85476 70.5829L6.77801 70.6739L5.77309 69.8243L5.84092 69.7422L5.76595 69.8171L5.07697 69.1139L5.16087 69.03L5.06984 69.1067L4.45225 68.3571L4.529 68.291L4.44868 68.3517C3.95573 67.6919 3.53151 67.0031 3.17782 66.2884C2.36174 64.7261 1.78858 63.0193 1.35898 61.2781L1.18406 60.5302C0.754014 58.7171 0.443739 56.8844 0.255902 55.0326L0.184505 54.3936C0.163458 54.181 0.144184 53.9687 0.129172 53.7564C-0.173218 49.493 0.0553437 45.256 0.816367 41.0496L0.934172 41.0692L0.818152 41.046C1.17566 39.3066 1.54701 37.7485 1.93194 36.3731L2.20682 35.4324C2.8764 33.2291 3.74663 30.983 4.81816 28.6961C7.20085 23.6088 10.366 18.9744 14.3104 14.7934C20.2647 8.48114 27.7269 3.89144 36.1025 1.68312L37.7428 1.2708C38.2404 1.15339 38.6891 1.05602 39.0887 0.978078C39.901 0.819436 41.0666 0.630849 42.58 0.412257C42.8556 0.372478 43.1741 0.337939 43.5313 0.312302C43.8558 0.288395 44.1697 0.261681 44.472 0.23198L45.6357 0.13024Z" fill="var(--fill-0, white)"/>
<path d="M36.77 35.1361L36.7326 35.1272L36.7629 35.1129C36.772 35.1302 36.7687 35.1424 36.77 35.1361Z" fill="var(--fill-0, white)"/>
</g>
</g>
</svg>
