<svg preserveAspectRatio="none" width="100%" height="100%" overflow="visible" style="display: block;" viewBox="0 0 30.989 32" fill="none" xmlns="http://www.w3.org/2000/svg">
<g id="logo">
<g id="Union">
<path fill-rule="evenodd" clip-rule="evenodd" d="M14.3668 0.0410014C15.2192 -0.0222235 16.0717 -0.0123522 16.9235 0.0707832C16.9835 0.0578892 17.0415 0.0609603 17.0972 0.0803358C17.1816 0.0754705 17.2587 0.0858815 17.3281 0.111803L17.5748 0.143833L17.5742 0.145519C17.58 0.146177 17.585 0.146823 17.5888 0.14889L17.5984 0.155633C17.7837 0.17966 17.9489 0.202504 18.0934 0.224187L18.0951 0.224749L18.1131 0.231492L18.1148 0.232054C18.1171 0.233464 18.1193 0.235581 18.1221 0.238235C18.1225 0.238596 18.1227 0.239358 18.1232 0.239921L18.7621 0.345562C18.7709 0.344299 18.779 0.343891 18.7857 0.343314C18.7927 0.342721 18.8015 0.342059 18.8093 0.343314C18.8126 0.343862 18.8218 0.345696 18.8301 0.352305C18.8327 0.354402 18.8339 0.358376 18.8363 0.361858C19.4132 0.491957 19.9194 0.627582 20.3546 0.769249C20.9716 0.969939 21.6074 1.23667 22.2612 1.56886C23.7172 2.31549 25.0173 3.25378 26.1587 4.38408C26.4785 4.70073 26.8182 5.07402 27.178 5.5023C27.8269 6.27389 28.3991 7.09739 28.8947 7.9725L29.1026 8.35067C29.3538 8.82399 29.5826 9.30898 29.7881 9.80436L29.7533 9.81841L29.7876 9.80492C30.1777 10.7488 30.4767 11.7207 30.6838 12.7207C30.9526 14.0163 31.0439 15.3257 30.9575 16.6485C30.9746 16.7398 30.9687 16.8297 30.9401 16.9183C30.9187 17.206 30.8927 17.4658 30.8608 17.6976C30.633 19.3621 30.1634 20.9619 29.4532 22.4964L29.4195 22.4807L29.4527 22.497L28.9761 23.4618L28.9447 23.4455L28.975 23.4624C27.6848 25.8822 25.9265 27.8702 23.7008 29.4255C22.6216 30.1793 21.4436 30.7814 20.1675 31.2315L19.8337 31.3427C19.4985 31.4498 19.1594 31.5442 18.8166 31.6259C18.2779 31.7548 17.7326 31.8504 17.1815 31.9125L16.6044 31.9648C15.9857 32.0136 15.3666 32.0116 14.7478 31.9592C14.6812 31.9575 14.6087 31.9532 14.5303 31.9468L14.2735 31.9204C13.7478 31.8558 13.2492 31.7709 12.7788 31.6653L12.7872 31.6282L12.7867 31.6276V31.6293L12.7788 31.6653C12.337 31.5622 11.9767 31.4658 11.7005 31.3759C11.0386 31.1605 10.3936 30.9024 9.76523 30.6021C9.67444 30.5587 9.58634 30.5134 9.50113 30.4667C9.14475 30.2877 8.79985 30.0936 8.46664 29.884L8.20029 29.7177C8.08671 29.6467 7.96598 29.5763 7.85583 29.498C7.63544 29.3415 7.41491 29.1847 7.19501 29.0276C6.91057 28.8243 6.58943 28.563 6.23076 28.2443L5.53286 27.606L5.54971 27.5874L5.53229 27.6054C4.77573 26.8744 4.09273 26.0793 3.4841 25.2201L3.338 25.0189C3.19559 24.8145 3.05976 24.5952 2.89296 24.3165C2.78937 24.1467 2.70037 23.969 2.60525 23.7995C2.55689 23.7135 2.54129 23.6249 2.56086 23.536L2.5957 23.5427L2.59626 23.5422L2.57322 23.5152C2.6087 23.4848 2.65004 23.4686 2.69572 23.4691L3.01096 23.477C3.1106 23.4802 3.20428 23.4827 3.28911 23.4798C3.48535 23.4729 3.72394 23.4698 4.00443 23.4702C4.17103 23.4705 4.3716 23.4524 4.55736 23.441C5.05219 23.4112 5.53884 23.338 6.01723 23.2219L6.22233 23.1691C6.46906 23.0941 6.72066 23.023 6.95114 22.9359C7.3325 22.7911 7.70622 22.6267 8.07161 22.4431C8.17014 22.3848 8.27022 22.3274 8.37224 22.2722C9.18144 21.8334 9.92375 21.3241 10.598 20.7438C10.8396 20.536 11.1051 20.2714 11.3156 20.0515C12.1964 19.1316 12.9446 18.0249 13.3205 16.8548C13.5309 16.1993 13.6764 15.5575 13.7571 14.9291C13.8246 14.4032 13.8666 13.8036 13.8835 13.1309C13.8973 12.59 13.9034 11.8157 13.9015 10.8074C13.9011 10.528 13.9176 10.3176 13.9532 10.1786C14.0092 9.95997 14.1094 9.76062 14.2533 9.58128L14.2814 9.60431L14.2555 9.57959C14.4088 9.41782 14.584 9.30508 14.7809 9.24244C14.8955 9.20624 15.0815 9.18808 15.3344 9.18625L16.1436 9.18568C16.379 9.18715 16.5805 9.19052 16.7471 9.19524C16.9125 9.19975 17.0601 9.2643 17.1888 9.38573C17.2454 9.43316 17.2888 9.49109 17.3197 9.55936C17.3661 9.64553 17.3978 9.74186 17.4146 9.84763L17.3798 9.85324L17.3832 9.85381H17.4158L17.4169 13.1922L17.4197 14.1014C17.4222 14.4684 17.4072 14.839 17.3748 15.2117L17.3214 15.8765L17.2944 15.8742L17.3219 15.8781L17.2169 16.6823L17.1798 16.6772L17.2163 16.6834C17.134 17.2069 17.0235 17.7344 16.8617 18.241L16.7606 18.5686C16.7415 18.6323 16.7203 18.6938 16.6965 18.7529L16.3858 19.5396C16.2389 19.9216 16.0377 20.2692 15.8548 20.6202L15.8216 20.6028L15.8536 20.6219C15.5326 21.1723 15.1694 21.6938 14.7646 22.1863C14.3046 22.7366 13.8412 23.2156 13.375 23.6208C12.9538 23.9872 12.4586 24.3583 11.8904 24.734L11.8696 24.7031L11.8887 24.7351L11.1358 25.1914L11.1167 25.1594L11.1341 25.1925L10.4098 25.5718L10.3923 25.5387L10.4081 25.5729L9.78209 25.855L9.76692 25.8213L9.78041 25.8556L9.50057 25.9669C9.20084 26.0839 8.89378 26.1871 8.58183 26.2782L8.68185 26.3641L9.03586 26.6383L9.11566 26.6934L9.44269 26.9114L9.98326 27.2368L9.96415 27.2683L9.96472 27.2688L9.98326 27.2368C10.2554 27.3938 10.5348 27.5384 10.82 27.67L10.9711 27.7391C11.7034 28.0677 12.4685 28.3158 13.2643 28.4837C13.4165 28.5175 13.5704 28.547 13.7251 28.5719C13.7434 28.5749 13.7604 28.574 13.783 28.5747C13.8036 28.5754 13.8291 28.5777 13.8538 28.5899L13.8571 28.591C14.9946 28.768 16.1367 28.7748 17.2832 28.6118C18.9164 28.3797 20.4288 27.8173 21.8201 26.9238C22.0409 26.7821 22.2546 26.6321 22.4612 26.4748L22.4832 26.504L22.4624 26.4743C22.6618 26.3339 22.8547 26.1751 23.0428 26L22.8153 25.9663L22.8203 25.9309L22.813 25.9663C22.53 25.9058 22.257 25.8117 21.9949 25.6853C21.8252 25.614 21.6612 25.5323 21.5043 25.4398C21.4116 25.3852 21.3227 25.3353 21.238 25.2897C21.1466 25.2407 21.0571 25.1883 20.9699 25.133L20.6794 24.9509L20.0366 24.5514C19.6071 24.2923 19.182 24.0281 18.761 23.7579C18.5643 23.6318 18.4022 23.531 18.2749 23.4556C18.0521 23.3234 17.8614 23.1967 17.6209 23.0578C17.3364 22.8931 17.052 22.7273 16.7684 22.5605L16.4453 22.3835C16.1951 22.252 15.9611 22.1202 15.6974 22.0289L15.7098 21.993L15.6969 22.0284C15.5953 21.9915 15.4929 21.9578 15.3901 21.9278C15.3754 21.9235 15.3635 21.9148 15.3552 21.9031C15.3546 21.9027 15.3536 21.9028 15.353 21.9025L15.3322 21.8839C15.3255 21.8747 15.3237 21.8645 15.3232 21.8575C15.3227 21.8503 15.3232 21.8429 15.3243 21.8367C15.3318 21.7982 15.3465 21.7614 15.367 21.7277C15.81 21.0065 16.1091 20.4934 16.2655 20.1881C16.4902 19.7498 16.7177 19.3162 16.9471 18.8878L16.9797 18.9046L16.9685 18.8704C17.0498 18.8437 17.127 18.8448 17.1972 18.8777C17.4189 18.9812 17.6135 19.0793 17.7799 19.1721L17.7805 19.1716L18.3699 19.489C18.4424 19.5277 18.5154 19.5653 18.5874 19.6014C18.6619 19.6388 18.7357 19.6815 18.8082 19.7295C18.8429 19.7527 18.9793 19.833 19.2201 19.9717C19.4178 20.0857 19.5573 20.1686 19.6365 20.2201C19.7602 20.3007 19.8794 20.3724 20.0051 20.4477C20.1307 20.5229 20.263 20.6019 20.4125 20.6966C20.6459 20.8445 20.8797 20.9926 21.1138 21.1405C21.9628 21.6728 22.8231 22.2106 23.7188 22.615C24.1344 22.8026 24.4925 22.952 24.9123 23.0044C25.1499 23.0342 25.3247 22.9747 25.4681 22.8645C25.6133 22.7528 25.7285 22.588 25.8434 22.4037C26.0109 22.1349 26.1681 21.8618 26.3149 21.585C26.613 21.0278 26.8661 20.453 27.0746 19.8616L27.11 19.874L27.0752 19.861C27.1972 19.5283 27.3022 19.1919 27.3904 18.853L27.4264 18.8625L27.4269 18.8619L27.3904 18.853C27.4479 18.6204 27.5025 18.3888 27.5534 18.159C27.6649 17.6561 27.7418 17.1481 27.7843 16.6356L27.8248 15.9467C27.8427 15.131 27.7872 14.3221 27.6573 13.5209C27.5609 12.9269 27.4114 12.3631 27.2269 11.743C27.1979 11.646 27.1132 11.4099 26.9712 11.0333C26.8828 10.7988 26.7854 10.5665 26.679 10.3382C26.4054 9.75107 26.127 9.22652 25.8446 8.76593C25.6059 8.37688 25.3234 7.97139 24.9978 7.54937L24.5769 7.03353L23.8734 6.28449L23.6744 6.09344C23.5272 5.96929 23.3866 5.84087 23.2524 5.70965C23.1978 5.65595 23.0357 5.52972 22.763 5.33035C22.6658 5.25943 22.5786 5.18979 22.495 5.12469C22.4109 5.0593 22.3297 4.99821 22.2421 4.94319C22.1405 4.87929 22.0348 4.80852 21.9285 4.73696C21.8227 4.66569 21.7158 4.59331 21.6099 4.52568L21.0683 4.21326L20.8025 4.07278L20.494 3.92611C18.9472 3.2177 17.3137 2.85222 15.594 2.82925C14.7487 2.83018 13.9109 2.90834 13.0811 3.06413L12.1972 3.27654L11.3673 3.54457L11.3678 3.54513C10.6896 3.79135 10.0804 4.06776 9.54047 4.37509C8.39249 5.02788 7.36978 5.84897 6.47239 6.83854C5.99119 7.36917 5.56275 7.91972 5.18671 8.48947L5.18559 8.4889C4.83461 9.03277 4.52172 9.59748 4.24718 10.1831L4.24775 10.1837L3.8589 11.1215C3.85874 11.1221 3.85905 11.1231 3.8589 11.1237L3.85833 11.1232L3.85721 11.1271L3.85777 11.1277C3.66335 11.657 3.50466 12.1981 3.38183 12.7505C3.21947 13.4826 3.12115 14.223 3.08682 14.9718C3.08137 15.0944 3.08057 15.2468 3.08513 15.4286C3.08904 15.5823 3.09119 15.7363 3.09188 15.8899C3.0921 15.9644 3.09409 16.0392 3.0975 16.1136C3.11619 16.4731 3.15215 16.8309 3.20538 17.1857L3.26439 17.5403L3.3099 17.7617C3.35978 17.984 3.42228 18.2072 3.48578 18.4287C3.54048 18.6191 3.61144 18.8057 3.69819 18.9878C3.81287 19.2153 3.9476 19.4525 4.13087 19.6245C4.34188 19.7873 4.54099 19.8976 4.72875 19.9566L4.83776 19.9875C5.06337 20.0436 5.30942 20.0609 5.57612 20.0397L5.69188 20.0285C5.87923 19.9979 6.06031 19.9467 6.23526 19.8751L6.40833 19.797L6.56904 19.7037L6.57803 19.7189L6.57859 19.7177L6.57128 19.7026L6.59095 19.693C6.70508 19.6292 6.8135 19.5561 6.9163 19.4733C7.41948 19.0681 7.79809 18.5699 8.05194 17.9786L8.08622 17.9932L8.05194 17.9775C8.15408 17.7532 8.23183 17.5231 8.28401 17.2874L8.31998 17.2953L8.28401 17.2863C8.34547 17.0277 8.38747 16.7667 8.40932 16.5047L8.42955 16.0198V12.9062H8.45428L8.46664 12.9056H8.43011L8.42787 8.92271L8.42955 7.33303H8.46664L8.42955 7.33135C8.44452 7.01233 8.52228 6.76476 8.65488 6.47105C8.7359 6.29144 8.87822 6.11145 9.07857 5.93104L9.10329 5.95858L9.07969 5.92992C9.3116 5.73307 9.55881 5.60408 9.8203 5.54501C9.93028 5.5203 10.0827 5.50859 10.2755 5.50904L12.1051 5.51241L20.5001 5.50904L20.9856 5.50511L21.0267 5.5096L21.0272 5.51017C21.0602 5.51739 21.0972 5.52182 21.1346 5.52646C21.1709 5.53098 21.2089 5.53557 21.2396 5.54276C21.5382 5.61205 21.7964 5.75924 22.0145 5.98218C22.0251 5.98999 22.0354 5.9981 22.0449 6.00747L22.0752 6.04287L22.2252 6.24853L22.2483 6.27775C22.2552 6.28852 22.2612 6.30047 22.2668 6.31315L22.314 6.40474C22.4977 6.7222 22.5501 7.09309 22.5534 7.45329C22.5605 8.17728 22.5625 8.90222 22.559 9.62735L22.5601 11.0985H22.5613L22.5658 15.2168L22.5573 18.9586L22.5354 18.958C22.5354 18.959 22.5354 18.9599 22.5354 18.9608L22.5568 18.9642L22.5349 19.1053L22.4978 19.0996L22.5343 19.1064C22.4737 19.4275 22.3152 19.7039 22.06 19.9341L22.037 19.9088L22.0572 19.9358L21.8774 20.0695L21.8549 20.0397L21.8724 20.0729C21.6857 20.1736 21.4778 20.2296 21.2503 20.2409L21.2486 20.2032V20.2415L20.3512 20.2409C20.08 20.2745 19.8506 20.2271 19.6668 20.0931L19.6887 20.0628L19.6584 20.0847L19.5752 19.9695L19.6056 19.9476L19.5724 19.965L19.5005 19.8279L19.5325 19.8105H19.496L19.4864 15.1836L19.4915 13.8715L19.4876 9.60263L19.4881 9.57622L19.4769 8.55914L19.4432 8.49227C19.4353 8.48733 19.429 8.48161 19.4235 8.47429C19.4153 8.47096 19.4076 8.4669 19.4005 8.46137C19.3818 8.45884 19.3641 8.45439 19.3471 8.44788L19.0667 8.44114L18.3126 8.43777L12.009 8.44058V8.40293L12.0056 8.44058C11.8377 8.42383 11.7134 8.44156 11.6274 8.48722C11.5974 8.54041 11.584 8.60332 11.5791 8.67209C11.5739 8.74608 11.5781 8.81802 11.5769 8.89124L11.5757 9.22165L11.5752 9.70995L11.5757 10.8271L11.5763 11.0535H11.5392L11.5639 11.0586L11.5521 11.0647L11.56 11.072H11.578L11.5791 14.2368L11.578 14.8347L11.5774 14.8341C11.5898 15.6783 11.585 16.4406 11.5128 17.2234L11.4797 17.22L11.5134 17.2239C11.461 17.7209 11.3502 18.2177 11.1813 18.7142C11.1217 18.8894 11.0586 19.0402 10.9919 19.1654L10.9913 19.1648L10.7143 19.7127L10.6817 19.6953L10.6812 19.6958L10.7132 19.7166L10.5339 19.9976L10.5092 19.9818L10.5328 19.9987L10.1827 20.4954L10.1524 20.4741L10.1816 20.4971C9.87065 20.8959 9.52616 21.2541 9.14825 21.5721C8.78131 21.8915 8.39789 22.1594 7.998 22.3756C7.8463 22.4579 7.64088 22.5615 7.38213 22.6864L7.36584 22.6527L7.37876 22.6875C7.29895 22.7175 7.21914 22.7457 7.13995 22.7718C7.03111 22.8073 6.95283 22.835 6.90506 22.8544C6.71136 22.9324 6.56432 22.9833 6.46508 23.0055C6.2008 23.0654 6.01532 23.1073 5.90934 23.1314C5.80377 23.155 5.70246 23.1641 5.60197 23.1702C5.50089 23.1763 5.40192 23.1793 5.29629 23.191C5.16164 23.2061 5.06617 23.2123 5.01308 23.2084C4.81461 23.1931 4.6482 23.1832 4.51522 23.1786C4.36627 23.1739 4.17996 23.1498 4.07355 23.1241C3.82602 23.0643 3.58206 22.9913 3.34193 22.9055L3.10311 22.8156L2.97331 22.7577C2.84522 22.6971 2.71981 22.6278 2.59682 22.5504V22.5515C2.43496 22.4653 2.28126 22.3647 2.13549 22.2503L2.15797 22.2205L2.1338 22.2492L1.81744 21.9817L1.8388 21.9559L1.81519 21.9795L1.59829 21.7581L1.6247 21.7317L1.59605 21.7558L1.40162 21.5198L1.42578 21.499L1.4005 21.5181C1.24531 21.3104 1.11176 21.0936 1.00041 20.8686C0.743497 20.3767 0.563057 19.8394 0.427815 19.2912L0.372746 19.0558C0.237361 18.485 0.139682 17.9081 0.0805482 17.3251L0.0580714 17.1239C0.0514455 17.057 0.0453778 16.9901 0.0406519 16.9233C-0.0545453 15.5811 0.0174095 14.2473 0.256991 12.923L0.294078 12.9292L0.257553 12.9219C0.370103 12.3743 0.487007 11.8838 0.608191 11.4508L0.694726 11.1547C0.905521 10.461 1.17948 9.7539 1.51682 9.03397C2.26692 7.43239 3.26335 5.97342 4.5051 4.65717C6.37963 2.66999 8.72883 1.22508 11.3656 0.529872L11.882 0.400068C12.0386 0.363103 12.1799 0.332451 12.3057 0.307913C12.5614 0.257971 12.9284 0.198601 13.4048 0.129785C13.4916 0.117262 13.5918 0.106388 13.7043 0.0983173C13.8064 0.0907911 13.9053 0.0823811 14.0004 0.0730309L14.3668 0.0410014Z" fill="var(--fill-0, #B3321F)"/>
<path d="M11.5757 11.0614L11.5639 11.0586L11.5735 11.0541C11.5763 11.0595 11.5753 11.0633 11.5757 11.0614Z" fill="var(--fill-0, #B3321F)"/>
</g>
</g>
</svg>
