<svg preserveAspectRatio="none" width="100%" height="100%" overflow="visible" style="display: block;" viewBox="0 0 16 16" fill="none" xmlns="http://www.w3.org/2000/svg">
<g id="user-heart-line">
<path id="Vector" d="M11.894 10.4393L12.0113 10.5573L12.1297 10.4393C12.7155 9.85353 13.6652 9.85353 14.251 10.4393C14.8368 11.0251 14.8368 11.9749 14.251 12.5607L12.0119 14.7998L9.77267 12.5607C9.18687 11.9749 9.18687 11.0251 9.77267 10.4393C10.3585 9.85353 11.3082 9.85353 11.894 10.4393ZM8 9.33333V10.6667C5.79086 10.6667 4 12.4575 4 14.6667H2.66667C2.66667 11.7767 4.96523 9.42367 7.83387 9.33587L8 9.33333ZM8 0.666667C10.21 0.666667 12 2.45667 12 4.66667C12 6.82647 10.2905 8.58507 8.15 8.66393L8 8.66667C5.79 8.66667 4 6.87667 4 4.66667C4 2.50689 5.70956 0.748247 7.85 0.669427L8 0.666667ZM8 2C6.52638 2 5.33333 3.19305 5.33333 4.66667C5.33333 6.14029 6.52638 7.33333 8 7.33333C9.4736 7.33333 10.6667 6.14029 10.6667 4.66667C10.6667 3.19305 9.4736 2 8 2Z" fill="var(--fill-0, #DCCFBB)"/>
</g>
</svg>
